<?xml version="1.0" encoding="utf-8"?>
<!-- Generator: Adobe Illustrator 19.2.1, SVG Export Plug-In . SVG Version: 6.00 Build 0)  -->
<svg version="1.1" id="Cityscape" xmlns="http://www.w3.org/2000/svg" xmlns:xlink="http://www.w3.org/1999/xlink" x="0px" y="0px"
	 viewBox="0 0 600 475.6" style="enable-background:new 0 0 600 475.6;" xml:space="preserve">
<style type="text/css">
	.st0{fill:#B0B0B0;}
	.st1{fill:url(#SVGID_1_);}
	.st2{fill:#C2C2C2;}
	.st3{fill:#D3D3D3;}
	.st4{fill:#EDEDED;}
	.st5{fill:url(#SVGID_2_);}
	.st6{fill:url(#SVGID_3_);}
	.st7{fill:#B5B5B5;}
	.st8{fill:#ABABAB;}
	.st9{fill:url(#SVGID_4_);}
	.st10{fill:#C4C4C4;}
	.st11{fill:url(#SVGID_5_);}
	.st12{fill:#CCCCCC;}
	.st13{fill:#D1D1D1;}
	.st14{fill:url(#SVGID_6_);}
	.st15{fill:#D6D6D6;}
	.st16{fill:#E0E0E0;}
	.st17{fill:#A6A6A6;}
	.st18{fill:url(#SVGID_7_);}
	.st19{fill:#B2B2B2;}
	.st20{fill:#BDBDBD;}
	.st21{fill:#DEDEDE;}
	.st22{fill:#BCBCBC;}
	.st23{fill:#949494;}
	.st24{fill:#ADADAD;}
	.st25{fill:url(#SVGID_8_);}
	.st26{fill:#9E9E9E;}
	.st27{fill:url(#SVGID_9_);}
	.st28{fill:#A1A1A1;}
	.st29{fill:url(#SVGID_10_);}
	.st30{fill:#9C9C9C;}
	.st31{fill:url(#SVGID_11_);}
	.st32{fill:url(#SVGID_12_);}
	.st33{fill:url(#SVGID_13_);}
	.st34{fill:url(#SVGID_14_);}
	.st35{fill:#BABABA;}
	.st36{fill:#8C8C8C;}
	.st37{fill:url(#SVGID_15_);}
	.st38{fill:#919191;}
	.st39{fill:#B7B7B7;}
	.st40{fill:#AFAFAF;}
	.st41{fill:#C6C6C6;}
	.st42{clip-path:url(#SVGID_17_);}
	.st43{fill:#A5A5A5;}
	.st44{fill:#D8D8D8;}
	.st45{fill:url(#SVGID_18_);}
	.st46{fill:url(#SVGID_19_);}
	.st47{fill:url(#SVGID_20_);}
	.st48{fill:url(#SVGID_21_);}
	.st49{fill:#D7D7D7;}
	.st50{fill:#CFCFCF;}
	.st51{fill:url(#SVGID_22_);}
	.st52{fill:url(#SVGID_23_);}
	.st53{fill:url(#SVGID_24_);}
	.st54{fill:url(#SVGID_25_);}
	.st55{fill:url(#SVGID_26_);}
	.st56{fill:url(#SVGID_27_);}
	.st57{fill:url(#SVGID_28_);}
	.st58{fill:url(#SVGID_29_);}
	.st59{fill:url(#SVGID_30_);}
	.st60{fill:#D9D9D9;}
	.st61{fill:url(#SVGID_31_);}
	.st62{fill:url(#SVGID_32_);}
	.st63{fill:#C9C9C9;}
	.st64{fill:url(#SVGID_33_);}
	.st65{fill:#B1B1B1;}
	.st66{fill:url(#SVGID_34_);}
	.st67{fill:url(#SVGID_35_);}
	.st68{fill:url(#SVGID_36_);}
	.st69{fill:#8F8F8F;}
	.st70{fill:url(#SVGID_37_);}
	.st71{fill:#929292;}
	.st72{fill:#9F9F9F;}
	.st73{fill:url(#SVGID_38_);}
	.st74{fill:url(#SVGID_39_);}
	.st75{fill:url(#SVGID_40_);}
	.st76{fill:url(#SVGID_41_);}
	.st77{fill:url(#SVGID_42_);}
	.st78{fill:#828282;}
	.st79{fill:none;stroke:#C4C4C4;stroke-width:1.8876;stroke-linecap:round;stroke-linejoin:round;}
	.st80{fill:none;stroke:#C4C4C4;stroke-width:1.8876;stroke-linecap:round;stroke-linejoin:round;stroke-dasharray:5.6601,7.5468;}
	.st81{fill:#6B6B6B;}
</style>
<g id="trees_1_">
	<g>
		<g>
			<rect x="533.5" y="247.7" class="st0" width="4.7" height="29.6"/>
			<linearGradient id="SVGID_1_" gradientUnits="userSpaceOnUse" x1="535.812" y1="248.7302" x2="535.812" y2="260.6267">
				<stop  offset="0" style="stop-color:#ADADAD"/>
				<stop  offset="1" style="stop-color:#FFFFFF"/>
			</linearGradient>
			<rect x="533.5" y="247.1" class="st1" width="4.7" height="13.8"/>
		</g>
		<g>
			<g>
				<ellipse class="st2" cx="536.1" cy="232.4" rx="16.5" ry="16.6"/>
				<path class="st3" d="M522.4,228.8c0-3.1,0.9-6,2.3-8.4c-3.2,3-5.2,7.3-5.2,12c0,9.1,7.4,16.6,16.5,16.6c6.1,0,11.3-3.3,14.2-8.1
					c-3,2.8-6.9,4.5-11.3,4.5C529.8,245.3,522.4,237.9,522.4,228.8z"/>
			</g>
			<g>
				<circle class="st2" cx="528.3" cy="245" r="5.8"/>
				<path class="st3" d="M523.5,243.7c0-1.1,0.3-2.1,0.8-2.9c-1.1,1.1-1.8,2.5-1.8,4.2c0,3.2,2.6,5.8,5.8,5.8c2.1,0,4-1.1,5-2.8
					c-1,1-2.4,1.6-4,1.6C526.1,249.5,523.5,246.9,523.5,243.7z"/>
			</g>
			<g>
				<ellipse class="st2" cx="527.9" cy="218.5" rx="7.2" ry="7.2"/>
				<path class="st3" d="M521.9,216.9c0-1.3,0.4-2.6,1-3.7c-1.4,1.3-2.3,3.2-2.3,5.2c0,4,3.2,7.2,7.2,7.2c2.6,0,4.9-1.4,6.2-3.5
					c-1.3,1.2-3,2-4.9,2C525.1,224.1,521.9,220.9,521.9,216.9z"/>
			</g>
		</g>
		<g>
			<ellipse class="st2" cx="547.9" cy="220.3" rx="3.5" ry="3.5"/>
			<path class="st3" d="M545,219.6c0-0.7,0.2-1.3,0.5-1.8c-0.7,0.6-1.1,1.5-1.1,2.5c0,1.9,1.6,3.5,3.5,3.5c1.3,0,2.4-0.7,3-1.7
				c-0.6,0.6-1.5,1-2.4,1C546.5,223.1,545,221.5,545,219.6z"/>
		</g>
		<path class="st4" d="M551.3,220.3c0-1.9-1.6-3.5-3.5-3.5c-1.2,0-2.3,0.6-2.9,1.6c-2.6-1.6-5.6-2.6-8.9-2.6v33.1
			c9.1,0,16.5-7.4,16.5-16.6c0-3.4-1-6.6-2.8-9.2C550.8,222.6,551.3,221.5,551.3,220.3z"/>
	</g>
	<g>
		<g>
			<rect x="545.6" y="250.8" class="st0" width="2.4" height="26.4"/>
			<linearGradient id="SVGID_2_" gradientUnits="userSpaceOnUse" x1="546.7642" y1="259.0816" x2="546.7642" y2="264.5731">
				<stop  offset="0" style="stop-color:#ADADAD"/>
				<stop  offset="1" style="stop-color:#FFFFFF"/>
			</linearGradient>
			<rect x="545.6" y="256.3" class="st5" width="2.4" height="8.6"/>
		</g>
		<g>
			<circle class="st2" cx="546.5" cy="246.1" r="11"/>
			<path class="st3" d="M537.4,243.7c0-2,0.6-3.9,1.5-5.6c-2.1,2-3.5,4.8-3.5,8c0,6.1,4.9,11,11,11c4,0,7.5-2.2,9.4-5.4
				c-2,1.9-4.6,3-7.5,3C542.4,254.7,537.4,249.7,537.4,243.7z"/>
		</g>
		<g>
			<circle class="st2" cx="555.9" cy="241" r="4.3"/>
			<path class="st3" d="M552.4,240.1c0-0.8,0.2-1.5,0.6-2.2c-0.8,0.8-1.3,1.9-1.3,3.1c0,2.3,1.9,4.3,4.3,4.3c1.6,0,2.9-0.8,3.7-2.1
				c-0.8,0.7-1.8,1.2-2.9,1.2C554.3,244.3,552.4,242.4,552.4,240.1z"/>
		</g>
		<path class="st4" d="M555.9,236.8c-0.9,0-1.8,0.3-2.5,0.8c-1.9-1.5-4.3-2.5-6.9-2.5V257c6.1,0,11-4.9,11-11c0-0.4,0-0.7-0.1-1.1
			c1.6-0.6,2.8-2.1,2.8-4C560.2,238.7,558.3,236.8,555.9,236.8z"/>
	</g>
</g>
<g id="fir_tres">
	<g>
		<g>
			<rect x="37.6" y="269.1" class="st0" width="3.2" height="16.3"/>
			<linearGradient id="SVGID_3_" gradientUnits="userSpaceOnUse" x1="39.1997" y1="268.3826" x2="39.1997" y2="275.9046">
				<stop  offset="0" style="stop-color:#ADADAD"/>
				<stop  offset="1" style="stop-color:#FFFFFF"/>
			</linearGradient>
			<rect x="37.6" y="269.8" class="st6" width="3.2" height="6.7"/>
		</g>
		<g>
			<polygon class="st7" points="26.4,270.8 52,270.8 39.2,237.6 			"/>
			<polygon class="st8" points="39.2,270.8 52,270.8 39.2,237.6 			"/>
		</g>
	</g>
	<g>
		<g>
			<rect x="53.9" y="260.4" class="st0" width="4.8" height="25"/>
			<linearGradient id="SVGID_4_" gradientUnits="userSpaceOnUse" x1="56.3396" y1="259.3444" x2="56.3396" y2="270.8633">
				<stop  offset="0" style="stop-color:#ADADAD"/>
				<stop  offset="1" style="stop-color:#FFFFFF"/>
			</linearGradient>
			<rect x="53.9" y="261.4" class="st9" width="4.8" height="10.2"/>
		</g>
		<g>
			<polygon class="st10" points="37.1,263 75.6,263 56.3,212.2 			"/>
			<polygon class="st7" points="56.3,263 75.6,263 56.3,212.2 			"/>
		</g>
	</g>
</g>
<g id="background_trees">
	<g>
		<g>
			<rect x="96.8" y="215.2" class="st0" width="3.4" height="14.3"/>
			<linearGradient id="SVGID_5_" gradientUnits="userSpaceOnUse" x1="98.5156" y1="214.3167" x2="98.5156" y2="221.852">
				<stop  offset="0" style="stop-color:#ADADAD"/>
				<stop  offset="1" style="stop-color:#FFFFFF"/>
			</linearGradient>
			<rect x="96.8" y="215.7" class="st11" width="3.4" height="6.7"/>
		</g>
		<g>
			<g>
				<circle class="st12" cx="98.7" cy="203.3" r="13.8"/>
				<path class="st13" d="M87.3,200.3c0-2.6,0.7-5,1.9-7c-2.7,2.5-4.3,6.1-4.3,10c0,7.6,6.2,13.8,13.8,13.8c5,0,9.4-2.7,11.8-6.8
					c-2.5,2.3-5.8,3.8-9.4,3.8C93.5,214.1,87.3,207.9,87.3,200.3z"/>
				<g>
					<ellipse class="st12" cx="91.7" cy="213.4" rx="5.9" ry="5.9"/>
					<path class="st13" d="M86.8,212.1c0-1.1,0.3-2.1,0.8-3c-1.1,1.1-1.9,2.6-1.9,4.3c0,3.3,2.6,5.9,5.9,5.9c2.2,0,4-1.2,5.1-2.9
						c-1.1,1-2.5,1.6-4,1.6C89.5,218.1,86.8,215.4,86.8,212.1z"/>
				</g>
			</g>
			<path class="st4" d="M98.7,189.5v27.5c7.6,0,13.8-6.2,13.8-13.8C112.5,195.7,106.3,189.5,98.7,189.5z"/>
		</g>
		<g>
			<circle class="st12" cx="88.8" cy="194.1" r="4.4"/>
			<path class="st13" d="M85.1,193.2c0-0.8,0.2-1.6,0.6-2.3c-0.9,0.8-1.4,2-1.4,3.2c0,2.5,2,4.4,4.4,4.4c1.6,0,3-0.9,3.8-2.2
				c-0.8,0.7-1.9,1.2-3,1.2C87.1,197.6,85.1,195.6,85.1,193.2z"/>
		</g>
	</g>
	<g>
		<g>
			<g>
				<rect x="108.3" y="194.4" class="st0" width="6.8" height="35.1"/>
				<linearGradient id="SVGID_6_" gradientUnits="userSpaceOnUse" x1="111.6455" y1="192.2324" x2="111.6455" y2="210.7227">
					<stop  offset="0" style="stop-color:#ADADAD"/>
					<stop  offset="1" style="stop-color:#FFFFFF"/>
				</linearGradient>
				<rect x="108.3" y="195.6" class="st14" width="6.8" height="16.4"/>
			</g>
			<g>
				<g>
					<ellipse class="st15" cx="112" cy="174.5" rx="23.7" ry="23.7"/>
					<path class="st16" d="M92.4,169.4c0-4.4,1.2-8.5,3.3-12.1c-4.6,4.3-7.5,10.4-7.5,17.3c0,13.1,10.6,23.7,23.7,23.7
						c8.7,0,16.3-4.7,20.4-11.6c-4.2,4-10,6.5-16.2,6.5C103.1,193.1,92.4,182.5,92.4,169.4z"/>
				</g>
				<g>
					<circle class="st15" cx="100.8" cy="192.6" r="8.3"/>
					<path class="st16" d="M94,190.8c0-1.5,0.4-3,1.2-4.2c-1.6,1.5-2.6,3.7-2.6,6c0,4.6,3.7,8.3,8.3,8.3c3,0,5.7-1.6,7.1-4.1
						c-1.5,1.4-3.5,2.3-5.7,2.3C97.7,199.1,94,195.4,94,190.8z"/>
				</g>
				<g>
					<circle class="st15" cx="92" cy="162.3" r="10.3"/>
					<path class="st16" d="M83.5,160c0-1.9,0.5-3.7,1.4-5.3c-2,1.9-3.2,4.5-3.2,7.5c0,5.7,4.6,10.3,10.3,10.3c3.8,0,7.1-2,8.9-5.1
						c-1.8,1.7-4.3,2.8-7.1,2.8C88.1,170.3,83.5,165.7,83.5,160z"/>
				</g>
			</g>
			<g>
				<ellipse class="st15" cx="128.9" cy="157.3" rx="5" ry="5"/>
				<path class="st16" d="M124.8,156.2c0-0.9,0.3-1.8,0.7-2.6c-1,0.9-1.6,2.2-1.6,3.6c0,2.8,2.2,5,5,5c1.8,0,3.4-1,4.3-2.5
					c-0.9,0.8-2.1,1.4-3.4,1.4C127,161.2,124.8,159,124.8,156.2z"/>
			</g>
			<path class="st4" d="M133.9,157.3c0-2.8-2.2-5-5-5c-1.7,0-3.3,0.9-4.2,2.2c-3.7-2.3-8-3.7-12.7-3.7v47.5
				c13.1,0,23.7-10.6,23.7-23.7c0-4.9-1.5-9.4-4-13.2C133.1,160.5,133.9,159,133.9,157.3z"/>
		</g>
	</g>
	<g>
		<g>
			<rect x="134.4" y="215.6" class="st17" width="4.7" height="20"/>
			<linearGradient id="SVGID_7_" gradientUnits="userSpaceOnUse" x1="136.7458" y1="214.4072" x2="136.7458" y2="224.9453">
				<stop  offset="0" style="stop-color:#A3A3A3"/>
				<stop  offset="0.9455" style="stop-color:#FAFAFA"/>
				<stop  offset="1" style="stop-color:#FFFFFF"/>
			</linearGradient>
			<rect x="134.4" y="216.3" class="st18" width="4.7" height="9.3"/>
		</g>
		<g>
			<g>
				<circle class="st19" cx="137" cy="199" r="19.3"/>
				<path class="st20" d="M121.1,194.8c0-3.6,1-6.9,2.7-9.8c-3.7,3.5-6.1,8.5-6.1,14c0,10.6,8.6,19.3,19.3,19.3
					c7,0,13.2-3.8,16.6-9.4c-3.4,3.2-8.1,5.3-13.2,5.3C129.7,214.1,121.1,205.4,121.1,194.8z"/>
				<g>
					<path class="st19" d="M127.5,205c-4.5,0-8.2,3.7-8.2,8.2c0,4.5,3.7,8.2,8.2,8.2c4.5,0,8.2-3.7,8.2-8.2
						C135.7,208.7,132,205,127.5,205z"/>
					<path class="st20" d="M120.7,211.4c0-1.5,0.4-2.9,1.2-4.2c-1.6,1.5-2.6,3.6-2.6,5.9c0,4.5,3.7,8.2,8.2,8.2c3,0,5.6-1.6,7-4
						c-1.5,1.4-3.4,2.2-5.6,2.2C124.4,219.6,120.7,215.9,120.7,211.4z"/>
				</g>
			</g>
			<path class="st21" d="M137,179.7v38.5c10.6,0,19.3-8.6,19.3-19.3C156.3,188.4,147.7,179.7,137,179.7z"/>
		</g>
	</g>
</g>
<g id="grocery_store">
	<g>
		<rect x="60.7" y="273.1" class="st22" width="24.5" height="4.1"/>
		<rect x="56.1" y="277.2" class="st22" width="27.7" height="4.1"/>
		<rect x="51.8" y="281.3" class="st22" width="30.4" height="4.1"/>
		<rect x="60.7" y="275.6" class="st8" width="24.5" height="1.6"/>
		<rect x="56.1" y="279.7" class="st8" width="27.7" height="1.6"/>
		<rect x="51.8" y="283.8" class="st8" width="30.4" height="1.6"/>
	</g>
	<rect x="68.1" y="223.5" class="st23" width="81.3" height="59.1"/>
	<rect x="74.2" y="260.8" class="st24" width="7.8" height="3.6"/>
	<g>
		<rect x="70" y="256.5" class="st24" width="7.8" height="3.6"/>
	</g>
	<rect x="138" y="253.2" class="st24" width="7.8" height="3.6"/>
	<g>
		<rect x="140" y="265.2" class="st24" width="7.7" height="3.6"/>
	</g>
	<linearGradient id="SVGID_8_" gradientUnits="userSpaceOnUse" x1="108.7649" y1="270.9632" x2="108.7649" y2="285.3304">
		<stop  offset="0" style="stop-color:#FFFFFF"/>
		<stop  offset="0.3703" style="stop-color:#DEDEDE"/>
		<stop  offset="1" style="stop-color:#9E9E9E"/>
	</linearGradient>
	<rect x="68.1" y="270.4" class="st25" width="81.3" height="12.2"/>
	<rect x="68.1" y="277.3" class="st0" width="84.1" height="8"/>
	<rect x="80.3" y="249" class="st13" width="57" height="24.1"/>
	<g>
		<rect x="100" y="250.4" class="st19" width="18.2" height="21.2"/>
		<rect x="119.8" y="250.4" class="st19" width="16" height="21.2"/>
		<rect x="81.7" y="250.4" class="st19" width="16.6" height="21.2"/>
		<rect x="98.4" y="250.4" class="st13" width="1.6" height="21.2"/>
		<rect x="118.2" y="250.4" class="st13" width="1.6" height="21.2"/>
	</g>
	<polygon class="st26" points="128.8,256.1 119.8,271.6 120.2,271.6 135.8,271.6 135.8,250.4 132.1,250.4 	"/>
	<polygon class="st26" points="109.4,255.3 100,271.6 100,271.6 118.2,271.6 118.2,250.4 112.2,250.4 	"/>
	<polygon class="st26" points="81.8,271.6 98.4,271.6 98.4,250.4 94.1,250.4 	"/>
	<linearGradient id="SVGID_9_" gradientUnits="userSpaceOnUse" x1="108.7649" y1="243.3232" x2="108.7649" y2="250.3421">
		<stop  offset="0" style="stop-color:#9E9E9E"/>
		<stop  offset="0.6297" style="stop-color:#DEDEDE"/>
		<stop  offset="1" style="stop-color:#FFFFFF"/>
	</linearGradient>
	<path class="st27" d="M133.9,227.3h-10h-10h-10h-10h-10h-10h-5.5v24.2c0.2,0,0.3,0,0.5,0c2.8,0,5-2.2,5-5c0,2.8,2.2,5,5,5
		c2.8,0,5-2.2,5-5c0,2.8,2.2,5,5,5c2.8,0,5-2.2,5-5c0,2.8,2.2,5,5,5c2.8,0,5-2.2,5-5c0,2.8,2.2,5,5,5c2.8,0,5-2.2,5-5
		c0,2.8,2.2,5,5,5c2.8,0,5-2.2,5-5c0,2.8,2.2,5,5,5c2.8,0,5-2.2,5-5c0,2.8,2.2,5,5,5c2.8,0,5-2.2,5-5c0,2.8,2.2,5,5,5
		c0.2,0,0.3,0,0.5,0v-24.2h-5.5H133.9z"/>
	<g>
		<path class="st15" d="M63.6,242.2c0,2.8,2.3,5,5,5c2.8,0,5-2.2,5-5V223h-10V242.2z"/>
		<path class="st13" d="M73.6,242.2c0,2.8,2.2,5,5,5c2.8,0,5-2.2,5-5V223h-10V242.2z"/>
		<path class="st13" d="M83.7,242.2c0,2.8,2.2,5,5,5c2.8,0,5-2.2,5-5V223h-10V242.2z"/>
		<path class="st13" d="M93.7,242.2c0,2.8,2.2,5,5,5c2.8,0,5-2.2,5-5V223h-10V242.2z"/>
		<path class="st13" d="M103.7,242.2c0,2.8,2.2,5,5,5c2.8,0,5-2.2,5-5V223h-10V242.2z"/>
		<path class="st13" d="M113.8,242.2c0,2.8,2.2,5,5,5c2.8,0,5-2.2,5-5V223h-10V242.2z"/>
		<path class="st13" d="M123.8,242.2c0,2.8,2.2,5,5,5c2.8,0,5-2.2,5-5V223h-10V242.2z"/>
		<path class="st13" d="M133.9,242.2c0,2.8,2.2,5,5,5c2.8,0,5-2.2,5-5V223h-10V242.2z"/>
		<path class="st0" d="M73.6,242.2c0,2.8,2.2,5,5,5c2.8,0,5-2.2,5-5V223h-10V242.2z"/>
		<path class="st15" d="M83.7,242.2c0,2.8,2.2,5,5,5c2.8,0,5-2.2,5-5V223h-10V242.2z"/>
		<path class="st0" d="M93.7,242.2c0,2.8,2.2,5,5,5c2.8,0,5-2.2,5-5V223h-10V242.2z"/>
		<path class="st15" d="M103.7,242.2c0,2.8,2.2,5,5,5c2.8,0,5-2.2,5-5V223h-10V242.2z"/>
		<path class="st0" d="M113.8,242.2c0,2.8,2.2,5,5,5c2.8,0,5-2.2,5-5V223h-10V242.2z"/>
		<path class="st15" d="M123.8,242.2c0,2.8,2.2,5,5,5c2.8,0,5-2.2,5-5V223h-10V242.2z"/>
		<path class="st0" d="M133.9,242.2c0,2.8,2.2,5,5,5c2.8,0,5-2.2,5-5V223h-10V242.2z"/>
		<path class="st15" d="M143.9,242.2c0,2.8,2.2,5,5,5c2.8,0,5-2.2,5-5V223h-10V242.2z"/>
	</g>
</g>
<g id="background_trees_1_">
	<g>
		<g>
			<rect x="226.3" y="221.6" class="st28" width="4" height="16.7"/>
			<linearGradient id="SVGID_10_" gradientUnits="userSpaceOnUse" x1="228.2864" y1="220.1644" x2="228.2864" y2="227.7825">
				<stop  offset="0" style="stop-color:#9E9E9E"/>
				<stop  offset="0.8982" style="stop-color:#F5F5F5"/>
				<stop  offset="1" style="stop-color:#FFFFFF"/>
			</linearGradient>
			<rect x="226.3" y="221.6" class="st29" width="4" height="6.7"/>
		</g>
		<g>
			<g>
				<circle class="st23" cx="228.3" cy="209.5" r="13.2"/>
				<path class="st30" d="M217.4,206.7c0-2.5,0.7-4.8,1.9-6.7c-2.6,2.4-4.2,5.8-4.2,9.6c0,7.3,5.9,13.2,13.2,13.2
					c4.8,0,9-2.6,11.3-6.5c-2.4,2.2-5.5,3.6-9,3.6C223.3,219.9,217.4,214,217.4,206.7z"/>
			</g>
		</g>
		<g>
			<circle class="st23" cx="220" cy="219.7" r="5.1"/>
			<path class="st30" d="M215.8,218.5c0-0.9,0.3-1.8,0.7-2.6c-1,0.9-1.6,2.2-1.6,3.7c0,2.8,2.3,5.1,5.1,5.1c1.9,0,3.5-1,4.4-2.5
				c-0.9,0.9-2.1,1.4-3.5,1.4C218.1,223.6,215.8,221.4,215.8,218.5z"/>
		</g>
		<g>
			<circle class="st23" cx="225.4" cy="195.7" r="4.5"/>
			<path class="st30" d="M221.7,194.7c0-0.8,0.2-1.6,0.6-2.3c-0.9,0.8-1.4,2-1.4,3.3c0,2.5,2,4.5,4.5,4.5c1.6,0,3.1-0.9,3.9-2.2
				c-0.8,0.8-1.9,1.2-3.1,1.2C223.7,199.2,221.7,197.2,221.7,194.7z"/>
		</g>
	</g>
	<g>
		<g>
			<rect x="276.8" y="231.1" class="st28" width="3.1" height="13.1"/>
			<linearGradient id="SVGID_11_" gradientUnits="userSpaceOnUse" x1="278.3772" y1="230.2926" x2="278.3772" y2="237.2144">
				<stop  offset="0" style="stop-color:#9E9E9E"/>
				<stop  offset="0.8982" style="stop-color:#F5F5F5"/>
				<stop  offset="1" style="stop-color:#FFFFFF"/>
			</linearGradient>
			<rect x="276.8" y="231.6" class="st31" width="3.1" height="6.1"/>
		</g>
		<g>
			<g>
				<circle class="st23" cx="278.4" cy="221.6" r="10.4"/>
				<path class="st30" d="M269.8,219.4c0-1.9,0.5-3.7,1.5-5.3c-2,1.9-3.3,4.6-3.3,7.6c0,5.7,4.6,10.4,10.4,10.4c3.8,0,7.1-2,8.9-5.1
					c-1.9,1.8-4.4,2.8-7.1,2.8C274.5,229.8,269.8,225.1,269.8,219.4z"/>
			</g>
		</g>
		<g>
			<circle class="st23" cx="273" cy="212.6" r="4.2"/>
			<path class="st30" d="M269.6,211.7c0-0.8,0.2-1.5,0.6-2.1c-0.8,0.8-1.3,1.8-1.3,3c0,2.3,1.9,4.2,4.2,4.2c1.5,0,2.9-0.8,3.6-2
				c-0.7,0.7-1.8,1.1-2.9,1.1C271.4,215.9,269.6,214,269.6,211.7z"/>
		</g>
	</g>
</g>
<g id="clock_tower">
	<g>
		<rect x="230.1" y="129.9" class="st17" width="36.9" height="147.7"/>
		<linearGradient id="SVGID_12_" gradientUnits="userSpaceOnUse" x1="248.5989" y1="142.3869" x2="248.5989" y2="123.5176">
			<stop  offset="0" style="stop-color:#FFFFFF"/>
			<stop  offset="0.3092" style="stop-color:#E8E8E8"/>
			<stop  offset="0.9564" style="stop-color:#ACACAC"/>
			<stop  offset="1" style="stop-color:#A8A8A8"/>
		</linearGradient>
		<rect x="230.1" y="129.9" class="st32" width="36.9" height="13.5"/>
		<linearGradient id="SVGID_13_" gradientUnits="userSpaceOnUse" x1="248.5989" y1="132.8446" x2="248.5989" y2="136.5563">
			<stop  offset="0" style="stop-color:#A8A8A8"/>
			<stop  offset="4.356390e-02" style="stop-color:#ACACAC"/>
			<stop  offset="0.6908" style="stop-color:#E8E8E8"/>
			<stop  offset="1" style="stop-color:#FFFFFF"/>
		</linearGradient>
		<path class="st33" d="M230.1,137c0.1,0,0.2,0,0.4,0c1.7,0,3-1.4,3-3c0,1.7,1.4,3,3,3c1.7,0,3-1.4,3-3c0,1.7,1.4,3,3,3
			c1.7,0,3-1.4,3-3c0,1.7,1.4,3,3,3c1.7,0,3-1.4,3-3c0,1.7,1.4,3,3,3c1.7,0,3-1.4,3-3c0,1.7,1.4,3,3,3c1.7,0,3-1.4,3-3
			c0,1.7,1.3,3,3,3c0.1,0,0.2,0,0.3,0v-8h-36.9V137z"/>
		<g>
			<g>
				<rect x="234.8" y="190.3" class="st19" width="7.8" height="3.6"/>
				<g>
					<rect x="239" y="194.5" class="st19" width="7.8" height="3.6"/>
					<rect x="230.6" y="194.5" class="st19" width="7.8" height="3.6"/>
				</g>
			</g>
			<rect x="234.8" y="238.4" class="st19" width="7.8" height="3.6"/>
			<g>
				<rect x="230.6" y="234.1" class="st19" width="7.8" height="3.6"/>
				<rect x="239" y="234.1" class="st19" width="7.8" height="3.6"/>
			</g>
			<rect x="232.4" y="257.8" class="st19" width="7.8" height="3.6"/>
			<rect x="236.6" y="262.1" class="st19" width="7.8" height="3.6"/>
			<rect x="253.1" y="262.1" class="st19" width="7.8" height="3.6"/>
			<rect x="255.7" y="209.7" class="st19" width="7.8" height="3.6"/>
			<rect x="243.5" y="217.5" class="st19" width="7.7" height="3.6"/>
			<rect x="230.9" y="213.3" class="st19" width="7.8" height="3.6"/>
			<rect x="247.4" y="209.7" class="st19" width="7.7" height="3.6"/>
			<g>
				<rect x="254.6" y="159" class="st19" width="7.7" height="3.6"/>
				<g>
					<rect x="258.8" y="154.7" class="st19" width="7.8" height="3.6"/>
				</g>
				<g>
					<rect x="258.8" y="145.3" class="st19" width="7.8" height="3.6"/>
				</g>
			</g>
			<g>
				<rect x="234.8" y="145.3" class="st19" width="7.7" height="3.6"/>
				<g>
					<rect x="230.6" y="141.1" class="st19" width="7.7" height="3.6"/>
				</g>
			</g>
			<g>
				<rect x="258.9" y="234.5" class="st19" width="7.8" height="3.6"/>
				<g>
					<rect x="254.7" y="230.2" class="st19" width="7.7" height="3.6"/>
				</g>
			</g>
		</g>
		<linearGradient id="SVGID_14_" gradientUnits="userSpaceOnUse" x1="248.5989" y1="287.2262" x2="248.5989" y2="259.3373">
			<stop  offset="0" style="stop-color:#A8A8A8"/>
			<stop  offset="1" style="stop-color:#FFFFFF"/>
		</linearGradient>
		<rect x="230.1" y="259" class="st34" width="36.9" height="18.6"/>
		<rect x="227.7" y="277.3" class="st35" width="41.9" height="8"/>
		<g>
			<circle class="st13" cx="248.6" cy="178.6" r="15.3"/>
			<path class="st21" d="M248.6,163.3c-8.4,0-15.3,6.8-15.3,15.3c0,8.4,6.8,15.3,15.3,15.3c8.4,0,15.3-6.8,15.3-15.3
				C263.9,170.2,257,163.3,248.6,163.3z M249.6,191.6c-6.4,0-11.6-5.2-11.6-11.6c0-6.4,5.2-11.6,11.6-11.6s11.6,5.2,11.6,11.6
				C261.2,186.4,256,191.6,249.6,191.6z"/>
			<path class="st36" d="M248.6,163c-8.6,0-15.6,7-15.6,15.6c0,8.6,7,15.6,15.6,15.6c8.6,0,15.6-7,15.6-15.6
				C264.2,170,257.2,163,248.6,163z M248.6,191.7c-7.2,0-13.1-5.9-13.1-13.1c0-7.2,5.9-13.1,13.1-13.1c7.2,0,13.1,5.9,13.1,13.1
				C261.7,185.8,255.8,191.7,248.6,191.7z"/>
			<g>
				<rect x="248.2" y="166.6" class="st23" width="0.7" height="4.2"/>
				<rect x="248.2" y="186.4" class="st23" width="0.7" height="4.2"/>
			</g>
			<polygon class="st36" points="248,179 249.2,178.2 243.7,171.4 			"/>
			<polygon class="st36" points="248.9,179.3 257,170.6 248.3,178.6 			"/>
			<g>
				<rect x="236.6" y="178.3" class="st23" width="4.2" height="0.7"/>
				<rect x="256.4" y="178.3" class="st23" width="4.2" height="0.7"/>
			</g>
			<circle class="st23" cx="248.6" cy="178.6" r="0.9"/>
			<circle class="st36" cx="248.6" cy="178.6" r="0.5"/>
		</g>
		<g>
			<linearGradient id="SVGID_15_" gradientUnits="userSpaceOnUse" x1="248.5989" y1="209.3332" x2="248.5989" y2="203.4023">
				<stop  offset="0" style="stop-color:#FFFFFF"/>
				<stop  offset="0.3092" style="stop-color:#E8E8E8"/>
				<stop  offset="0.9564" style="stop-color:#ACACAC"/>
				<stop  offset="1" style="stop-color:#A8A8A8"/>
			</linearGradient>
			<rect x="230.1" y="198.4" class="st37" width="36.9" height="11.3"/>
			<rect x="229" y="198.4" class="st38" width="39.3" height="6.5"/>
			<rect x="229" y="198.4" class="st26" width="39.3" height="2.3"/>
		</g>
		<g>
			<path class="st36" d="M248.6,138.8c-4,0-7.3,3.3-7.3,7.3v12.3h14.6v-12.3C255.9,142,252.6,138.8,248.6,138.8z"/>
			<path class="st12" d="M248.6,140.1c-3.3,0-6,2.7-6,6v11h12v-11C254.6,142.8,251.9,140.1,248.6,140.1z"/>
			<path class="st39" d="M251.9,141.1l-9.2,16h12v-11C254.6,144,253.5,142.1,251.9,141.1z"/>
		</g>
		<g>
			<path class="st36" d="M248.6,250c-4.6,0-8.3,3.7-8.3,8.3v14.5h16.6v-14.5C256.9,253.7,253.2,250,248.6,250z"/>
			<path class="st36" d="M248.6,251.4c-3.8,0-6.8,3.1-6.8,6.8v14.5h13.7v-14.5C255.4,254.5,252.4,251.4,248.6,251.4z"/>
			<g>
				<path class="st40" d="M251.7,252.2v20.4h3.7v-14.3C255.4,255.6,253.9,253.4,251.7,252.2z"/>
				<path class="st40" d="M245.8,252v20.6h5.5V252c-0.8-0.4-1.8-0.6-2.8-0.6C247.6,251.4,246.7,251.7,245.8,252z"/>
				<path class="st40" d="M241.8,258.3v14.3h3.7v-20.4C243.3,253.4,241.8,255.6,241.8,258.3z"/>
			</g>
			<circle class="st36" cx="244" cy="265.6" r="1"/>
			<path class="st3" d="M242.2,272.7h13.2v-14.5c0-2-0.9-3.8-2.2-5L242.2,272.7z"/>
		</g>
		<g>
			<g>
				<rect x="236.4" y="272.3" class="st41" width="24.5" height="4.3"/>
				<rect x="234.8" y="276.6" class="st41" width="27.7" height="4.3"/>
				<rect x="233.4" y="280.9" class="st41" width="30.4" height="4.3"/>
			</g>
			<rect x="236.4" y="274.9" class="st7" width="24.5" height="1.7"/>
			<rect x="234.8" y="279.1" class="st7" width="27.7" height="1.7"/>
			<rect x="233.4" y="283.4" class="st7" width="30.4" height="1.7"/>
		</g>
		<g>
			<defs>
				<path id="SVGID_16_" d="M248.6,91.7l-21.1,39.6c0,1.7,1.4,3,3,3c1.7,0,3-1.4,3-3c0,1.7,1.4,3,3,3c1.7,0,3-1.4,3-3
					c0,1.7,1.4,3,3,3c1.7,0,3-1.4,3-3c0,1.7,1.4,3,3,3c1.7,0,3-1.4,3-3c0,1.7,1.4,3,3,3c1.7,0,3-1.4,3-3c0,1.7,1.4,3,3,3
					c1.7,0,3-1.4,3-3c0,1.7,1.3,3,3,3c1.7,0,3-1.4,3-3L248.6,91.7z"/>
			</defs>
			<clipPath id="SVGID_17_">
				<use xlink:href="#SVGID_16_"  style="overflow:visible;"/>
			</clipPath>
			<g class="st42">
				<g>
					<path class="st40" d="M218.4,123.4c-1.7,0-3,1.4-3,3v4.8c0,1.7,1.4,3,3,3c1.7,0,3-1.4,3-3v-4.8
						C221.5,124.8,220.1,123.4,218.4,123.4z"/>
					<path class="st7" d="M224.5,123.4c-1.7,0-3,1.4-3,3v4.8c0,1.7,1.4,3,3,3c1.7,0,3-1.4,3-3v-4.8
						C227.5,124.8,226.2,123.4,224.5,123.4z"/>
					<path class="st7" d="M230.5,123.4c-1.7,0-3,1.4-3,3v4.8c0,1.7,1.3,3,3,3c1.7,0,3-1.4,3-3v-4.8
						C233.5,124.8,232.2,123.4,230.5,123.4z"/>
					<path class="st40" d="M236.6,123.4c-1.7,0-3,1.4-3,3v4.8c0,1.7,1.4,3,3,3c1.7,0,3-1.4,3-3v-4.8
						C239.6,124.8,238.2,123.4,236.6,123.4z"/>
					<path class="st40" d="M242.6,123.4c-1.7,0-3,1.4-3,3v4.8c0,1.7,1.4,3,3,3c1.7,0,3-1.4,3-3v-4.8
						C245.6,124.8,244.3,123.4,242.6,123.4z"/>
					<path class="st7" d="M248.6,123.4c-1.7,0-3,1.4-3,3v4.8c0,1.7,1.4,3,3,3c1.7,0,3-1.4,3-3v-4.8
						C251.7,124.8,250.3,123.4,248.6,123.4z"/>
					<path class="st40" d="M254.7,123.4c-1.7,0-3,1.4-3,3v4.8c0,1.7,1.3,3,3,3c1.7,0,3-1.4,3-3v-4.8
						C257.7,124.8,256.3,123.4,254.7,123.4z"/>
					<path class="st7" d="M260.7,123.4c-1.7,0-3,1.4-3,3v4.8c0,1.7,1.4,3,3,3c1.7,0,3-1.4,3-3v-4.8
						C263.7,124.8,262.4,123.4,260.7,123.4z"/>
					<path class="st40" d="M266.8,123.4c-1.7,0-3,1.4-3,3v4.8c0,1.7,1.4,3,3,3c1.7,0,3-1.4,3-3v-4.8
						C269.8,124.8,268.4,123.4,266.8,123.4z"/>
					<path class="st7" d="M272.8,123.4c-1.7,0-3,1.4-3,3v4.8c0,1.7,1.3,3,3,3c1.7,0,3-1.4,3-3v-4.8
						C275.8,124.8,274.5,123.4,272.8,123.4z"/>
					<path class="st40" d="M278.8,123.4c-1.7,0-3,1.4-3,3v4.8c0,1.7,1.4,3,3,3c1.7,0,3-1.4,3-3v-4.8
						C281.9,124.8,280.5,123.4,278.8,123.4z"/>
				</g>
				<g>
					<path class="st43" d="M222.3,118c-1.7,0-3,1.4-3,3v4.8c0,1.7,1.4,3,3,3c1.7,0,3-1.4,3-3V121C225.3,119.3,224,118,222.3,118z"/>
					<path class="st17" d="M216.2,118c-1.7,0-3,1.4-3,3v4.8c0,1.7,1.4,3,3,3c1.7,0,3-1.4,3-3V121C219.3,119.3,217.9,118,216.2,118z"
						/>
					<path class="st17" d="M228.3,118c-1.7,0-3,1.4-3,3v4.8c0,1.7,1.4,3,3,3c1.7,0,3-1.4,3-3V121C231.3,119.3,230,118,228.3,118z"/>
					<path class="st43" d="M234.4,118c-1.7,0-3,1.4-3,3v4.8c0,1.7,1.4,3,3,3c1.7,0,3-1.4,3-3V121C237.4,119.3,236,118,234.4,118z"/>
					<path class="st17" d="M240.4,118c-1.7,0-3,1.4-3,3v4.8c0,1.7,1.4,3,3,3c1.7,0,3-1.4,3-3V121C243.4,119.3,242.1,118,240.4,118z"
						/>
					<path class="st43" d="M246.4,118c-1.7,0-3,1.4-3,3v4.8c0,1.7,1.4,3,3,3c1.7,0,3-1.4,3-3V121C249.5,119.3,248.1,118,246.4,118z"
						/>
					<path class="st43" d="M252.5,118c-1.7,0-3,1.4-3,3v4.8c0,1.7,1.4,3,3,3c1.7,0,3-1.4,3-3V121C255.5,119.3,254.1,118,252.5,118z"
						/>
					<path class="st43" d="M258.5,118c-1.7,0-3,1.4-3,3v4.8c0,1.7,1.4,3,3,3c1.7,0,3-1.4,3-3V121C261.5,119.3,260.2,118,258.5,118z"
						/>
					<path class="st17" d="M264.6,118c-1.7,0-3,1.4-3,3v4.8c0,1.7,1.4,3,3,3c1.7,0,3-1.4,3-3V121C267.6,119.3,266.2,118,264.6,118z"
						/>
					<path class="st17" d="M270.6,118c-1.7,0-3,1.4-3,3v4.8c0,1.7,1.4,3,3,3c1.7,0,3-1.4,3-3V121C273.6,119.3,272.3,118,270.6,118z"
						/>
					<path class="st43" d="M276.6,118c-1.7,0-3,1.4-3,3v4.8c0,1.7,1.4,3,3,3c1.7,0,3-1.4,3-3V121C279.7,119.3,278.3,118,276.6,118z"
						/>
					<path class="st17" d="M282.7,118c-1.7,0-3,1.4-3,3v4.8c0,1.7,1.4,3,3,3c1.7,0,3-1.4,3-3V121C285.7,119.3,284.3,118,282.7,118z"
						/>
				</g>
				<g>
					<path class="st7" d="M218.4,112.5c-1.7,0-3,1.4-3,3v4.8c0,1.7,1.4,3,3,3c1.7,0,3-1.4,3-3v-4.8
						C221.5,113.9,220.1,112.5,218.4,112.5z"/>
					<path class="st7" d="M224.5,112.5c-1.7,0-3,1.4-3,3v4.8c0,1.7,1.4,3,3,3c1.7,0,3-1.4,3-3v-4.8
						C227.5,113.9,226.2,112.5,224.5,112.5z"/>
					<path class="st40" d="M230.5,112.5c-1.7,0-3,1.4-3,3v4.8c0,1.7,1.3,3,3,3c1.7,0,3-1.4,3-3v-4.8
						C233.5,113.9,232.2,112.5,230.5,112.5z"/>
					<path class="st7" d="M236.6,112.5c-1.7,0-3,1.4-3,3v4.8c0,1.7,1.4,3,3,3c1.7,0,3-1.4,3-3v-4.8
						C239.6,113.9,238.2,112.5,236.6,112.5z"/>
					<path class="st40" d="M242.6,112.5c-1.7,0-3,1.4-3,3v4.8c0,1.7,1.4,3,3,3c1.7,0,3-1.4,3-3v-4.8
						C245.6,113.9,244.3,112.5,242.6,112.5z"/>
					<path class="st7" d="M248.6,112.5c-1.7,0-3,1.4-3,3v4.8c0,1.7,1.4,3,3,3c1.7,0,3-1.4,3-3v-4.8
						C251.7,113.9,250.3,112.5,248.6,112.5z"/>
					<path class="st7" d="M254.7,112.5c-1.7,0-3,1.4-3,3v4.8c0,1.7,1.3,3,3,3c1.7,0,3-1.4,3-3v-4.8
						C257.7,113.9,256.3,112.5,254.7,112.5z"/>
					<path class="st40" d="M260.7,112.5c-1.7,0-3,1.4-3,3v4.8c0,1.7,1.4,3,3,3c1.7,0,3-1.4,3-3v-4.8
						C263.7,113.9,262.4,112.5,260.7,112.5z"/>
					<path class="st40" d="M266.8,112.5c-1.7,0-3,1.4-3,3v4.8c0,1.7,1.4,3,3,3c1.7,0,3-1.4,3-3v-4.8
						C269.8,113.9,268.4,112.5,266.8,112.5z"/>
					<path class="st40" d="M272.8,112.5c-1.7,0-3,1.4-3,3v4.8c0,1.7,1.3,3,3,3c1.7,0,3-1.4,3-3v-4.8
						C275.8,113.9,274.5,112.5,272.8,112.5z"/>
					<path class="st7" d="M278.8,112.5c-1.7,0-3,1.4-3,3v4.8c0,1.7,1.4,3,3,3c1.7,0,3-1.4,3-3v-4.8
						C281.9,113.9,280.5,112.5,278.8,112.5z"/>
				</g>
				<g>
					<path class="st17" d="M222.3,107.1c-1.7,0-3,1.4-3,3v4.8c0,1.7,1.4,3,3,3c1.7,0,3-1.4,3-3v-4.8
						C225.3,108.4,224,107.1,222.3,107.1z"/>
					<path class="st17" d="M216.2,107.1c-1.7,0-3,1.4-3,3v4.8c0,1.7,1.4,3,3,3c1.7,0,3-1.4,3-3v-4.8
						C219.3,108.4,217.9,107.1,216.2,107.1z"/>
					<path class="st43" d="M228.3,107.1c-1.7,0-3,1.4-3,3v4.8c0,1.7,1.4,3,3,3c1.7,0,3-1.4,3-3v-4.8
						C231.3,108.4,230,107.1,228.3,107.1z"/>
					<path class="st17" d="M234.4,107.1c-1.7,0-3,1.4-3,3v4.8c0,1.7,1.4,3,3,3c1.7,0,3-1.4,3-3v-4.8
						C237.4,108.4,236,107.1,234.4,107.1z"/>
					<path class="st43" d="M240.4,107.1c-1.7,0-3,1.4-3,3v4.8c0,1.7,1.4,3,3,3c1.7,0,3-1.4,3-3v-4.8
						C243.4,108.4,242.1,107.1,240.4,107.1z"/>
					<path class="st43" d="M246.4,107.1c-1.7,0-3,1.4-3,3v4.8c0,1.7,1.4,3,3,3c1.7,0,3-1.4,3-3v-4.8
						C249.5,108.4,248.1,107.1,246.4,107.1z"/>
					<path class="st17" d="M252.5,107.1c-1.7,0-3,1.4-3,3v4.8c0,1.7,1.4,3,3,3c1.7,0,3-1.4,3-3v-4.8
						C255.5,108.4,254.1,107.1,252.5,107.1z"/>
					<path class="st43" d="M258.5,107.1c-1.7,0-3,1.4-3,3v4.8c0,1.7,1.4,3,3,3c1.7,0,3-1.4,3-3v-4.8
						C261.5,108.4,260.2,107.1,258.5,107.1z"/>
					<path class="st17" d="M264.6,107.1c-1.7,0-3,1.4-3,3v4.8c0,1.7,1.4,3,3,3c1.7,0,3-1.4,3-3v-4.8
						C267.6,108.4,266.2,107.1,264.6,107.1z"/>
					<path class="st17" d="M270.6,107.1c-1.7,0-3,1.4-3,3v4.8c0,1.7,1.4,3,3,3c1.7,0,3-1.4,3-3v-4.8
						C273.6,108.4,272.3,107.1,270.6,107.1z"/>
					<path class="st17" d="M276.6,107.1c-1.7,0-3,1.4-3,3v4.8c0,1.7,1.4,3,3,3c1.7,0,3-1.4,3-3v-4.8
						C279.7,108.4,278.3,107.1,276.6,107.1z"/>
					<path class="st43" d="M282.7,107.1c-1.7,0-3,1.4-3,3v4.8c0,1.7,1.4,3,3,3c1.7,0,3-1.4,3-3v-4.8
						C285.7,108.4,284.3,107.1,282.7,107.1z"/>
				</g>
				<g>
					<path class="st40" d="M218.4,101.6c-1.7,0-3,1.4-3,3v4.8c0,1.7,1.4,3,3,3c1.7,0,3-1.4,3-3v-4.8
						C221.5,103,220.1,101.6,218.4,101.6z"/>
					<path class="st40" d="M224.5,101.6c-1.7,0-3,1.4-3,3v4.8c0,1.7,1.4,3,3,3c1.7,0,3-1.4,3-3v-4.8
						C227.5,103,226.2,101.6,224.5,101.6z"/>
					<path class="st7" d="M230.5,101.6c-1.7,0-3,1.4-3,3v4.8c0,1.7,1.3,3,3,3c1.7,0,3-1.4,3-3v-4.8
						C233.5,103,232.2,101.6,230.5,101.6z"/>
					<path class="st7" d="M236.6,101.6c-1.7,0-3,1.4-3,3v4.8c0,1.7,1.4,3,3,3c1.7,0,3-1.4,3-3v-4.8
						C239.6,103,238.2,101.6,236.6,101.6z"/>
					<path class="st7" d="M242.6,101.6c-1.7,0-3,1.4-3,3v4.8c0,1.7,1.4,3,3,3c1.7,0,3-1.4,3-3v-4.8
						C245.6,103,244.3,101.6,242.6,101.6z"/>
					<path class="st7" d="M248.6,101.6c-1.7,0-3,1.4-3,3v4.8c0,1.7,1.4,3,3,3c1.7,0,3-1.4,3-3v-4.8
						C251.7,103,250.3,101.6,248.6,101.6z"/>
					<path class="st40" d="M254.7,101.6c-1.7,0-3,1.4-3,3v4.8c0,1.7,1.3,3,3,3c1.7,0,3-1.4,3-3v-4.8
						C257.7,103,256.3,101.6,254.7,101.6z"/>
					<path class="st7" d="M260.7,101.6c-1.7,0-3,1.4-3,3v4.8c0,1.7,1.4,3,3,3c1.7,0,3-1.4,3-3v-4.8
						C263.7,103,262.4,101.6,260.7,101.6z"/>
					<path class="st40" d="M266.8,101.6c-1.7,0-3,1.4-3,3v4.8c0,1.7,1.4,3,3,3c1.7,0,3-1.4,3-3v-4.8
						C269.8,103,268.4,101.6,266.8,101.6z"/>
					<path class="st7" d="M272.8,101.6c-1.7,0-3,1.4-3,3v4.8c0,1.7,1.3,3,3,3c1.7,0,3-1.4,3-3v-4.8
						C275.8,103,274.5,101.6,272.8,101.6z"/>
					<path class="st7" d="M278.8,101.6c-1.7,0-3,1.4-3,3v4.8c0,1.7,1.4,3,3,3c1.7,0,3-1.4,3-3v-4.8
						C281.9,103,280.5,101.6,278.8,101.6z"/>
				</g>
				<g>
					<path class="st43" d="M222.3,96.1c-1.7,0-3,1.4-3,3v4.8c0,1.7,1.4,3,3,3c1.7,0,3-1.4,3-3v-4.8C225.3,97.5,224,96.1,222.3,96.1z
						"/>
					<path class="st43" d="M216.2,96.1c-1.7,0-3,1.4-3,3v4.8c0,1.7,1.4,3,3,3c1.7,0,3-1.4,3-3v-4.8
						C219.3,97.5,217.9,96.1,216.2,96.1z"/>
					<path class="st43" d="M228.3,96.1c-1.7,0-3,1.4-3,3v4.8c0,1.7,1.4,3,3,3c1.7,0,3-1.4,3-3v-4.8C231.3,97.5,230,96.1,228.3,96.1z
						"/>
					<path class="st17" d="M234.4,96.1c-1.7,0-3,1.4-3,3v4.8c0,1.7,1.4,3,3,3c1.7,0,3-1.4,3-3v-4.8C237.4,97.5,236,96.1,234.4,96.1z
						"/>
					<path class="st43" d="M240.4,96.1c-1.7,0-3,1.4-3,3v4.8c0,1.7,1.4,3,3,3c1.7,0,3-1.4,3-3v-4.8
						C243.4,97.5,242.1,96.1,240.4,96.1z"/>
					<path class="st17" d="M246.4,96.1c-1.7,0-3,1.4-3,3v4.8c0,1.7,1.4,3,3,3c1.7,0,3-1.4,3-3v-4.8
						C249.5,97.5,248.1,96.1,246.4,96.1z"/>
					<path class="st17" d="M252.5,96.1c-1.7,0-3,1.4-3,3v4.8c0,1.7,1.4,3,3,3c1.7,0,3-1.4,3-3v-4.8
						C255.5,97.5,254.1,96.1,252.5,96.1z"/>
					<path class="st17" d="M258.5,96.1c-1.7,0-3,1.4-3,3v4.8c0,1.7,1.4,3,3,3c1.7,0,3-1.4,3-3v-4.8
						C261.5,97.5,260.2,96.1,258.5,96.1z"/>
					<path class="st43" d="M264.6,96.1c-1.7,0-3,1.4-3,3v4.8c0,1.7,1.4,3,3,3c1.7,0,3-1.4,3-3v-4.8
						C267.6,97.5,266.2,96.1,264.6,96.1z"/>
					<path class="st17" d="M270.6,96.1c-1.7,0-3,1.4-3,3v4.8c0,1.7,1.4,3,3,3c1.7,0,3-1.4,3-3v-4.8
						C273.6,97.5,272.3,96.1,270.6,96.1z"/>
					<path class="st43" d="M276.6,96.1c-1.7,0-3,1.4-3,3v4.8c0,1.7,1.4,3,3,3c1.7,0,3-1.4,3-3v-4.8
						C279.7,97.5,278.3,96.1,276.6,96.1z"/>
					<path class="st17" d="M282.7,96.1c-1.7,0-3,1.4-3,3v4.8c0,1.7,1.4,3,3,3c1.7,0,3-1.4,3-3v-4.8
						C285.7,97.5,284.3,96.1,282.7,96.1z"/>
				</g>
				<g>
					<path class="st7" d="M218.4,90.7c-1.7,0-3,1.4-3,3v4.8c0,1.7,1.4,3,3,3c1.7,0,3-1.4,3-3v-4.8C221.5,92.1,220.1,90.7,218.4,90.7
						z"/>
					<path class="st40" d="M224.5,90.7c-1.7,0-3,1.4-3,3v4.8c0,1.7,1.4,3,3,3c1.7,0,3-1.4,3-3v-4.8
						C227.5,92.1,226.2,90.7,224.5,90.7z"/>
					<path class="st7" d="M230.5,90.7c-1.7,0-3,1.4-3,3v4.8c0,1.7,1.3,3,3,3c1.7,0,3-1.4,3-3v-4.8C233.5,92.1,232.2,90.7,230.5,90.7
						z"/>
					<path class="st40" d="M236.6,90.7c-1.7,0-3,1.4-3,3v4.8c0,1.7,1.4,3,3,3c1.7,0,3-1.4,3-3v-4.8
						C239.6,92.1,238.2,90.7,236.6,90.7z"/>
					<path class="st7" d="M242.6,90.7c-1.7,0-3,1.4-3,3v4.8c0,1.7,1.4,3,3,3c1.7,0,3-1.4,3-3v-4.8C245.6,92.1,244.3,90.7,242.6,90.7
						z"/>
					<path class="st7" d="M248.6,90.7c-1.7,0-3,1.4-3,3v4.8c0,1.7,1.4,3,3,3c1.7,0,3-1.4,3-3v-4.8C251.7,92.1,250.3,90.7,248.6,90.7
						z"/>
					<path class="st7" d="M254.7,90.7c-1.7,0-3,1.4-3,3v4.8c0,1.7,1.3,3,3,3c1.7,0,3-1.4,3-3v-4.8C257.7,92.1,256.3,90.7,254.7,90.7
						z"/>
					<path class="st40" d="M260.7,90.7c-1.7,0-3,1.4-3,3v4.8c0,1.7,1.4,3,3,3c1.7,0,3-1.4,3-3v-4.8
						C263.7,92.1,262.4,90.7,260.7,90.7z"/>
					<path class="st7" d="M266.8,90.7c-1.7,0-3,1.4-3,3v4.8c0,1.7,1.4,3,3,3c1.7,0,3-1.4,3-3v-4.8C269.8,92.1,268.4,90.7,266.8,90.7
						z"/>
					<path class="st40" d="M272.8,90.7c-1.7,0-3,1.4-3,3v4.8c0,1.7,1.3,3,3,3c1.7,0,3-1.4,3-3v-4.8
						C275.8,92.1,274.5,90.7,272.8,90.7z"/>
					<path class="st40" d="M278.8,90.7c-1.7,0-3,1.4-3,3v4.8c0,1.7,1.4,3,3,3c1.7,0,3-1.4,3-3v-4.8
						C281.9,92.1,280.5,90.7,278.8,90.7z"/>
				</g>
				<g>
					<path class="st43" d="M222.3,85.2c-1.7,0-3,1.4-3,3v4.8c0,1.7,1.4,3,3,3c1.7,0,3-1.4,3-3v-4.8C225.3,86.6,224,85.2,222.3,85.2z
						"/>
					<path class="st17" d="M216.2,85.2c-1.7,0-3,1.4-3,3v4.8c0,1.7,1.4,3,3,3c1.7,0,3-1.4,3-3v-4.8
						C219.3,86.6,217.9,85.2,216.2,85.2z"/>
					<path class="st17" d="M228.3,85.2c-1.7,0-3,1.4-3,3v4.8c0,1.7,1.4,3,3,3c1.7,0,3-1.4,3-3v-4.8C231.3,86.6,230,85.2,228.3,85.2z
						"/>
					<path class="st43" d="M234.4,85.2c-1.7,0-3,1.4-3,3v4.8c0,1.7,1.4,3,3,3c1.7,0,3-1.4,3-3v-4.8C237.4,86.6,236,85.2,234.4,85.2z
						"/>
					<path class="st17" d="M240.4,85.2c-1.7,0-3,1.4-3,3v4.8c0,1.7,1.4,3,3,3c1.7,0,3-1.4,3-3v-4.8
						C243.4,86.6,242.1,85.2,240.4,85.2z"/>
					<path class="st43" d="M246.4,85.2c-1.7,0-3,1.4-3,3v4.8c0,1.7,1.4,3,3,3c1.7,0,3-1.4,3-3v-4.8
						C249.5,86.6,248.1,85.2,246.4,85.2z"/>
					<path class="st43" d="M252.5,85.2c-1.7,0-3,1.4-3,3v4.8c0,1.7,1.4,3,3,3c1.7,0,3-1.4,3-3v-4.8
						C255.5,86.6,254.1,85.2,252.5,85.2z"/>
					<path class="st17" d="M258.5,85.2c-1.7,0-3,1.4-3,3v4.8c0,1.7,1.4,3,3,3c1.7,0,3-1.4,3-3v-4.8
						C261.5,86.6,260.2,85.2,258.5,85.2z"/>
					<path class="st43" d="M264.6,85.2c-1.7,0-3,1.4-3,3v4.8c0,1.7,1.4,3,3,3c1.7,0,3-1.4,3-3v-4.8
						C267.6,86.6,266.2,85.2,264.6,85.2z"/>
					<path class="st17" d="M270.6,85.2c-1.7,0-3,1.4-3,3v4.8c0,1.7,1.4,3,3,3c1.7,0,3-1.4,3-3v-4.8
						C273.6,86.6,272.3,85.2,270.6,85.2z"/>
					<path class="st17" d="M276.6,85.2c-1.7,0-3,1.4-3,3v4.8c0,1.7,1.4,3,3,3c1.7,0,3-1.4,3-3v-4.8
						C279.7,86.6,278.3,85.2,276.6,85.2z"/>
					<path class="st17" d="M282.7,85.2c-1.7,0-3,1.4-3,3v4.8c0,1.7,1.4,3,3,3c1.7,0,3-1.4,3-3v-4.8
						C285.7,86.6,284.3,85.2,282.7,85.2z"/>
				</g>
				<g>
					<path class="st7" d="M218.4,79.8c-1.7,0-3,1.4-3,3v4.8c0,1.7,1.4,3,3,3c1.7,0,3-1.4,3-3v-4.8C221.5,81.2,220.1,79.8,218.4,79.8
						z"/>
					<path class="st7" d="M224.5,79.8c-1.7,0-3,1.4-3,3v4.8c0,1.7,1.4,3,3,3c1.7,0,3-1.4,3-3v-4.8C227.5,81.2,226.2,79.8,224.5,79.8
						z"/>
					<path class="st40" d="M230.5,79.8c-1.7,0-3,1.4-3,3v4.8c0,1.7,1.3,3,3,3c1.7,0,3-1.4,3-3v-4.8
						C233.5,81.2,232.2,79.8,230.5,79.8z"/>
					<path class="st7" d="M236.6,79.8c-1.7,0-3,1.4-3,3v4.8c0,1.7,1.4,3,3,3c1.7,0,3-1.4,3-3v-4.8C239.6,81.2,238.2,79.8,236.6,79.8
						z"/>
					<path class="st40" d="M242.6,79.8c-1.7,0-3,1.4-3,3v4.8c0,1.7,1.4,3,3,3c1.7,0,3-1.4,3-3v-4.8
						C245.6,81.2,244.3,79.8,242.6,79.8z"/>
					<path class="st7" d="M248.6,79.8c-1.7,0-3,1.4-3,3v4.8c0,1.7,1.4,3,3,3c1.7,0,3-1.4,3-3v-4.8C251.7,81.2,250.3,79.8,248.6,79.8
						z"/>
					<path class="st40" d="M254.7,79.8c-1.7,0-3,1.4-3,3v4.8c0,1.7,1.3,3,3,3c1.7,0,3-1.4,3-3v-4.8
						C257.7,81.2,256.3,79.8,254.7,79.8z"/>
					<path class="st40" d="M260.7,79.8c-1.7,0-3,1.4-3,3v4.8c0,1.7,1.4,3,3,3c1.7,0,3-1.4,3-3v-4.8
						C263.7,81.2,262.4,79.8,260.7,79.8z"/>
					<path class="st7" d="M266.8,79.8c-1.7,0-3,1.4-3,3v4.8c0,1.7,1.4,3,3,3c1.7,0,3-1.4,3-3v-4.8C269.8,81.2,268.4,79.8,266.8,79.8
						z"/>
					<path class="st7" d="M272.8,79.8c-1.7,0-3,1.4-3,3v4.8c0,1.7,1.3,3,3,3c1.7,0,3-1.4,3-3v-4.8C275.8,81.2,274.5,79.8,272.8,79.8
						z"/>
					<path class="st7" d="M278.8,79.8c-1.7,0-3,1.4-3,3v4.8c0,1.7,1.4,3,3,3c1.7,0,3-1.4,3-3v-4.8C281.9,81.2,280.5,79.8,278.8,79.8
						z"/>
				</g>
				<g>
					<path class="st43" d="M222.3,74.4c-1.7,0-3,1.4-3,3v4.8c0,1.7,1.4,3,3,3c1.7,0,3-1.4,3-3v-4.8C225.3,75.7,224,74.4,222.3,74.4z
						"/>
					<path class="st17" d="M216.2,74.4c-1.7,0-3,1.4-3,3v4.8c0,1.7,1.4,3,3,3c1.7,0,3-1.4,3-3v-4.8
						C219.3,75.7,217.9,74.4,216.2,74.4z"/>
					<path class="st17" d="M228.3,74.4c-1.7,0-3,1.4-3,3v4.8c0,1.7,1.4,3,3,3c1.7,0,3-1.4,3-3v-4.8C231.3,75.7,230,74.4,228.3,74.4z
						"/>
					<path class="st43" d="M234.4,74.4c-1.7,0-3,1.4-3,3v4.8c0,1.7,1.4,3,3,3c1.7,0,3-1.4,3-3v-4.8C237.4,75.7,236,74.4,234.4,74.4z
						"/>
					<path class="st17" d="M240.4,74.4c-1.7,0-3,1.4-3,3v4.8c0,1.7,1.4,3,3,3c1.7,0,3-1.4,3-3v-4.8
						C243.4,75.7,242.1,74.4,240.4,74.4z"/>
					<path class="st17" d="M246.4,74.4c-1.7,0-3,1.4-3,3v4.8c0,1.7,1.4,3,3,3c1.7,0,3-1.4,3-3v-4.8
						C249.5,75.7,248.1,74.4,246.4,74.4z"/>
					<path class="st17" d="M252.5,74.4c-1.7,0-3,1.4-3,3v4.8c0,1.7,1.4,3,3,3c1.7,0,3-1.4,3-3v-4.8
						C255.5,75.7,254.1,74.4,252.5,74.4z"/>
					<path class="st17" d="M258.5,74.4c-1.7,0-3,1.4-3,3v4.8c0,1.7,1.4,3,3,3c1.7,0,3-1.4,3-3v-4.8
						C261.5,75.7,260.2,74.4,258.5,74.4z"/>
					<path class="st43" d="M264.6,74.4c-1.7,0-3,1.4-3,3v4.8c0,1.7,1.4,3,3,3c1.7,0,3-1.4,3-3v-4.8
						C267.6,75.7,266.2,74.4,264.6,74.4z"/>
					<path class="st17" d="M270.6,74.4c-1.7,0-3,1.4-3,3v4.8c0,1.7,1.4,3,3,3c1.7,0,3-1.4,3-3v-4.8
						C273.6,75.7,272.3,74.4,270.6,74.4z"/>
					<path class="st43" d="M276.6,74.4c-1.7,0-3,1.4-3,3v4.8c0,1.7,1.4,3,3,3c1.7,0,3-1.4,3-3v-4.8
						C279.7,75.7,278.3,74.4,276.6,74.4z"/>
					<path class="st43" d="M282.7,74.4c-1.7,0-3,1.4-3,3v4.8c0,1.7,1.4,3,3,3c1.7,0,3-1.4,3-3v-4.8
						C285.7,75.7,284.3,74.4,282.7,74.4z"/>
				</g>
				<g>
					<path class="st7" d="M215.4,76.8c0,1.7,1.4,3,3,3c1.7,0,3-1.4,3-3v-4.6h-6V76.8z"/>
					<path class="st40" d="M221.5,76.8c0,1.7,1.4,3,3,3c1.7,0,3-1.4,3-3v-4.6h-6V76.8z"/>
					<path class="st40" d="M227.5,76.8c0,1.7,1.3,3,3,3c1.7,0,3-1.4,3-3v-4.6h-6V76.8z"/>
					<path class="st7" d="M233.5,76.8c0,1.7,1.4,3,3,3c1.7,0,3-1.4,3-3v-4.6h-6V76.8z"/>
					<path class="st40" d="M239.6,76.8c0,1.7,1.4,3,3,3c1.7,0,3-1.4,3-3v-4.6h-6V76.8z"/>
					<path class="st7" d="M245.6,76.8c0,1.7,1.4,3,3,3c1.7,0,3-1.4,3-3v-4.6h-6V76.8z"/>
					<path class="st7" d="M251.7,76.8c0,1.7,1.3,3,3,3c1.7,0,3-1.4,3-3v-4.6h-6V76.8z"/>
					<path class="st40" d="M257.7,76.8c0,1.7,1.4,3,3,3c1.7,0,3-1.4,3-3v-4.6h-6V76.8z"/>
					<path class="st7" d="M263.7,76.8c0,1.7,1.4,3,3,3c1.7,0,3-1.4,3-3v-4.6h-6V76.8z"/>
					<path class="st40" d="M269.8,76.8c0,1.7,1.3,3,3,3c1.7,0,3-1.4,3-3v-4.6h-6V76.8z"/>
					<path class="st7" d="M275.8,76.8c0,1.7,1.4,3,3,3c1.7,0,3-1.4,3-3v-4.6h-6V76.8z"/>
				</g>
			</g>
		</g>
	</g>
	<path class="st44" d="M256,165.3l-15.3,26.4c2.3,1.4,5,2.2,7.8,2.2c8.4,0,15.3-6.8,15.3-15.3C263.9,172.9,260.7,167.9,256,165.3z"
		/>
</g>
<g id="house_with_chimney">
	<g>
		<rect x="149.3" y="169" class="st13" width="15.1" height="19.7"/>
		<rect x="154.8" y="171" class="st21" width="7.7" height="3.6"/>
		<g>
			<rect x="146.9" y="162.7" class="st26" width="19.8" height="7"/>
			<rect x="146.9" y="162.7" class="st7" width="19.8" height="2"/>
		</g>
	</g>
	<polygon class="st10" points="149.3,188.7 149.3,235.5 149.3,282.3 181,282.3 212.8,282.3 212.8,235.5 212.8,188.7 181,165.9 	"/>
	<linearGradient id="SVGID_18_" gradientUnits="userSpaceOnUse" x1="181.031" y1="265.799" x2="181.031" y2="283.9686">
		<stop  offset="0" style="stop-color:#FFFFFF"/>
		<stop  offset="1" style="stop-color:#B5B5B5"/>
	</linearGradient>
	<rect x="149.3" y="261.7" class="st45" width="63.5" height="16.3"/>
	<linearGradient id="SVGID_19_" gradientUnits="userSpaceOnUse" x1="181.031" y1="168.6891" x2="181.031" y2="192.9175">
		<stop  offset="0" style="stop-color:#B5B5B5"/>
		<stop  offset="0.6431" style="stop-color:#E8E8E8"/>
		<stop  offset="1" style="stop-color:#FFFFFF"/>
	</linearGradient>
	<polygon class="st46" points="186.8,168.7 181,163 175.3,168.7 170.6,173.4 149.3,194.8 149.3,206.2 181,174.5 212.8,206.2 
		212.8,194.8 191.5,173.4 	"/>
	<g>
		<polygon class="st13" points="181,166 214.3,199.3 219.1,194.6 181,156.5 		"/>
		<polygon class="st15" points="181,156.5 142.9,194.6 147.7,199.3 181,166 181,156.5 181,156.5 		"/>
		<polygon class="st21" points="181,156.5 181,156.5 142.9,194.6 144,195.7 181,158.7 181,158.7 181,158.7 218,195.7 219.1,194.6 
			181,156.5 		"/>
	</g>
	<rect x="144.3" y="277.3" class="st12" width="72.9" height="8"/>
	<g>
		<g>
			<rect x="168.8" y="272.6" class="st3" width="24.5" height="4.3"/>
			<rect x="167.2" y="276.8" class="st3" width="27.7" height="4.3"/>
			<rect x="165.8" y="281.1" class="st3" width="30.4" height="4.3"/>
		</g>
		<rect x="168.8" y="275.1" class="st2" width="24.5" height="1.7"/>
		<rect x="167.2" y="279.4" class="st2" width="27.7" height="1.7"/>
		<rect x="165.8" y="283.7" class="st2" width="30.4" height="1.7"/>
	</g>
	<g>
		<linearGradient id="SVGID_20_" gradientUnits="userSpaceOnUse" x1="181.031" y1="243.036" x2="181.031" y2="237.1061">
			<stop  offset="0" style="stop-color:#FFFFFF"/>
			<stop  offset="0.3569" style="stop-color:#E8E8E8"/>
			<stop  offset="1" style="stop-color:#B5B5B5"/>
		</linearGradient>
		<rect x="149.3" y="232.1" class="st47" width="63.5" height="11.3"/>
		<rect x="147.9" y="232.1" class="st26" width="66.3" height="6.5"/>
		<rect x="147.9" y="232.1" class="st7" width="66.3" height="2.3"/>
	</g>
	<g>
		<rect x="161.1" y="203.4" class="st13" width="7.7" height="3.6"/>
		<rect x="194.6" y="194.8" class="st13" width="7.7" height="3.6"/>
		<g>
			<rect x="156.9" y="199.2" class="st13" width="7.8" height="3.6"/>
			<rect x="165.3" y="199.2" class="st13" width="7.8" height="3.6"/>
		</g>
		<g>
			<rect x="198.4" y="250.4" class="st13" width="7.8" height="3.6"/>
			<g>
				<rect x="194.3" y="242.5" class="st13" width="7.8" height="3.6"/>
				<rect x="202.6" y="246.1" class="st13" width="7.8" height="3.6"/>
			</g>
		</g>
		<rect x="156.9" y="254.5" class="st13" width="7.8" height="3.6"/>
		<g>
			<rect x="152.7" y="250.2" class="st13" width="7.8" height="3.6"/>
		</g>
	</g>
	<g>
		<path class="st21" d="M181,209.7c-4.6,0-8.3,3.7-8.3,8.3v14h16.6v-14C189.3,213.5,185.6,209.7,181,209.7z"/>
		<path class="st3" d="M181,211.2c-3.8,0-6.8,3.1-6.8,6.8v12.6h13.7V218C187.9,214.3,184.8,211.2,181,211.2z"/>
		<path class="st22" d="M184.8,212.3l-10.5,18.3h13.7V218C187.9,215.7,186.6,213.6,184.8,212.3z"/>
		<rect x="180.2" y="211.2" class="st21" width="1.6" height="19.4"/>
		<rect x="172.9" y="221" class="st21" width="16.3" height="1.6"/>
	</g>
	<g>
		<path class="st21" d="M200.6,209.7c-4.6,0-8.3,3.7-8.3,8.3v14h16.6v-14C208.9,213.5,205.2,209.7,200.6,209.7z"/>
		<path class="st3" d="M200.6,211.2c-3.8,0-6.8,3.1-6.8,6.8v12.6h13.7V218C207.4,214.3,204.4,211.2,200.6,211.2z"/>
		<path class="st22" d="M204.3,212.3l-10.5,18.3h13.7V218C207.4,215.7,206.2,213.6,204.3,212.3z"/>
		<rect x="199.8" y="211.2" class="st21" width="1.6" height="19.4"/>
		<rect x="192.5" y="221" class="st21" width="16.3" height="1.6"/>
	</g>
	<g>
		<path class="st21" d="M161.5,209.7c-4.6,0-8.3,3.7-8.3,8.3v14h16.6v-14C169.8,213.5,166,209.7,161.5,209.7z"/>
		<path class="st3" d="M161.5,211.2c-3.8,0-6.8,3.1-6.8,6.8v12.6h13.7V218C168.3,214.3,165.2,211.2,161.5,211.2z"/>
		<path class="st22" d="M165.2,212.3l-10.5,18.3h13.7V218C168.3,215.7,167.1,213.6,165.2,212.3z"/>
		<rect x="160.7" y="211.2" class="st21" width="1.6" height="19.4"/>
		<rect x="153.3" y="221" class="st21" width="16.3" height="1.6"/>
	</g>
	<g>
		<path class="st21" d="M181,250.2c-4.6,0-8.3,3.7-8.3,8.3v14h16.6v-14C189.3,253.9,185.6,250.2,181,250.2z"/>
		<path class="st3" d="M181,251.7c-3.8,0-6.8,3.1-6.8,6.8v14h13.7v-14C187.9,254.8,184.8,251.7,181,251.7z"/>
		<circle class="st2" cx="176.4" cy="265.8" r="1"/>
		<path class="st2" d="M174.6,272.6h13.2v-14c0-2-0.9-3.8-2.2-5L174.6,272.6z"/>
	</g>
	<circle class="st3" cx="181" cy="188.2" r="5.1"/>
	<g>
		<circle class="st21" cx="181" cy="188.2" r="6.6"/>
		<circle class="st3" cx="181" cy="188.2" r="5.1"/>
		<path class="st0" d="M181.2,183.1c-1.6,0-3,0.8-3.9,2c-0.3,0.6-0.4,1.3-0.4,2c0,2.6,2.1,4.8,4.8,4.8c1.9,0,3.6-1.1,4.3-2.8
			c0.1-0.3,0.1-0.7,0.1-1.1C186.1,185.3,183.9,183.1,181.2,183.1z"/>
	</g>
</g>
<g id="bushes">
	<g>
		<path class="st8" d="M517.9,281.8c0,1.3,0.1,2.5,0.2,3.6h27.6c0.1-1.1,0.2-2.3,0.2-3.6c0-11.6-14-25.7-14-25.7
			S517.9,270.2,517.9,281.8z"/>
		<path class="st23" d="M531.9,285.4h13.8c0.1-1.1,0.2-2.3,0.2-3.6c0-11.6-14-25.7-14-25.7V285.4z"/>
	</g>
	<g>
		<path class="st8" d="M540.4,285.2c0,0.1,0,0.1,0,0.1h12.7c0,0,0-0.1,0-0.1c0-5.3-6.4-11.7-6.4-11.7S540.4,280,540.4,285.2z"/>
		<path class="st23" d="M546.7,285.4h6.4c0,0,0-0.1,0-0.1c0-5.3-6.4-11.7-6.4-11.7V285.4z"/>
	</g>
</g>
<g id="house_with_garage">
	<polygon class="st13" points="501.6,214.9 494.9,214.9 494.9,278 523,278 523,227.2 508.9,219.1 	"/>
	<g>
		<g>
			<rect x="500.3" y="247.3" class="st4" width="17.5" height="27.7"/>
			<rect x="501.9" y="248.8" class="st16" width="14.3" height="26.2"/>
			<polygon class="st13" points="502,275 516.2,275 516.2,248.8 513.6,248.8 			"/>
		</g>
		<circle class="st4" cx="504.5" cy="264.2" r="1.5"/>
	</g>
	<g>
		<rect x="509.2" y="239.8" class="st16" width="7.8" height="3.6"/>
		<g>
			<rect x="513.4" y="235.5" class="st16" width="7.8" height="3.6"/>
		</g>
		<g>
			<rect x="499.1" y="231.1" class="st16" width="7.8" height="3.6"/>
		</g>
	</g>
	<linearGradient id="SVGID_21_" gradientUnits="userSpaceOnUse" x1="475.4842" y1="246.4492" x2="508.0816" y2="246.4492">
		<stop  offset="0" style="stop-color:#C4C4C4"/>
		<stop  offset="1" style="stop-color:#FFFFFF"/>
	</linearGradient>
	<polygon class="st48" points="494.9,214.9 494.9,278 508.9,278 508.9,219.1 501.6,214.9 	"/>
	<polygon class="st4" points="501.6,214.9 494.3,210.7 491.9,215 494.9,216.7 523,233 528.5,236.1 531,231.9 523,227.2 	"/>
	<rect x="468.2" y="149.6" class="st12" width="15.1" height="18.2"/>
	<rect x="469.9" y="155.9" class="st16" width="7.8" height="3.6"/>
	<rect x="466" y="143.4" class="st16" width="19.6" height="7"/>
	<rect x="466" y="143.4" class="st49" width="19.6" height="1.8"/>
	<rect x="421.5" y="164.3" class="st13" width="73.9" height="118.2"/>
	<rect x="428.6" y="226.6" class="st16" width="7.8" height="3.6"/>
	<rect x="482.6" y="226.6" class="st16" width="7.7" height="3.6"/>
	<rect x="482.6" y="185.2" class="st16" width="7.7" height="3.6"/>
	<g>
		<rect x="424.4" y="222.3" class="st16" width="7.8" height="3.6"/>
	</g>
	<rect x="446.7" y="181" class="st16" width="7.7" height="3.6"/>
	<g>
		<rect x="450.9" y="185.2" class="st16" width="7.7" height="3.6"/>
		<rect x="442.5" y="185.2" class="st16" width="7.8" height="3.6"/>
	</g>
	<rect x="430.4" y="231.3" class="st4" width="56.2" height="47.2"/>
	<rect x="433.3" y="234.2" class="st50" width="50.3" height="41.3"/>
	<linearGradient id="SVGID_22_" gradientUnits="userSpaceOnUse" x1="458.4395" y1="234.7274" x2="458.4395" y2="240.3959">
		<stop  offset="0" style="stop-color:#CCCCCC"/>
		<stop  offset="0.6534" style="stop-color:#C3C3C3"/>
		<stop  offset="1" style="stop-color:#BCBCBC"/>
	</linearGradient>
	<rect x="433.3" y="234.2" class="st51" width="50.3" height="6.2"/>
	<linearGradient id="SVGID_23_" gradientUnits="userSpaceOnUse" x1="458.4395" y1="240.8826" x2="458.4395" y2="246.5512">
		<stop  offset="0" style="stop-color:#CCCCCC"/>
		<stop  offset="0.6534" style="stop-color:#C3C3C3"/>
		<stop  offset="1" style="stop-color:#BCBCBC"/>
	</linearGradient>
	<rect x="433.3" y="240.4" class="st52" width="50.3" height="6.2"/>
	<linearGradient id="SVGID_24_" gradientUnits="userSpaceOnUse" x1="458.4395" y1="247.0378" x2="458.4395" y2="252.7055">
		<stop  offset="0" style="stop-color:#CCCCCC"/>
		<stop  offset="0.6534" style="stop-color:#C3C3C3"/>
		<stop  offset="1" style="stop-color:#BCBCBC"/>
	</linearGradient>
	<rect x="433.3" y="246.5" class="st53" width="50.3" height="6.2"/>
	<linearGradient id="SVGID_25_" gradientUnits="userSpaceOnUse" x1="458.4395" y1="253.1923" x2="458.4395" y2="258.8627">
		<stop  offset="0" style="stop-color:#CCCCCC"/>
		<stop  offset="0.6534" style="stop-color:#C3C3C3"/>
		<stop  offset="1" style="stop-color:#BCBCBC"/>
	</linearGradient>
	<rect x="433.3" y="252.7" class="st54" width="50.3" height="6.2"/>
	<linearGradient id="SVGID_26_" gradientUnits="userSpaceOnUse" x1="458.4395" y1="259.3494" x2="458.4395" y2="265.018">
		<stop  offset="0" style="stop-color:#CCCCCC"/>
		<stop  offset="0.6534" style="stop-color:#C3C3C3"/>
		<stop  offset="1" style="stop-color:#BCBCBC"/>
	</linearGradient>
	<rect x="433.3" y="258.9" class="st55" width="50.3" height="6.2"/>
	<linearGradient id="SVGID_27_" gradientUnits="userSpaceOnUse" x1="458.4395" y1="265.5044" x2="458.4395" y2="271.1694">
		<stop  offset="0" style="stop-color:#CCCCCC"/>
		<stop  offset="0.6534" style="stop-color:#C3C3C3"/>
		<stop  offset="1" style="stop-color:#BCBCBC"/>
	</linearGradient>
	<rect x="433.3" y="265" class="st56" width="50.3" height="6.2"/>
	<linearGradient id="SVGID_28_" gradientUnits="userSpaceOnUse" x1="458.4395" y1="271.6561" x2="458.4395" y2="277.3246">
		<stop  offset="0" style="stop-color:#CCCCCC"/>
		<stop  offset="0.6534" style="stop-color:#C3C3C3"/>
		<stop  offset="1" style="stop-color:#BCBCBC"/>
	</linearGradient>
	<rect x="433.3" y="271.2" class="st57" width="50.3" height="6.2"/>
	<linearGradient id="SVGID_29_" gradientUnits="userSpaceOnUse" x1="472.2334" y1="290.6448" x2="472.2334" y2="265.4725">
		<stop  offset="0" style="stop-color:#C4C4C4"/>
		<stop  offset="1" style="stop-color:#FFFFFF"/>
	</linearGradient>
	<rect x="421.5" y="264.7" class="st58" width="101.5" height="17.9"/>
	<linearGradient id="SVGID_30_" gradientUnits="userSpaceOnUse" x1="458.4399" y1="167.1008" x2="458.4399" y2="188.7097">
		<stop  offset="0" style="stop-color:#C4C4C4"/>
		<stop  offset="1" style="stop-color:#FFFFFF"/>
	</linearGradient>
	<rect x="421.5" y="173.8" class="st59" width="73.9" height="17.9"/>
	<rect x="419" y="277.3" class="st16" width="111.1" height="8"/>
	<polygon class="st60" points="420,161.2 415.5,175.3 501.3,175.3 496.9,161.2 	"/>
	<polygon class="st4" points="416.5,172.3 415.5,175.3 501.3,175.3 500.4,172.3 	"/>
	<g>
		<rect x="430.4" y="192.4" class="st4" width="21.7" height="29.2"/>
		<rect x="431.8" y="193.9" class="st16" width="18.7" height="26.2"/>
		<polygon class="st13" points="432,220.1 450.6,220.1 450.6,193.9 447.1,193.9 		"/>
		<rect x="440.4" y="193.9" class="st4" width="1.6" height="26.2"/>
	</g>
	<g>
		<rect x="464.8" y="192.4" class="st4" width="21.7" height="29.2"/>
		<rect x="466.3" y="193.9" class="st16" width="18.7" height="26.2"/>
		<polygon class="st13" points="466.4,220.1 485,220.1 485,193.9 481.6,193.9 		"/>
		<rect x="474.9" y="193.9" class="st4" width="1.6" height="26.2"/>
	</g>
	<g>
		<g>
			<rect x="497" y="272.6" class="st16" width="24.3" height="4.3"/>
			<rect x="495.4" y="276.8" class="st16" width="27.5" height="4.3"/>
			<rect x="494.1" y="281.1" class="st16" width="30.2" height="4.3"/>
		</g>
		<rect x="497" y="275.1" class="st13" width="24.3" height="1.7"/>
		<rect x="495.4" y="279.4" class="st13" width="27.5" height="1.7"/>
		<rect x="494.1" y="283.7" class="st13" width="30.2" height="1.7"/>
	</g>
</g>
<g id="house_with_fancy_roof">
	<polygon class="st10" points="340.1,139.6 332.1,139.6 332.1,130.1 305.2,130.1 305.2,139.6 297.2,139.6 297.2,149.1 289.8,149.1 
		289.8,158.6 347.4,158.6 347.4,149.1 340.1,149.1 	"/>
	<polygon class="st35" points="337.1,142.5 329.1,142.5 329.1,133 308.1,133 308.1,142.5 300.2,142.5 300.2,152 292.8,152 
		292.8,160.4 344.5,160.4 344.5,152 337.1,152 	"/>
	<rect x="281.7" y="158.5" class="st35" width="73.9" height="125.6"/>
	<g>
		<rect x="314.8" y="226.5" class="st10" width="7.8" height="3.6"/>
		<g>
			<rect x="310.6" y="222.2" class="st10" width="7.8" height="3.6"/>
			<rect x="319" y="222.2" class="st10" width="7.7" height="3.6"/>
		</g>
		<rect x="288.3" y="162.7" class="st10" width="7.8" height="3.6"/>
		<g>
			<rect x="301.2" y="167" class="st10" width="7.8" height="3.6"/>
			<rect x="301.2" y="157.7" class="st10" width="7.8" height="3.6"/>
			<rect x="320.9" y="135.6" class="st10" width="7.8" height="3.6"/>
			<rect x="292.8" y="167" class="st10" width="7.7" height="3.6"/>
		</g>
		<g>
			<rect x="343.6" y="171" class="st10" width="7.8" height="3.6"/>
			<g>
				<rect x="339.4" y="163.1" class="st10" width="7.8" height="3.6"/>
				<rect x="347.8" y="166.7" class="st10" width="7.8" height="3.6"/>
			</g>
		</g>
		<rect x="285.9" y="209.4" class="st10" width="7.7" height="3.6"/>
		<g>
			<rect x="281.7" y="205.2" class="st10" width="7.8" height="3.6"/>
		</g>
		<g>
			<rect x="322.8" y="212.8" class="st10" width="7.8" height="3.6"/>
		</g>
		<g>
			<rect x="347.4" y="251.9" class="st10" width="7.8" height="3.6"/>
		</g>
		<g>
			<rect x="304.5" y="246.1" class="st10" width="7.8" height="3.6"/>
		</g>
	</g>
	<linearGradient id="SVGID_31_" gradientUnits="userSpaceOnUse" x1="318.6404" y1="260.8096" x2="318.6404" y2="284.2849">
		<stop  offset="0" style="stop-color:#FFFFFF"/>
		<stop  offset="1" style="stop-color:#B5B5B5"/>
	</linearGradient>
	<rect x="281.7" y="259.7" class="st61" width="73.9" height="13.7"/>
	<rect x="278.5" y="277.3" class="st10" width="80.3" height="8"/>
	<g>
		<linearGradient id="SVGID_32_" gradientUnits="userSpaceOnUse" x1="318.6404" y1="210.6986" x2="318.6404" y2="199.37">
			<stop  offset="0" style="stop-color:#FFFFFF"/>
			<stop  offset="0.3569" style="stop-color:#E8E8E8"/>
			<stop  offset="1" style="stop-color:#B5B5B5"/>
		</linearGradient>
		<rect x="281.7" y="194.8" class="st62" width="73.9" height="15.6"/>
		<rect x="280.5" y="194.8" class="st30" width="76.6" height="6.5"/>
		<rect x="280.5" y="194.8" class="st7" width="76.6" height="2.3"/>
	</g>
	<g>
		<path class="st16" d="M318.6,144.3c-4.1,0-7.5,3.3-7.5,7.5v12.6h15v-12.6C326.1,147.7,322.8,144.3,318.6,144.3z"/>
		<path class="st63" d="M318.6,145.7c-3.4,0-6.1,2.8-6.1,6.1v11.3h12.3v-11.3C324.8,148.4,322,145.7,318.6,145.7z"/>
		<path class="st22" d="M322,146.7l-9.5,16.4h12.3v-11.3C324.8,149.7,323.7,147.8,322,146.7z"/>
		<rect x="317.9" y="145.7" class="st16" width="1.4" height="17.4"/>
		<rect x="311.3" y="154.5" class="st16" width="14.6" height="1.4"/>
	</g>
	<g>
		<g>
			<path class="st16" d="M318.6,173.6c-4.1,0-7.5,3.3-7.5,7.5v12.6h15v-12.6C326.1,177,322.8,173.6,318.6,173.6z"/>
			<path class="st63" d="M318.6,174.9c-3.4,0-6.2,2.8-6.2,6.1v11.3h12.3v-11.3C324.8,177.7,322,174.9,318.6,174.9z"/>
			<path class="st22" d="M322,175.9l-9.5,16.4h12.3v-11.3C324.8,178.9,323.7,177,322,175.9z"/>
			<rect x="317.9" y="174.9" class="st16" width="1.4" height="17.4"/>
			<rect x="311.3" y="183.7" class="st16" width="14.6" height="1.4"/>
		</g>
		<g>
			<path class="st16" d="M338.9,173.6c-4.1,0-7.5,3.3-7.5,7.5v12.6h15v-12.6C346.4,177,343,173.6,338.9,173.6z"/>
			<path class="st63" d="M338.9,174.9c-3.4,0-6.2,2.8-6.2,6.1v11.3h12.3v-11.3C345.1,177.7,342.3,174.9,338.9,174.9z"/>
			<path class="st22" d="M342.3,175.9l-9.5,16.4h12.3v-11.3C345.1,178.9,343.9,177,342.3,175.9z"/>
			<rect x="338.2" y="174.9" class="st16" width="1.4" height="17.4"/>
			<rect x="331.6" y="183.7" class="st16" width="14.6" height="1.4"/>
		</g>
		<g>
			<path class="st16" d="M298.4,173.6c-4.1,0-7.5,3.3-7.5,7.5v12.6h15v-12.6C305.8,177,302.5,173.6,298.4,173.6z"/>
			<path class="st63" d="M298.4,174.9c-3.4,0-6.1,2.8-6.1,6.1v11.3h12.3v-11.3C304.5,177.7,301.8,174.9,298.4,174.9z"/>
			<path class="st22" d="M301.7,175.9l-9.5,16.4h12.3v-11.3C304.5,178.9,303.4,177,301.7,175.9z"/>
			<rect x="297.6" y="174.9" class="st16" width="1.4" height="17.4"/>
			<rect x="291.1" y="183.7" class="st16" width="14.6" height="1.4"/>
		</g>
	</g>
	<g>
		<g>
			<path class="st16" d="M318.6,249.5c-4.1,0-7.5,3.3-7.5,7.5v12.6h15V257C326.1,252.9,322.8,249.5,318.6,249.5z"/>
			<path class="st63" d="M318.6,250.9c-3.4,0-6.2,2.8-6.2,6.1v11.3h12.3V257C324.8,253.6,322,250.9,318.6,250.9z"/>
			<path class="st22" d="M322,251.9l-9.5,16.4h12.3V257C324.8,254.9,323.7,253,322,251.9z"/>
			<rect x="317.9" y="250.9" class="st16" width="1.4" height="17.4"/>
			<rect x="311.3" y="259.7" class="st16" width="14.6" height="1.4"/>
		</g>
		<g>
			<path class="st16" d="M338.9,249.5c-4.1,0-7.5,3.3-7.5,7.5v12.6h15V257C346.4,252.9,343,249.5,338.9,249.5z"/>
			<path class="st63" d="M338.9,250.9c-3.4,0-6.2,2.8-6.2,6.1v11.3h12.3V257C345.1,253.6,342.3,250.9,338.9,250.9z"/>
			<path class="st22" d="M342.3,251.9l-9.5,16.4h12.3V257C345.1,254.9,343.9,253,342.3,251.9z"/>
			<rect x="338.2" y="250.9" class="st16" width="1.4" height="17.4"/>
			<rect x="331.6" y="259.7" class="st16" width="14.6" height="1.4"/>
		</g>
		<g>
			<path class="st16" d="M298.4,249.5c-4.1,0-7.5,3.3-7.5,7.5v12.6h15V257C305.8,252.9,302.5,249.5,298.4,249.5z"/>
			<path class="st63" d="M298.4,250.9c-3.4,0-6.1,2.8-6.1,6.1v11.3h12.3V257C304.5,253.6,301.8,250.9,298.4,250.9z"/>
			<path class="st22" d="M301.7,251.9l-9.5,16.4h12.3V257C304.5,254.9,303.4,253,301.7,251.9z"/>
			<rect x="297.6" y="250.9" class="st16" width="1.4" height="17.4"/>
			<rect x="291.1" y="259.7" class="st16" width="14.6" height="1.4"/>
		</g>
	</g>
	<g>
		<linearGradient id="SVGID_33_" gradientUnits="userSpaceOnUse" x1="318.6404" y1="250.3925" x2="318.6404" y2="239.0636">
			<stop  offset="0" style="stop-color:#FFFFFF"/>
			<stop  offset="0.3569" style="stop-color:#E8E8E8"/>
			<stop  offset="1" style="stop-color:#B5B5B5"/>
		</linearGradient>
		<rect x="281.7" y="234.5" class="st64" width="73.9" height="15.6"/>
		<rect x="280.5" y="234.5" class="st30" width="76.6" height="6.5"/>
		<rect x="280.5" y="234.5" class="st7" width="76.6" height="2.3"/>
	</g>
	<g>
		<rect x="280.5" y="271.1" class="st30" width="76.6" height="6.5"/>
		<rect x="280.5" y="271.1" class="st7" width="76.6" height="2.3"/>
	</g>
	<g>
		<g>
			<path class="st16" d="M338.9,213.3c-4.1,0-7.5,3.3-7.5,7.5v12.6h15v-12.6C346.4,216.7,343,213.3,338.9,213.3z"/>
			<path class="st63" d="M338.9,214.6c-3.4,0-6.2,2.8-6.2,6.1v11.3h12.3v-11.3C345.1,217.4,342.3,214.6,338.9,214.6z"/>
			<path class="st22" d="M342.3,215.6l-9.5,16.4h12.3v-11.3C345.1,218.6,343.9,216.7,342.3,215.6z"/>
			<rect x="338.2" y="214.6" class="st16" width="1.4" height="17.5"/>
			<rect x="331.6" y="223.4" class="st16" width="14.6" height="1.4"/>
		</g>
		<g>
			<path class="st16" d="M298.4,213.3c-4.1,0-7.5,3.3-7.5,7.5v12.6h15v-12.6C305.8,216.7,302.5,213.3,298.4,213.3z"/>
			<path class="st63" d="M298.4,214.6c-3.4,0-6.1,2.8-6.1,6.1v11.3h12.3v-11.3C304.5,217.4,301.8,214.6,298.4,214.6z"/>
			<path class="st22" d="M301.7,215.6l-9.5,16.4h12.3v-11.3C304.5,218.6,303.4,216.7,301.7,215.6z"/>
			<rect x="297.6" y="214.6" class="st16" width="1.4" height="17.5"/>
			<rect x="291.1" y="223.4" class="st16" width="14.6" height="1.4"/>
		</g>
	</g>
</g>
<g id="house_with_tiled_roof">
	<rect x="355.5" y="155.8" class="st28" width="66.5" height="125.6"/>
	<rect x="414.3" y="263.2" class="st65" width="7.8" height="3.6"/>
	<rect x="412.1" y="259" class="st65" width="7.7" height="3.6"/>
	<g>
		<rect x="358.4" y="214.8" class="st65" width="7.8" height="3.6"/>
		<g>
			<rect x="355.6" y="210.5" class="st65" width="7.8" height="3.6"/>
		</g>
	</g>
	<g>
		<rect x="393.8" y="268.9" class="st65" width="7.8" height="3.6"/>
		<rect x="389.7" y="273" class="st65" width="7.8" height="3.6"/>
		<rect x="385.6" y="268.9" class="st65" width="7.8" height="3.6"/>
		<rect x="397.9" y="273" class="st65" width="7.7" height="3.6"/>
		<rect x="402" y="268.9" class="st65" width="7.8" height="3.6"/>
		<rect x="406.1" y="273" class="st65" width="7.8" height="3.6"/>
		<rect x="414.3" y="273" class="st65" width="7.8" height="3.6"/>
		<rect x="418.4" y="268.9" class="st65" width="3.7" height="3.6"/>
		<rect x="410.2" y="268.9" class="st65" width="7.7" height="3.6"/>
		<rect x="381.5" y="273" class="st65" width="7.8" height="3.6"/>
		<rect x="377.4" y="268.9" class="st65" width="7.8" height="3.6"/>
	</g>
	<g>
		<rect x="355.5" y="268.9" class="st65" width="3.6" height="3.6"/>
		<rect x="355.5" y="273" class="st65" width="7.7" height="3.6"/>
		<rect x="363.7" y="273" class="st65" width="7.8" height="3.6"/>
		<rect x="359.6" y="268.9" class="st65" width="7.8" height="3.6"/>
		<rect x="367.8" y="268.9" class="st65" width="7.8" height="3.6"/>
	</g>
	<linearGradient id="SVGID_34_" gradientUnits="userSpaceOnUse" x1="388.7632" y1="286.0474" x2="388.7632" y2="264.8617">
		<stop  offset="0" style="stop-color:#9F9F9F"/>
		<stop  offset="0.9072" style="stop-color:#F6F6F6"/>
		<stop  offset="1" style="stop-color:#FFFFFF"/>
	</linearGradient>
	<rect x="355.5" y="264" class="st66" width="66.5" height="17.4"/>
	<linearGradient id="SVGID_35_" gradientUnits="userSpaceOnUse" x1="388.7632" y1="200.8556" x2="388.7632" y2="218.3642">
		<stop  offset="0" style="stop-color:#9F9F9F"/>
		<stop  offset="0.9072" style="stop-color:#F6F6F6"/>
		<stop  offset="1" style="stop-color:#FFFFFF"/>
	</linearGradient>
	<rect x="355.5" y="200.8" class="st67" width="66.5" height="17.4"/>
	<rect x="352.3" y="277.3" class="st65" width="72.9" height="8"/>
	<rect x="355.5" y="145.6" class="st65" width="66.5" height="59.3"/>
	<g>
		<linearGradient id="SVGID_36_" gradientUnits="userSpaceOnUse" x1="388.792" y1="204.9179" x2="388.792" y2="211.9738">
			<stop  offset="0" style="stop-color:#9F9F9F"/>
			<stop  offset="0.1239" style="stop-color:#ACACAC"/>
			<stop  offset="0.7167" style="stop-color:#E8E8E8"/>
			<stop  offset="1" style="stop-color:#FFFFFF"/>
		</linearGradient>
		<path class="st68" d="M419,201c-1.7,0-3,1.4-3,3c0-1.7-1.4-3-3-3c-1.7,0-3,1.4-3,3c0-1.7-1.4-3-3-3c-1.7,0-3,1.4-3,3
			c0-1.7-1.4-3-3-3c-1.7,0-3,1.4-3,3c0-1.7-1.4-3-3-3c-1.7,0-3,1.4-3,3c0-1.7-1.4-3-3-3c-1.7,0-3,1.4-3,3c0-1.7-1.4-3-3-3
			c-1.7,0-3,1.4-3,3c0-1.7-1.3-3-3-3c-1.7,0-3,1.4-3,3c0-1.7-1.3-3-3-3c-1.7,0-3,1.4-3,3c0-1.7-1.4-3-3-3c-1.7,0-3,1.4-3,3
			c0-1.7-1.4-3-3-3c-1.7,0-3,1.4-3,3v4.8c0,1.7,1.4,3,3,3c1.7,0,3-1.4,3-3c0,1.7,1.4,3,3,3c1.7,0,3-1.4,3-3c0,1.7,1.4,3,3,3
			c1.7,0,3-1.4,3-3c0,1.7,1.4,3,3,3c1.7,0,3-1.4,3-3c0,1.7,1.4,3,3,3c1.7,0,3-1.4,3-3c0,1.7,1.4,3,3,3c1.7,0,3-1.4,3-3
			c0,1.7,1.4,3,3,3c1.7,0,3-1.4,3-3c0,1.7,1.4,3,3,3c1.7,0,3-1.4,3-3c0,1.7,1.4,3,3,3c1.7,0,3-1.4,3-3c0,1.7,1.3,3,3,3
			c1.7,0,3-1.4,3-3c0,1.7,1.4,3,3,3c1.7,0,3-1.4,3-3v-4.8C422,202.4,420.7,201,419,201z"/>
		<g>
			<path class="st17" d="M358.6,197c-1.7,0-3,1.4-3,3v4.8c0,1.7,1.4,3,3,3c1.7,0,3-1.4,3-3v-4.8C361.6,198.4,360.3,197,358.6,197z"
				/>
			<path class="st65" d="M364.6,197c-1.7,0-3,1.4-3,3v4.8c0,1.7,1.4,3,3,3c1.7,0,3-1.4,3-3v-4.8C367.7,198.4,366.3,197,364.6,197z"
				/>
			<path class="st65" d="M370.7,197c-1.7,0-3,1.4-3,3v4.8c0,1.7,1.4,3,3,3c1.7,0,3-1.4,3-3v-4.8C373.7,198.4,372.3,197,370.7,197z"
				/>
			<path class="st17" d="M376.7,197c-1.7,0-3,1.4-3,3v4.8c0,1.7,1.4,3,3,3c1.7,0,3-1.4,3-3v-4.8C379.7,198.4,378.4,197,376.7,197z"
				/>
			<path class="st17" d="M382.8,197c-1.7,0-3,1.4-3,3v4.8c0,1.7,1.4,3,3,3c1.7,0,3-1.4,3-3v-4.8C385.8,198.4,384.4,197,382.8,197z"
				/>
			<path class="st65" d="M388.8,197c-1.7,0-3,1.4-3,3v4.8c0,1.7,1.4,3,3,3c1.7,0,3-1.4,3-3v-4.8C391.8,198.4,390.5,197,388.8,197z"
				/>
			<path class="st17" d="M394.8,197c-1.7,0-3,1.4-3,3v4.8c0,1.7,1.4,3,3,3c1.7,0,3-1.4,3-3v-4.8C397.9,198.4,396.5,197,394.8,197z"
				/>
			<path class="st65" d="M400.9,197c-1.7,0-3,1.4-3,3v4.8c0,1.7,1.4,3,3,3c1.7,0,3-1.4,3-3v-4.8C403.9,198.4,402.5,197,400.9,197z"
				/>
			<path class="st17" d="M406.9,197c-1.7,0-3,1.4-3,3v4.8c0,1.7,1.4,3,3,3c1.7,0,3-1.4,3-3v-4.8C409.9,198.4,408.6,197,406.9,197z"
				/>
			<path class="st65" d="M412.9,197c-1.7,0-3,1.4-3,3v4.8c0,1.7,1.3,3,3,3c1.7,0,3-1.4,3-3v-4.8C416,198.4,414.6,197,412.9,197z"/>
			<path class="st17" d="M419,197c-1.7,0-3,1.4-3,3v4.8c0,1.7,1.4,3,3,3c1.7,0,3-1.4,3-3v-4.8C422,198.4,420.7,197,419,197z"/>
		</g>
		<g>
			<path class="st30" d="M362.4,191.6c-1.7,0-3,1.4-3,3v4.8c0,1.7,1.4,3,3,3c1.7,0,3-1.4,3-3v-4.8
				C365.5,192.9,364.1,191.6,362.4,191.6z"/>
			<path class="st28" d="M356.4,191.6c-1.7,0-3,1.4-3,3v4.8c0,1.7,1.4,3,3,3c1.7,0,3-1.4,3-3v-4.8
				C359.4,192.9,358.1,191.6,356.4,191.6z"/>
			<path class="st28" d="M368.5,191.6c-1.7,0-3,1.4-3,3v4.8c0,1.7,1.4,3,3,3c1.7,0,3-1.4,3-3v-4.8
				C371.5,192.9,370.1,191.6,368.5,191.6z"/>
			<path class="st30" d="M374.5,191.6c-1.7,0-3,1.4-3,3v4.8c0,1.7,1.4,3,3,3c1.7,0,3-1.4,3-3v-4.8
				C377.5,192.9,376.2,191.6,374.5,191.6z"/>
			<path class="st28" d="M380.6,191.6c-1.7,0-3,1.4-3,3v4.8c0,1.7,1.4,3,3,3c1.7,0,3-1.4,3-3v-4.8
				C383.6,192.9,382.2,191.6,380.6,191.6z"/>
			<path class="st30" d="M386.6,191.6c-1.7,0-3,1.4-3,3v4.8c0,1.7,1.4,3,3,3c1.7,0,3-1.4,3-3v-4.8
				C389.6,192.9,388.3,191.6,386.6,191.6z"/>
			<path class="st30" d="M392.6,191.6c-1.7,0-3,1.4-3,3v4.8c0,1.7,1.3,3,3,3c1.7,0,3-1.4,3-3v-4.8
				C395.7,192.9,394.3,191.6,392.6,191.6z"/>
			<path class="st30" d="M398.7,191.6c-1.7,0-3,1.4-3,3v4.8c0,1.7,1.4,3,3,3c1.7,0,3-1.4,3-3v-4.8
				C401.7,192.9,400.3,191.6,398.7,191.6z"/>
			<path class="st28" d="M404.7,191.6c-1.7,0-3,1.4-3,3v4.8c0,1.7,1.4,3,3,3c1.7,0,3-1.4,3-3v-4.8
				C407.7,192.9,406.4,191.6,404.7,191.6z"/>
			<path class="st28" d="M410.8,191.6c-1.7,0-3,1.4-3,3v4.8c0,1.7,1.4,3,3,3s3-1.4,3-3v-4.8C413.8,192.9,412.4,191.6,410.8,191.6z"
				/>
			<path class="st30" d="M416.8,191.6c-1.7,0-3,1.4-3,3v4.8c0,1.7,1.4,3,3,3c1.7,0,3-1.4,3-3v-4.8
				C419.8,192.9,418.5,191.6,416.8,191.6z"/>
			<path class="st28" d="M422.8,191.6c-1.7,0-3,1.4-3,3v4.8c0,1.7,1.4,3,3,3c1.7,0,3-1.4,3-3v-4.8
				C425.8,192.9,424.5,191.6,422.8,191.6z"/>
		</g>
		<g>
			<path class="st65" d="M358.6,186.1c-1.7,0-3,1.4-3,3v4.8c0,1.7,1.4,3,3,3c1.7,0,3-1.4,3-3v-4.8
				C361.6,187.5,360.3,186.1,358.6,186.1z"/>
			<path class="st65" d="M364.6,186.1c-1.7,0-3,1.4-3,3v4.8c0,1.7,1.4,3,3,3c1.7,0,3-1.4,3-3v-4.8
				C367.7,187.5,366.3,186.1,364.6,186.1z"/>
			<path class="st17" d="M370.7,186.1c-1.7,0-3,1.4-3,3v4.8c0,1.7,1.4,3,3,3c1.7,0,3-1.4,3-3v-4.8
				C373.7,187.5,372.3,186.1,370.7,186.1z"/>
			<path class="st65" d="M376.7,186.1c-1.7,0-3,1.4-3,3v4.8c0,1.7,1.4,3,3,3c1.7,0,3-1.4,3-3v-4.8
				C379.7,187.5,378.4,186.1,376.7,186.1z"/>
			<path class="st17" d="M382.8,186.1c-1.7,0-3,1.4-3,3v4.8c0,1.7,1.4,3,3,3c1.7,0,3-1.4,3-3v-4.8
				C385.8,187.5,384.4,186.1,382.8,186.1z"/>
			<path class="st65" d="M388.8,186.1c-1.7,0-3,1.4-3,3v4.8c0,1.7,1.4,3,3,3c1.7,0,3-1.4,3-3v-4.8
				C391.8,187.5,390.5,186.1,388.8,186.1z"/>
			<path class="st65" d="M394.8,186.1c-1.7,0-3,1.4-3,3v4.8c0,1.7,1.4,3,3,3c1.7,0,3-1.4,3-3v-4.8
				C397.9,187.5,396.5,186.1,394.8,186.1z"/>
			<path class="st17" d="M400.9,186.1c-1.7,0-3,1.4-3,3v4.8c0,1.7,1.4,3,3,3c1.7,0,3-1.4,3-3v-4.8
				C403.9,187.5,402.5,186.1,400.9,186.1z"/>
			<path class="st17" d="M406.9,186.1c-1.7,0-3,1.4-3,3v4.8c0,1.7,1.4,3,3,3c1.7,0,3-1.4,3-3v-4.8
				C409.9,187.5,408.6,186.1,406.9,186.1z"/>
			<path class="st17" d="M412.9,186.1c-1.7,0-3,1.4-3,3v4.8c0,1.7,1.3,3,3,3c1.7,0,3-1.4,3-3v-4.8
				C416,187.5,414.6,186.1,412.9,186.1z"/>
			<path class="st65" d="M419,186.1c-1.7,0-3,1.4-3,3v4.8c0,1.7,1.4,3,3,3c1.7,0,3-1.4,3-3v-4.8C422,187.5,420.7,186.1,419,186.1z"
				/>
		</g>
		<g>
			<path class="st28" d="M362.4,180.7c-1.7,0-3,1.4-3,3v4.8c0,1.7,1.4,3,3,3c1.7,0,3-1.4,3-3v-4.8
				C365.5,182,364.1,180.7,362.4,180.7z"/>
			<path class="st28" d="M356.4,180.7c-1.7,0-3,1.4-3,3v4.8c0,1.7,1.4,3,3,3c1.7,0,3-1.4,3-3v-4.8
				C359.4,182,358.1,180.7,356.4,180.7z"/>
			<path class="st30" d="M368.5,180.7c-1.7,0-3,1.4-3,3v4.8c0,1.7,1.4,3,3,3c1.7,0,3-1.4,3-3v-4.8
				C371.5,182,370.1,180.7,368.5,180.7z"/>
			<path class="st28" d="M374.5,180.7c-1.7,0-3,1.4-3,3v4.8c0,1.7,1.4,3,3,3c1.7,0,3-1.4,3-3v-4.8
				C377.5,182,376.2,180.7,374.5,180.7z"/>
			<path class="st30" d="M380.6,180.7c-1.7,0-3,1.4-3,3v4.8c0,1.7,1.4,3,3,3c1.7,0,3-1.4,3-3v-4.8
				C383.6,182,382.2,180.7,380.6,180.7z"/>
			<path class="st30" d="M386.6,180.7c-1.7,0-3,1.4-3,3v4.8c0,1.7,1.4,3,3,3c1.7,0,3-1.4,3-3v-4.8
				C389.6,182,388.3,180.7,386.6,180.7z"/>
			<path class="st28" d="M392.6,180.7c-1.7,0-3,1.4-3,3v4.8c0,1.7,1.3,3,3,3c1.7,0,3-1.4,3-3v-4.8
				C395.7,182,394.3,180.7,392.6,180.7z"/>
			<path class="st30" d="M398.7,180.7c-1.7,0-3,1.4-3,3v4.8c0,1.7,1.4,3,3,3c1.7,0,3-1.4,3-3v-4.8
				C401.7,182,400.3,180.7,398.7,180.7z"/>
			<path class="st28" d="M404.7,180.7c-1.7,0-3,1.4-3,3v4.8c0,1.7,1.4,3,3,3c1.7,0,3-1.4,3-3v-4.8
				C407.7,182,406.4,180.7,404.7,180.7z"/>
			<path class="st28" d="M410.8,180.7c-1.7,0-3,1.4-3,3v4.8c0,1.7,1.4,3,3,3s3-1.4,3-3v-4.8C413.8,182,412.4,180.7,410.8,180.7z"/>
			<path class="st28" d="M416.8,180.7c-1.7,0-3,1.4-3,3v4.8c0,1.7,1.4,3,3,3c1.7,0,3-1.4,3-3v-4.8
				C419.8,182,418.5,180.7,416.8,180.7z"/>
			<path class="st30" d="M422.8,180.7c-1.7,0-3,1.4-3,3v4.8c0,1.7,1.4,3,3,3c1.7,0,3-1.4,3-3v-4.8
				C425.8,182,424.5,180.7,422.8,180.7z"/>
		</g>
		<g>
			<path class="st17" d="M358.6,175.2c-1.7,0-3,1.4-3,3v4.8c0,1.7,1.4,3,3,3c1.7,0,3-1.4,3-3v-4.8
				C361.6,176.6,360.3,175.2,358.6,175.2z"/>
			<path class="st17" d="M364.6,175.2c-1.7,0-3,1.4-3,3v4.8c0,1.7,1.4,3,3,3c1.7,0,3-1.4,3-3v-4.8
				C367.7,176.6,366.3,175.2,364.6,175.2z"/>
			<path class="st65" d="M370.7,175.2c-1.7,0-3,1.4-3,3v4.8c0,1.7,1.4,3,3,3c1.7,0,3-1.4,3-3v-4.8
				C373.7,176.6,372.3,175.2,370.7,175.2z"/>
			<path class="st65" d="M376.7,175.2c-1.7,0-3,1.4-3,3v4.8c0,1.7,1.4,3,3,3c1.7,0,3-1.4,3-3v-4.8
				C379.7,176.6,378.4,175.2,376.7,175.2z"/>
			<path class="st65" d="M382.8,175.2c-1.7,0-3,1.4-3,3v4.8c0,1.7,1.4,3,3,3c1.7,0,3-1.4,3-3v-4.8
				C385.8,176.6,384.4,175.2,382.8,175.2z"/>
			<path class="st65" d="M388.8,175.2c-1.7,0-3,1.4-3,3v4.8c0,1.7,1.4,3,3,3c1.7,0,3-1.4,3-3v-4.8
				C391.8,176.6,390.5,175.2,388.8,175.2z"/>
			<path class="st17" d="M394.8,175.2c-1.7,0-3,1.4-3,3v4.8c0,1.7,1.4,3,3,3c1.7,0,3-1.4,3-3v-4.8
				C397.9,176.6,396.5,175.2,394.8,175.2z"/>
			<path class="st65" d="M400.9,175.2c-1.7,0-3,1.4-3,3v4.8c0,1.7,1.4,3,3,3c1.7,0,3-1.4,3-3v-4.8
				C403.9,176.6,402.5,175.2,400.9,175.2z"/>
			<path class="st17" d="M406.9,175.2c-1.7,0-3,1.4-3,3v4.8c0,1.7,1.4,3,3,3c1.7,0,3-1.4,3-3v-4.8
				C409.9,176.6,408.6,175.2,406.9,175.2z"/>
			<path class="st65" d="M412.9,175.2c-1.7,0-3,1.4-3,3v4.8c0,1.7,1.3,3,3,3c1.7,0,3-1.4,3-3v-4.8
				C416,176.6,414.6,175.2,412.9,175.2z"/>
			<path class="st65" d="M419,175.2c-1.7,0-3,1.4-3,3v4.8c0,1.7,1.4,3,3,3c1.7,0,3-1.4,3-3v-4.8C422,176.6,420.7,175.2,419,175.2z"
				/>
		</g>
		<g>
			<path class="st30" d="M362.4,169.7c-1.7,0-3,1.4-3,3v4.8c0,1.7,1.4,3,3,3c1.7,0,3-1.4,3-3v-4.8
				C365.5,171.1,364.1,169.7,362.4,169.7z"/>
			<path class="st30" d="M356.4,169.7c-1.7,0-3,1.4-3,3v4.8c0,1.7,1.4,3,3,3c1.7,0,3-1.4,3-3v-4.8
				C359.4,171.1,358.1,169.7,356.4,169.7z"/>
			<path class="st30" d="M368.5,169.7c-1.7,0-3,1.4-3,3v4.8c0,1.7,1.4,3,3,3c1.7,0,3-1.4,3-3v-4.8
				C371.5,171.1,370.1,169.7,368.5,169.7z"/>
			<path class="st28" d="M374.5,169.7c-1.7,0-3,1.4-3,3v4.8c0,1.7,1.4,3,3,3c1.7,0,3-1.4,3-3v-4.8
				C377.5,171.1,376.2,169.7,374.5,169.7z"/>
			<path class="st30" d="M380.6,169.7c-1.7,0-3,1.4-3,3v4.8c0,1.7,1.4,3,3,3c1.7,0,3-1.4,3-3v-4.8
				C383.6,171.1,382.2,169.7,380.6,169.7z"/>
			<path class="st28" d="M386.6,169.7c-1.7,0-3,1.4-3,3v4.8c0,1.7,1.4,3,3,3c1.7,0,3-1.4,3-3v-4.8
				C389.6,171.1,388.3,169.7,386.6,169.7z"/>
			<path class="st28" d="M392.6,169.7c-1.7,0-3,1.4-3,3v4.8c0,1.7,1.3,3,3,3c1.7,0,3-1.4,3-3v-4.8
				C395.7,171.1,394.3,169.7,392.6,169.7z"/>
			<path class="st28" d="M398.7,169.7c-1.7,0-3,1.4-3,3v4.8c0,1.7,1.4,3,3,3c1.7,0,3-1.4,3-3v-4.8
				C401.7,171.1,400.3,169.7,398.7,169.7z"/>
			<path class="st30" d="M404.7,169.7c-1.7,0-3,1.4-3,3v4.8c0,1.7,1.4,3,3,3c1.7,0,3-1.4,3-3v-4.8
				C407.7,171.1,406.4,169.7,404.7,169.7z"/>
			<path class="st28" d="M410.8,169.7c-1.7,0-3,1.4-3,3v4.8c0,1.7,1.4,3,3,3s3-1.4,3-3v-4.8C413.8,171.1,412.4,169.7,410.8,169.7z"
				/>
			<path class="st30" d="M416.8,169.7c-1.7,0-3,1.4-3,3v4.8c0,1.7,1.4,3,3,3c1.7,0,3-1.4,3-3v-4.8
				C419.8,171.1,418.5,169.7,416.8,169.7z"/>
			<path class="st28" d="M422.8,169.7c-1.7,0-3,1.4-3,3v4.8c0,1.7,1.4,3,3,3c1.7,0,3-1.4,3-3v-4.8
				C425.8,171.1,424.5,169.7,422.8,169.7z"/>
		</g>
		<g>
			<path class="st65" d="M358.6,164.3c-1.7,0-3,1.4-3,3v4.8c0,1.7,1.4,3,3,3c1.7,0,3-1.4,3-3v-4.8
				C361.6,165.7,360.3,164.3,358.6,164.3z"/>
			<path class="st17" d="M364.6,164.3c-1.7,0-3,1.4-3,3v4.8c0,1.7,1.4,3,3,3c1.7,0,3-1.4,3-3v-4.8
				C367.7,165.7,366.3,164.3,364.6,164.3z"/>
			<path class="st65" d="M370.7,164.3c-1.7,0-3,1.4-3,3v4.8c0,1.7,1.4,3,3,3c1.7,0,3-1.4,3-3v-4.8
				C373.7,165.7,372.3,164.3,370.7,164.3z"/>
			<path class="st17" d="M376.7,164.3c-1.7,0-3,1.4-3,3v4.8c0,1.7,1.4,3,3,3c1.7,0,3-1.4,3-3v-4.8
				C379.7,165.7,378.4,164.3,376.7,164.3z"/>
			<path class="st65" d="M382.8,164.3c-1.7,0-3,1.4-3,3v4.8c0,1.7,1.4,3,3,3c1.7,0,3-1.4,3-3v-4.8
				C385.8,165.7,384.4,164.3,382.8,164.3z"/>
			<path class="st65" d="M388.8,164.3c-1.7,0-3,1.4-3,3v4.8c0,1.7,1.4,3,3,3c1.7,0,3-1.4,3-3v-4.8
				C391.8,165.7,390.5,164.3,388.8,164.3z"/>
			<path class="st65" d="M394.8,164.3c-1.7,0-3,1.4-3,3v4.8c0,1.7,1.4,3,3,3c1.7,0,3-1.4,3-3v-4.8
				C397.9,165.7,396.5,164.3,394.8,164.3z"/>
			<path class="st17" d="M400.9,164.3c-1.7,0-3,1.4-3,3v4.8c0,1.7,1.4,3,3,3c1.7,0,3-1.4,3-3v-4.8
				C403.9,165.7,402.5,164.3,400.9,164.3z"/>
			<path class="st65" d="M406.9,164.3c-1.7,0-3,1.4-3,3v4.8c0,1.7,1.4,3,3,3c1.7,0,3-1.4,3-3v-4.8
				C409.9,165.7,408.6,164.3,406.9,164.3z"/>
			<path class="st17" d="M412.9,164.3c-1.7,0-3,1.4-3,3v4.8c0,1.7,1.3,3,3,3c1.7,0,3-1.4,3-3v-4.8
				C416,165.7,414.6,164.3,412.9,164.3z"/>
			<path class="st17" d="M419,164.3c-1.7,0-3,1.4-3,3v4.8c0,1.7,1.4,3,3,3c1.7,0,3-1.4,3-3v-4.8C422,165.7,420.7,164.3,419,164.3z"
				/>
		</g>
		<g>
			<path class="st30" d="M362.4,158.8c-1.7,0-3,1.4-3,3v4.8c0,1.7,1.4,3,3,3c1.7,0,3-1.4,3-3v-4.8
				C365.5,160.2,364.1,158.8,362.4,158.8z"/>
			<path class="st28" d="M356.4,158.8c-1.7,0-3,1.4-3,3v4.8c0,1.7,1.4,3,3,3c1.7,0,3-1.4,3-3v-4.8
				C359.4,160.2,358.1,158.8,356.4,158.8z"/>
			<path class="st28" d="M368.5,158.8c-1.7,0-3,1.4-3,3v4.8c0,1.7,1.4,3,3,3c1.7,0,3-1.4,3-3v-4.8
				C371.5,160.2,370.1,158.8,368.5,158.8z"/>
			<path class="st30" d="M374.5,158.8c-1.7,0-3,1.4-3,3v4.8c0,1.7,1.4,3,3,3c1.7,0,3-1.4,3-3v-4.8
				C377.5,160.2,376.2,158.8,374.5,158.8z"/>
			<path class="st28" d="M380.6,158.8c-1.7,0-3,1.4-3,3v4.8c0,1.7,1.4,3,3,3c1.7,0,3-1.4,3-3v-4.8
				C383.6,160.2,382.2,158.8,380.6,158.8z"/>
			<path class="st30" d="M386.6,158.8c-1.7,0-3,1.4-3,3v4.8c0,1.7,1.4,3,3,3c1.7,0,3-1.4,3-3v-4.8
				C389.6,160.2,388.3,158.8,386.6,158.8z"/>
			<path class="st30" d="M392.6,158.8c-1.7,0-3,1.4-3,3v4.8c0,1.7,1.3,3,3,3c1.7,0,3-1.4,3-3v-4.8
				C395.7,160.2,394.3,158.8,392.6,158.8z"/>
			<path class="st28" d="M398.7,158.8c-1.7,0-3,1.4-3,3v4.8c0,1.7,1.4,3,3,3c1.7,0,3-1.4,3-3v-4.8
				C401.7,160.2,400.3,158.8,398.7,158.8z"/>
			<path class="st30" d="M404.7,158.8c-1.7,0-3,1.4-3,3v4.8c0,1.7,1.4,3,3,3c1.7,0,3-1.4,3-3v-4.8
				C407.7,160.2,406.4,158.8,404.7,158.8z"/>
			<path class="st28" d="M410.8,158.8c-1.7,0-3,1.4-3,3v4.8c0,1.7,1.4,3,3,3s3-1.4,3-3v-4.8C413.8,160.2,412.4,158.8,410.8,158.8z"
				/>
			<path class="st28" d="M416.8,158.8c-1.7,0-3,1.4-3,3v4.8c0,1.7,1.4,3,3,3c1.7,0,3-1.4,3-3v-4.8
				C419.8,160.2,418.5,158.8,416.8,158.8z"/>
			<path class="st28" d="M422.8,158.8c-1.7,0-3,1.4-3,3v4.8c0,1.7,1.4,3,3,3c1.7,0,3-1.4,3-3v-4.8
				C425.8,160.2,424.5,158.8,422.8,158.8z"/>
		</g>
		<g>
			<path class="st65" d="M358.6,153.4c-1.7,0-3,1.4-3,3v4.8c0,1.7,1.4,3,3,3c1.7,0,3-1.4,3-3v-4.8
				C361.6,154.8,360.3,153.4,358.6,153.4z"/>
			<path class="st65" d="M364.6,153.4c-1.7,0-3,1.4-3,3v4.8c0,1.7,1.4,3,3,3c1.7,0,3-1.4,3-3v-4.8
				C367.7,154.8,366.3,153.4,364.6,153.4z"/>
			<path class="st17" d="M370.7,153.4c-1.7,0-3,1.4-3,3v4.8c0,1.7,1.4,3,3,3c1.7,0,3-1.4,3-3v-4.8
				C373.7,154.8,372.3,153.4,370.7,153.4z"/>
			<path class="st65" d="M376.7,153.4c-1.7,0-3,1.4-3,3v4.8c0,1.7,1.4,3,3,3c1.7,0,3-1.4,3-3v-4.8
				C379.7,154.8,378.4,153.4,376.7,153.4z"/>
			<path class="st17" d="M382.8,153.4c-1.7,0-3,1.4-3,3v4.8c0,1.7,1.4,3,3,3c1.7,0,3-1.4,3-3v-4.8
				C385.8,154.8,384.4,153.4,382.8,153.4z"/>
			<path class="st65" d="M388.8,153.4c-1.7,0-3,1.4-3,3v4.8c0,1.7,1.4,3,3,3c1.7,0,3-1.4,3-3v-4.8
				C391.8,154.8,390.5,153.4,388.8,153.4z"/>
			<path class="st17" d="M394.8,153.4c-1.7,0-3,1.4-3,3v4.8c0,1.7,1.4,3,3,3c1.7,0,3-1.4,3-3v-4.8
				C397.9,154.8,396.5,153.4,394.8,153.4z"/>
			<path class="st17" d="M400.9,153.4c-1.7,0-3,1.4-3,3v4.8c0,1.7,1.4,3,3,3c1.7,0,3-1.4,3-3v-4.8
				C403.9,154.8,402.5,153.4,400.9,153.4z"/>
			<path class="st65" d="M406.9,153.4c-1.7,0-3,1.4-3,3v4.8c0,1.7,1.4,3,3,3c1.7,0,3-1.4,3-3v-4.8
				C409.9,154.8,408.6,153.4,406.9,153.4z"/>
			<path class="st65" d="M412.9,153.4c-1.7,0-3,1.4-3,3v4.8c0,1.7,1.3,3,3,3c1.7,0,3-1.4,3-3v-4.8
				C416,154.8,414.6,153.4,412.9,153.4z"/>
			<path class="st65" d="M419,153.4c-1.7,0-3,1.4-3,3v4.8c0,1.7,1.4,3,3,3c1.7,0,3-1.4,3-3v-4.8C422,154.8,420.7,153.4,419,153.4z"
				/>
		</g>
		<g>
			<path class="st30" d="M362.4,147.9c-1.7,0-3,1.4-3,3v4.8c0,1.7,1.4,3,3,3c1.7,0,3-1.4,3-3V151
				C365.5,149.3,364.1,147.9,362.4,147.9z"/>
			<path class="st28" d="M356.4,147.9c-1.7,0-3,1.4-3,3v4.8c0,1.7,1.4,3,3,3c1.7,0,3-1.4,3-3V151
				C359.4,149.3,358.1,147.9,356.4,147.9z"/>
			<path class="st28" d="M368.5,147.9c-1.7,0-3,1.4-3,3v4.8c0,1.7,1.4,3,3,3c1.7,0,3-1.4,3-3V151
				C371.5,149.3,370.1,147.9,368.5,147.9z"/>
			<path class="st30" d="M374.5,147.9c-1.7,0-3,1.4-3,3v4.8c0,1.7,1.4,3,3,3c1.7,0,3-1.4,3-3V151
				C377.5,149.3,376.2,147.9,374.5,147.9z"/>
			<path class="st28" d="M380.6,147.9c-1.7,0-3,1.4-3,3v4.8c0,1.7,1.4,3,3,3c1.7,0,3-1.4,3-3V151
				C383.6,149.3,382.2,147.9,380.6,147.9z"/>
			<path class="st28" d="M386.6,147.9c-1.7,0-3,1.4-3,3v4.8c0,1.7,1.4,3,3,3c1.7,0,3-1.4,3-3V151
				C389.6,149.3,388.3,147.9,386.6,147.9z"/>
			<path class="st28" d="M392.6,147.9c-1.7,0-3,1.4-3,3v4.8c0,1.7,1.3,3,3,3c1.7,0,3-1.4,3-3V151
				C395.7,149.3,394.3,147.9,392.6,147.9z"/>
			<path class="st28" d="M398.7,147.9c-1.7,0-3,1.4-3,3v4.8c0,1.7,1.4,3,3,3c1.7,0,3-1.4,3-3V151
				C401.7,149.3,400.3,147.9,398.7,147.9z"/>
			<path class="st30" d="M404.7,147.9c-1.7,0-3,1.4-3,3v4.8c0,1.7,1.4,3,3,3c1.7,0,3-1.4,3-3V151
				C407.7,149.3,406.4,147.9,404.7,147.9z"/>
			<path class="st28" d="M410.8,147.9c-1.7,0-3,1.4-3,3v4.8c0,1.7,1.4,3,3,3s3-1.4,3-3V151C413.8,149.3,412.4,147.9,410.8,147.9z"/>
			<path class="st30" d="M416.8,147.9c-1.7,0-3,1.4-3,3v4.8c0,1.7,1.4,3,3,3c1.7,0,3-1.4,3-3V151
				C419.8,149.3,418.5,147.9,416.8,147.9z"/>
			<path class="st30" d="M422.8,147.9c-1.7,0-3,1.4-3,3v4.8c0,1.7,1.4,3,3,3c1.7,0,3-1.4,3-3V151
				C425.8,149.3,424.5,147.9,422.8,147.9z"/>
		</g>
		<g>
			<path class="st65" d="M355.6,150.3c0,1.7,1.4,3,3,3c1.7,0,3-1.4,3-3v-4.6h-6V150.3z"/>
			<path class="st17" d="M361.6,150.3c0,1.7,1.4,3,3,3c1.7,0,3-1.4,3-3v-4.6h-6V150.3z"/>
			<path class="st17" d="M367.7,150.3c0,1.7,1.4,3,3,3c1.7,0,3-1.4,3-3v-4.6h-6V150.3z"/>
			<path class="st65" d="M373.7,150.3c0,1.7,1.4,3,3,3c1.7,0,3-1.4,3-3v-4.6h-6V150.3z"/>
			<path class="st17" d="M379.7,150.3c0,1.7,1.4,3,3,3c1.7,0,3-1.4,3-3v-4.6h-6V150.3z"/>
			<path class="st65" d="M385.8,150.3c0,1.7,1.4,3,3,3c1.7,0,3-1.4,3-3v-4.6h-6V150.3z"/>
			<path class="st65" d="M391.8,150.3c0,1.7,1.4,3,3,3c1.7,0,3-1.4,3-3v-4.6h-6V150.3z"/>
			<path class="st17" d="M397.9,150.3c0,1.7,1.4,3,3,3c1.7,0,3-1.4,3-3v-4.6h-6V150.3z"/>
			<path class="st65" d="M403.9,150.3c0,1.7,1.4,3,3,3c1.7,0,3-1.4,3-3v-4.6h-6V150.3z"/>
			<path class="st17" d="M409.9,150.3c0,1.7,1.3,3,3,3c1.7,0,3-1.4,3-3v-4.6h-6V150.3z"/>
			<path class="st65" d="M416,150.3c0,1.7,1.4,3,3,3c1.7,0,3-1.4,3-3v-4.6h-6V150.3z"/>
		</g>
	</g>
	<rect x="350" y="141.5" class="st69" width="5.6" height="67.4"/>
	<rect x="422" y="141.5" class="st69" width="5.6" height="67.4"/>
	<rect x="425.8" y="141.5" class="st30" width="1.7" height="67.4"/>
	<rect x="350" y="141.5" class="st30" width="1.7" height="67.4"/>
	<g>
		<g>
			<rect x="360.7" y="244.4" class="st13" width="17.5" height="27.7"/>
			<rect x="362.3" y="245.9" class="st20" width="14.3" height="26.2"/>
			<polygon class="st65" points="362.3,272.1 376.6,272.1 376.6,246.5 362.3,271.3 			"/>
		</g>
		<circle class="st13" cx="364.9" cy="261.3" r="1.5"/>
	</g>
	<g>
		<g>
			<rect x="357.2" y="271.6" class="st20" width="24.5" height="4.6"/>
			<rect x="355.5" y="276.2" class="st20" width="27.7" height="4.6"/>
			<rect x="354.2" y="280.8" class="st20" width="30.4" height="4.6"/>
		</g>
		<rect x="357.2" y="274.4" class="st65" width="24.5" height="1.8"/>
		<rect x="355.5" y="279" class="st65" width="27.7" height="1.8"/>
		<rect x="354.2" y="283.6" class="st65" width="30.4" height="1.8"/>
	</g>
	<g>
		<linearGradient id="SVGID_37_" gradientUnits="userSpaceOnUse" x1="388.7632" y1="245.1291" x2="388.7632" y2="239.1985">
			<stop  offset="0" style="stop-color:#FFFFFF"/>
			<stop  offset="0.2833" style="stop-color:#E8E8E8"/>
			<stop  offset="0.8761" style="stop-color:#ACACAC"/>
			<stop  offset="1" style="stop-color:#9F9F9F"/>
		</linearGradient>
		<rect x="355.5" y="234.2" class="st70" width="66.5" height="11.3"/>
		<rect x="354" y="234.2" class="st71" width="69.9" height="6.5"/>
		<rect x="354" y="234.2" class="st72" width="69.9" height="2.3"/>
	</g>
	<g>
		<g>
			<rect x="402.7" y="213.4" class="st13" width="15.4" height="20.8"/>
			<rect x="403.7" y="214.4" class="st20" width="13.3" height="18.7"/>
			<polygon class="st65" points="403.8,233.1 417.1,233.1 417.1,214.4 414.6,214.4 			"/>
			<rect x="409.8" y="214.4" class="st13" width="1.1" height="18.7"/>
			<rect x="403.4" y="223.2" class="st13" width="14" height="1.1"/>
		</g>
		<g>
			<rect x="381.3" y="213.4" class="st13" width="15.4" height="20.8"/>
			<rect x="382.4" y="214.4" class="st20" width="13.3" height="18.7"/>
			<polygon class="st65" points="382.5,233.1 395.7,233.1 395.7,214.4 393.2,214.4 			"/>
			<rect x="388.5" y="214.4" class="st13" width="1.1" height="18.7"/>
			<rect x="382" y="223.2" class="st13" width="14" height="1.1"/>
		</g>
		<g>
			<rect x="402.7" y="244.4" class="st13" width="15.4" height="20.8"/>
			<rect x="403.7" y="245.5" class="st20" width="13.3" height="18.7"/>
			<polygon class="st65" points="403.8,264.1 417.1,264.1 417.1,245.5 414.6,245.5 			"/>
			<rect x="409.8" y="245.5" class="st13" width="1.1" height="18.7"/>
			<rect x="403.4" y="254.2" class="st13" width="14" height="1.1"/>
		</g>
		<g>
			<rect x="381.3" y="244.4" class="st13" width="15.4" height="20.8"/>
			<rect x="382.4" y="245.5" class="st20" width="13.3" height="18.7"/>
			<polygon class="st65" points="382.5,264.1 395.7,264.1 395.7,245.5 393.2,245.5 			"/>
			<rect x="388.5" y="245.5" class="st13" width="1.1" height="18.7"/>
			<rect x="382" y="254.2" class="st13" width="14" height="1.1"/>
		</g>
		<g>
			<rect x="359.9" y="213.4" class="st13" width="15.4" height="20.8"/>
			<rect x="361" y="214.4" class="st20" width="13.3" height="18.7"/>
			<polygon class="st65" points="361.1,233.1 374.3,233.1 374.3,214.4 371.9,214.4 			"/>
			<rect x="367.1" y="214.4" class="st13" width="1.1" height="18.7"/>
			<rect x="360.7" y="223.2" class="st13" width="14" height="1.1"/>
		</g>
	</g>
</g>
<g id="fir_trees">
	<g>
		<g>
			<g>
				<rect x="158.5" y="274.7" class="st43" width="2.9" height="10.7"/>
				<linearGradient id="SVGID_38_" gradientUnits="userSpaceOnUse" x1="159.989" y1="273.7328" x2="159.989" y2="281.3587">
					<stop  offset="0" style="stop-color:#A2A2A2"/>
					<stop  offset="0.9356" style="stop-color:#F9F9F9"/>
					<stop  offset="1" style="stop-color:#FFFFFF"/>
				</linearGradient>
				<rect x="158.5" y="275.1" class="st73" width="2.9" height="6.7"/>
			</g>
			<g>
				<polygon class="st17" points="151,275.8 169,275.8 160,254 				"/>
				<polygon class="st23" points="160,275.8 169,275.8 160,254 				"/>
			</g>
		</g>
	</g>
	<g>
		<g>
			<g>
				<rect x="200.4" y="274.7" class="st43" width="2.9" height="10.7"/>
				<linearGradient id="SVGID_39_" gradientUnits="userSpaceOnUse" x1="201.8447" y1="273.7328" x2="201.8447" y2="281.3587">
					<stop  offset="0" style="stop-color:#A2A2A2"/>
					<stop  offset="0.9356" style="stop-color:#F9F9F9"/>
					<stop  offset="1" style="stop-color:#FFFFFF"/>
				</linearGradient>
				<rect x="200.4" y="275.1" class="st74" width="2.9" height="6.7"/>
			</g>
			<g>
				<polygon class="st17" points="192.8,275.8 210.9,275.8 201.8,254 				"/>
				<polygon class="st23" points="201.8,275.8 210.9,275.8 201.8,254 				"/>
			</g>
		</g>
	</g>
</g>
<g id="trees">
	<g>
		<g>
			<g>
				<rect x="217.3" y="260.9" class="st0" width="4.7" height="24.5"/>
				<linearGradient id="SVGID_40_" gradientUnits="userSpaceOnUse" x1="219.7029" y1="263.3906" x2="219.7029" y2="275.2859">
					<stop  offset="0" style="stop-color:#ADADAD"/>
					<stop  offset="1" style="stop-color:#FFFFFF"/>
				</linearGradient>
				<rect x="217.3" y="261.7" class="st75" width="4.7" height="13.8"/>
			</g>
			<g>
				<g>
					<ellipse class="st15" cx="220" cy="247" rx="16.5" ry="16.6"/>
					<path class="st16" d="M206.3,243.4c0-3.1,0.9-6,2.3-8.4c-3.2,3-5.2,7.3-5.2,12c0,9.1,7.4,16.6,16.5,16.6
						c6.1,0,11.3-3.3,14.2-8.1c-3,2.8-6.9,4.5-11.3,4.5C213.7,260,206.3,252.6,206.3,243.4z"/>
				</g>
				<g>
					<circle class="st15" cx="212.2" cy="259.7" r="5.8"/>
					<path class="st16" d="M207.4,258.4c0-1.1,0.3-2.1,0.8-2.9c-1.1,1.1-1.8,2.5-1.8,4.2c0,3.2,2.6,5.8,5.8,5.8c2.1,0,4-1.1,5-2.8
						c-1,1-2.4,1.6-4,1.6C210,264.2,207.4,261.6,207.4,258.4z"/>
				</g>
				<g>
					<circle class="st15" cx="206" cy="238.5" r="7.2"/>
					<path class="st16" d="M200,236.9c0-1.3,0.4-2.6,1-3.7c-1.4,1.3-2.3,3.2-2.3,5.2c0,4,3.2,7.2,7.2,7.2c2.6,0,4.9-1.4,6.2-3.5
						c-1.3,1.2-3,2-4.9,2C203.3,244.1,200,240.9,200,236.9z"/>
				</g>
			</g>
			<g>
				<circle class="st15" cx="231.7" cy="235" r="3.5"/>
				<path class="st16" d="M228.9,234.2c0-0.7,0.2-1.3,0.5-1.8c-0.7,0.6-1.1,1.5-1.1,2.5c0,1.9,1.6,3.5,3.5,3.5c1.3,0,2.4-0.7,3-1.7
					c-0.6,0.6-1.5,1-2.4,1C230.4,237.7,228.9,236.2,228.9,234.2z"/>
			</g>
			<path class="st4" d="M235.2,235c0-1.9-1.6-3.5-3.5-3.5c-1.2,0-2.3,0.6-2.9,1.6c-2.6-1.6-5.6-2.6-8.9-2.6v33.1
				c9.1,0,16.5-7.4,16.5-16.6c0-3.4-1-6.6-2.8-9.2C234.6,237.2,235.2,236.2,235.2,235z"/>
		</g>
		<g>
			<g>
				<rect x="225.4" y="260.3" class="st0" width="2.3" height="25.1"/>
				<linearGradient id="SVGID_41_" gradientUnits="userSpaceOnUse" x1="226.5013" y1="274.2393" x2="226.5013" y2="280.9038">
					<stop  offset="0" style="stop-color:#ADADAD"/>
					<stop  offset="1" style="stop-color:#FFFFFF"/>
				</linearGradient>
				<rect x="225.4" y="270.8" class="st76" width="2.3" height="10.5"/>
			</g>
			<g>
				<circle class="st15" cx="226.2" cy="261.8" r="10.3"/>
				<path class="st16" d="M217.7,259.5c0-1.9,0.5-3.7,1.5-5.3c-2,1.9-3.2,4.5-3.2,7.5c0,5.7,4.6,10.3,10.3,10.3c3.8,0,7.1-2,8.9-5.1
					c-1.8,1.7-4.3,2.8-7.1,2.8C222.4,269.8,217.7,265.2,217.7,259.5z"/>
			</g>
			<g>
				<circle class="st15" cx="235.1" cy="257" r="4"/>
				<path class="st16" d="M231.8,256.1c0-0.7,0.2-1.4,0.6-2c-0.8,0.7-1.3,1.8-1.3,2.9c0,2.2,1.8,4,4,4c1.5,0,2.7-0.8,3.4-2
					c-0.7,0.7-1.7,1.1-2.7,1.1C233.6,260.1,231.8,258.3,231.8,256.1z"/>
			</g>
			<path class="st4" d="M235.1,253c-0.9,0-1.7,0.3-2.3,0.8c-1.8-1.5-4-2.3-6.5-2.3v20.6c5.7,0,10.3-4.6,10.3-10.3c0-0.3,0-0.7-0.1-1
				c1.5-0.6,2.6-2,2.6-3.7C239.1,254.8,237.3,253,235.1,253z"/>
		</g>
	</g>
	<g>
		<g>
			<rect x="272.5" y="259.3" class="st0" width="3.5" height="26.1"/>
			<linearGradient id="SVGID_42_" gradientUnits="userSpaceOnUse" x1="274.2158" y1="263.5197" x2="274.2158" y2="277.2407">
				<stop  offset="0" style="stop-color:#ADADAD"/>
				<stop  offset="1" style="stop-color:#FFFFFF"/>
			</linearGradient>
			<rect x="272.5" y="266" class="st77" width="3.5" height="12.1"/>
		</g>
		<g>
			<g>
				<circle class="st13" cx="274.4" cy="252.9" r="14.5"/>
				<path class="st15" d="M262.5,249.7c0-2.7,0.8-5.2,2-7.4c-2.8,2.6-4.6,6.4-4.6,10.5c0,8,6.5,14.5,14.5,14.5
					c5.3,0,9.9-2.9,12.4-7.1c-2.6,2.4-6.1,3.9-9.9,3.9C268.9,264.2,262.5,257.7,262.5,249.7z"/>
				<g>
					<path class="st13" d="M267.2,257.4c-3.4,0-6.1,2.8-6.1,6.1c0,3.4,2.8,6.2,6.1,6.2c3.4,0,6.2-2.8,6.2-6.2
						C273.4,260.1,270.6,257.4,267.2,257.4z"/>
					<path class="st15" d="M262.2,262.2c0-1.1,0.3-2.2,0.9-3.1c-1.2,1.1-1.9,2.7-1.9,4.5c0,3.4,2.8,6.2,6.1,6.2c2.3,0,4.2-1.2,5.3-3
						c-1.1,1-2.6,1.7-4.2,1.7C264.9,268.3,262.2,265.6,262.2,262.2z"/>
				</g>
			</g>
			<path class="st4" d="M274.4,238.4v29c8,0,14.5-6.5,14.5-14.5C288.9,244.9,282.4,238.4,274.4,238.4z"/>
		</g>
	</g>
</g>
<g id="road">
	<path class="st78" d="M564.9,286.8c-1.8-1-3.9-1.5-6.1-1.5H34.9c-7.2,0-13.1,5.9-13.1,13.1c0,3.1,1,5.9,2.8,8.1
		c0.2,0.2,0.3,0.4,0.5,0.6c0,0,0,0,0.1,0.1l0.9,0.9c0,0,0.1,0.1,0.1,0.1c2.3,2.1,5.4,3.3,8.7,3.3h139.8c6.1,0,11.1,5,11.1,11.1
		s-5,11.1-11.1,11.1h-63.4c-7.2,0-13.1,5.9-13.1,13.1c0,3.8,1.6,7.2,4.2,9.6c2.3,2.2,5.5,3.5,8.9,3.5h404.2
		c7.2,0,13.1-5.9,13.1-13.1c0-2.4-0.6-4.6-1.7-6.5c-1.1-2-2.8-3.7-4.8-4.8c-1.9-1.1-4.1-1.7-6.5-1.7H388.9c-6.1,0-11.1-5-11.1-11.1
		s5-11.1,11.1-11.1h169.9c7.2,0,13.1-5.9,13.1-13.1c0-2.2-0.6-4.3-1.5-6.1C569.1,289.9,567.2,288,564.9,286.8z"/>
	<g>
		<g>
			<line class="st79" x1="32" y1="297.2" x2="34.8" y2="297.2"/>
			<line class="st80" x1="42.4" y1="297.2" x2="553.7" y2="297.2"/>
			<line class="st79" x1="557.4" y1="297.2" x2="560.3" y2="297.2"/>
		</g>
	</g>
</g>
<g id="car">
	<path class="st17" d="M342,282.1h-21.3c-1.5,0-2.4,1.3-2.7,2.7c-0.8,3.6-2.7,10.3-2.7,10.3c0,1.5,1.2,2.7,2.7,2.7h26.8
		c1.5,0,2.7-1.2,2.7-2.7c0,0-1.7-7.3-2.7-10.3C344.3,283.4,343.5,282.1,342,282.1z"/>
	<path class="st13" d="M342.4,284l-22.2-0.1c-0.1,0-0.2,0.3-0.3,0.7c-0.7,3-2.2,7.8-2.7,9.7h28.3c-0.5-1.8-1.8-7.1-2.7-9.4
		C342.7,284.4,342.5,284.2,342.4,284z"/>
	<rect x="330.5" y="283.1" class="st17" width="1.9" height="13.2"/>
	<path class="st17" d="M348.1,290.9h-43c-1.2,0-2.3,0.7-2.6,1.7h0c-0.1,0.3-0.2,0.7-0.2,1v7.8c0,1.4,1.1,2.6,2.6,2.7
		c0.1,0,0.2,0,0.2,0h43c0.9,0,1.8-0.4,2.3-1.1c0.4-0.5,0.6-1,0.6-1.6v-7.8c0-0.4-0.1-0.7-0.2-1C350.4,291.6,349.3,290.9,348.1,290.9
		z"/>
	<path class="st38" d="M312.3,295.4c-4.1,0-7.6,3.4-7.6,7.6c0,0.4,0,0.8,0.1,1.3c0.1,0,0.2,0,0.2,0h14.6c0.1-0.4,0.1-0.8,0.1-1.3
		C319.9,298.8,316.5,295.4,312.3,295.4z"/>
	<path class="st38" d="M342.9,295.4c-4.2,0-7.6,3.4-7.6,7.6c0,0.4,0,0.9,0.1,1.3h12.7c0.9,0,1.8-0.4,2.3-1.1v-0.2
		C350.4,298.8,347.1,295.4,342.9,295.4z"/>
	<g>
		<circle class="st81" cx="312.3" cy="302.9" r="5.4"/>
		<circle class="st13" cx="312.3" cy="302.9" r="2.9"/>
	</g>
	<g>
		<circle class="st81" cx="342.9" cy="302.9" r="5.4"/>
		<circle class="st13" cx="342.9" cy="302.9" r="2.9"/>
	</g>
	<path class="st13" d="M305.4,292.6h-2.9c-0.1,0.3-0.2,0.7-0.2,1v2.6c0.1,0,0.1,0,0.2,0h2.9c1,0,1.8-0.8,1.8-1.8
		C307.2,293.4,306.4,292.6,305.4,292.6z"/>
	<path class="st13" d="M349.8,292.6c-1,0-1.8,0.8-1.8,1.8c0,1,0.8,1.8,1.8,1.8h1.2v-2.6c0-0.4-0.1-0.7-0.2-1H349.8z"/>
	<path class="st38" d="M328.6,293.4h-1c-0.5,0-1,0.4-1,1c0,0.5,0.4,1,1,1h1c0.5,0,1-0.4,1-1C329.6,293.9,329.2,293.4,328.6,293.4z"
		/>
	<rect x="330.5" y="290.9" class="st26" width="1.9" height="13.3"/>
</g>
</svg>
