<?xml version="1.0" encoding="utf-8"?>
<!-- Generator: Adobe Illustrator 19.2.1, SVG Export Plug-In . SVG Version: 6.00 Build 0)  -->
<svg version="1.1" id="Cityscape" xmlns="http://www.w3.org/2000/svg" xmlns:xlink="http://www.w3.org/1999/xlink" x="0px" y="0px"
	 viewBox="0 0 600 201.7" style="enable-background:new 0 0 600 201.7;" xml:space="preserve">
<style type="text/css">
	.st0{fill:#B0B0B0;}
	.st1{fill:url(#SVGID_1_);}
	.st2{fill:#C2C2C2;}
	.st3{fill:#D3D3D3;}
	.st4{fill:#EDEDED;}
	.st5{fill:url(#SVGID_2_);}
	.st6{fill:url(#SVGID_3_);}
	.st7{fill:#B5B5B5;}
	.st8{fill:#ABABAB;}
	.st9{fill:url(#SVGID_4_);}
	.st10{fill:#C4C4C4;}
	.st11{fill:url(#SVGID_5_);}
	.st12{fill:#CCCCCC;}
	.st13{fill:#D1D1D1;}
	.st14{fill:url(#SVGID_6_);}
	.st15{fill:#D6D6D6;}
	.st16{fill:#E0E0E0;}
	.st17{fill:#A6A6A6;}
	.st18{fill:url(#SVGID_7_);}
	.st19{fill:#B2B2B2;}
	.st20{fill:#BDBDBD;}
	.st21{fill:#DEDEDE;}
	.st22{fill:#BCBCBC;}
	.st23{fill:#949494;}
	.st24{fill:#ADADAD;}
	.st25{fill:url(#SVGID_8_);}
	.st26{fill:#9E9E9E;}
	.st27{fill:url(#SVGID_9_);}
	.st28{fill:#A1A1A1;}
	.st29{fill:url(#SVGID_10_);}
	.st30{fill:#9C9C9C;}
	.st31{fill:url(#SVGID_11_);}
	.st32{fill:url(#SVGID_12_);}
	.st33{fill:url(#SVGID_13_);}
	.st34{fill:url(#SVGID_14_);}
	.st35{fill:#BABABA;}
	.st36{fill:#8C8C8C;}
	.st37{fill:url(#SVGID_15_);}
	.st38{fill:#919191;}
	.st39{fill:#B7B7B7;}
	.st40{fill:#AFAFAF;}
	.st41{fill:#C6C6C6;}
	.st42{clip-path:url(#SVGID_17_);}
	.st43{fill:#A5A5A5;}
	.st44{fill:#D8D8D8;}
	.st45{fill:url(#SVGID_18_);}
	.st46{fill:url(#SVGID_19_);}
	.st47{fill:url(#SVGID_20_);}
	.st48{fill:url(#SVGID_21_);}
	.st49{fill:#D7D7D7;}
	.st50{fill:#CFCFCF;}
	.st51{fill:url(#SVGID_22_);}
	.st52{fill:url(#SVGID_23_);}
	.st53{fill:url(#SVGID_24_);}
	.st54{fill:url(#SVGID_25_);}
	.st55{fill:url(#SVGID_26_);}
	.st56{fill:url(#SVGID_27_);}
	.st57{fill:url(#SVGID_28_);}
	.st58{fill:url(#SVGID_29_);}
	.st59{fill:url(#SVGID_30_);}
	.st60{fill:#D9D9D9;}
	.st61{fill:url(#SVGID_31_);}
	.st62{fill:url(#SVGID_32_);}
	.st63{fill:#C9C9C9;}
	.st64{fill:url(#SVGID_33_);}
	.st65{fill:#B1B1B1;}
	.st66{fill:url(#SVGID_34_);}
	.st67{fill:url(#SVGID_35_);}
	.st68{fill:url(#SVGID_36_);}
	.st69{fill:#8F8F8F;}
	.st70{fill:url(#SVGID_37_);}
	.st71{fill:#929292;}
	.st72{fill:#9F9F9F;}
	.st73{fill:url(#SVGID_38_);}
	.st74{fill:url(#SVGID_39_);}
	.st75{fill:url(#SVGID_40_);}
	.st76{fill:url(#SVGID_41_);}
	.st77{fill:url(#SVGID_42_);}
</style>
<g id="trees_1_">
	<g>
		<g>
			<rect x="533.5" y="164" class="st0" width="4.7" height="29.6"/>
			<linearGradient id="SVGID_1_" gradientUnits="userSpaceOnUse" x1="535.812" y1="165.0635" x2="535.812" y2="176.96">
				<stop  offset="0" style="stop-color:#ADADAD"/>
				<stop  offset="1" style="stop-color:#FFFFFF"/>
			</linearGradient>
			<rect x="533.5" y="163.4" class="st1" width="4.7" height="13.8"/>
		</g>
		<g>
			<g>
				<ellipse class="st2" cx="536.1" cy="148.7" rx="16.5" ry="16.6"/>
				<path class="st3" d="M522.4,145.1c0-3.1,0.9-6,2.3-8.4c-3.2,3-5.2,7.3-5.2,12c0,9.1,7.4,16.6,16.5,16.6c6.1,0,11.3-3.3,14.2-8.1
					c-3,2.8-6.9,4.5-11.3,4.5C529.8,161.7,522.4,154.3,522.4,145.1z"/>
			</g>
			<g>
				<circle class="st2" cx="528.3" cy="161.3" r="5.8"/>
				<path class="st3" d="M523.5,160.1c0-1.1,0.3-2.1,0.8-2.9c-1.1,1.1-1.8,2.5-1.8,4.2c0,3.2,2.6,5.8,5.8,5.8c2.1,0,4-1.1,5-2.8
					c-1,1-2.4,1.6-4,1.6C526.1,165.9,523.5,163.3,523.5,160.1z"/>
			</g>
			<g>
				<ellipse class="st2" cx="527.9" cy="134.8" rx="7.2" ry="7.2"/>
				<path class="st3" d="M521.9,133.2c0-1.3,0.4-2.6,1-3.7c-1.4,1.3-2.3,3.2-2.3,5.2c0,4,3.2,7.2,7.2,7.2c2.6,0,4.9-1.4,6.2-3.5
					c-1.3,1.2-3,2-4.9,2C525.1,140.4,521.9,137.2,521.9,133.2z"/>
			</g>
		</g>
		<g>
			<ellipse class="st2" cx="547.9" cy="136.7" rx="3.5" ry="3.5"/>
			<path class="st3" d="M545,135.9c0-0.7,0.2-1.3,0.5-1.8c-0.7,0.6-1.1,1.5-1.1,2.5c0,1.9,1.6,3.5,3.5,3.5c1.3,0,2.4-0.7,3-1.7
				c-0.6,0.6-1.5,1-2.4,1C546.5,139.4,545,137.9,545,135.9z"/>
		</g>
		<path class="st4" d="M551.3,136.7c0-1.9-1.6-3.5-3.5-3.5c-1.2,0-2.3,0.6-2.9,1.6c-2.6-1.6-5.6-2.6-8.9-2.6v33.1
			c9.1,0,16.5-7.4,16.5-16.6c0-3.4-1-6.6-2.8-9.2C550.8,138.9,551.3,137.9,551.3,136.7z"/>
	</g>
	<g>
		<g>
			<rect x="545.6" y="167.2" class="st0" width="2.4" height="26.4"/>
			<linearGradient id="SVGID_2_" gradientUnits="userSpaceOnUse" x1="546.7642" y1="175.4149" x2="546.7642" y2="180.9064">
				<stop  offset="0" style="stop-color:#ADADAD"/>
				<stop  offset="1" style="stop-color:#FFFFFF"/>
			</linearGradient>
			<rect x="545.6" y="172.6" class="st5" width="2.4" height="8.6"/>
		</g>
		<g>
			<circle class="st2" cx="546.5" cy="162.4" r="11"/>
			<path class="st3" d="M537.4,160c0-2,0.6-3.9,1.5-5.6c-2.1,2-3.5,4.8-3.5,8c0,6.1,4.9,11,11,11c4,0,7.5-2.2,9.4-5.4
				c-2,1.9-4.6,3-7.5,3C542.4,171,537.4,166.1,537.4,160z"/>
		</g>
		<g>
			<circle class="st2" cx="555.9" cy="157.4" r="4.3"/>
			<path class="st3" d="M552.4,156.4c0-0.8,0.2-1.5,0.6-2.2c-0.8,0.8-1.3,1.9-1.3,3.1c0,2.3,1.9,4.3,4.3,4.3c1.6,0,2.9-0.8,3.7-2.1
				c-0.8,0.7-1.8,1.2-2.9,1.2C554.3,160.7,552.4,158.8,552.4,156.4z"/>
		</g>
		<path class="st4" d="M555.9,153.1c-0.9,0-1.8,0.3-2.5,0.8c-1.9-1.5-4.3-2.5-6.9-2.5v21.9c6.1,0,11-4.9,11-11c0-0.4,0-0.7-0.1-1.1
			c1.6-0.6,2.8-2.1,2.8-4C560.2,155,558.3,153.1,555.9,153.1z"/>
	</g>
</g>
<g id="fir_tres">
	<g>
		<g>
			<rect x="37.6" y="185.4" class="st0" width="3.2" height="16.3"/>
			<linearGradient id="SVGID_3_" gradientUnits="userSpaceOnUse" x1="39.1997" y1="184.716" x2="39.1997" y2="192.2379">
				<stop  offset="0" style="stop-color:#ADADAD"/>
				<stop  offset="1" style="stop-color:#FFFFFF"/>
			</linearGradient>
			<rect x="37.6" y="186.1" class="st6" width="3.2" height="6.7"/>
		</g>
		<g>
			<polygon class="st7" points="26.4,187.1 52,187.1 39.2,153.9 			"/>
			<polygon class="st8" points="39.2,187.1 52,187.1 39.2,153.9 			"/>
		</g>
	</g>
	<g>
		<g>
			<rect x="53.9" y="176.8" class="st0" width="4.8" height="25"/>
			<linearGradient id="SVGID_4_" gradientUnits="userSpaceOnUse" x1="56.3396" y1="175.6777" x2="56.3396" y2="187.1966">
				<stop  offset="0" style="stop-color:#ADADAD"/>
				<stop  offset="1" style="stop-color:#FFFFFF"/>
			</linearGradient>
			<rect x="53.9" y="177.8" class="st9" width="4.8" height="10.2"/>
		</g>
		<g>
			<polygon class="st10" points="37.1,179.3 75.6,179.3 56.3,128.5 			"/>
			<polygon class="st7" points="56.3,179.3 75.6,179.3 56.3,128.5 			"/>
		</g>
	</g>
</g>
<g id="background_trees">
	<g>
		<g>
			<rect x="96.8" y="131.5" class="st0" width="3.4" height="14.3"/>
			<linearGradient id="SVGID_5_" gradientUnits="userSpaceOnUse" x1="98.5156" y1="130.65" x2="98.5156" y2="138.1853">
				<stop  offset="0" style="stop-color:#ADADAD"/>
				<stop  offset="1" style="stop-color:#FFFFFF"/>
			</linearGradient>
			<rect x="96.8" y="132" class="st11" width="3.4" height="6.7"/>
		</g>
		<g>
			<g>
				<circle class="st12" cx="98.7" cy="119.6" r="13.8"/>
				<path class="st13" d="M87.3,116.6c0-2.6,0.7-5,1.9-7c-2.7,2.5-4.3,6.1-4.3,10c0,7.6,6.2,13.8,13.8,13.8c5,0,9.4-2.7,11.8-6.8
					c-2.5,2.3-5.8,3.8-9.4,3.8C93.5,130.4,87.3,124.2,87.3,116.6z"/>
				<g>
					<ellipse class="st12" cx="91.7" cy="129.8" rx="5.9" ry="5.9"/>
					<path class="st13" d="M86.8,128.5c0-1.1,0.3-2.1,0.8-3c-1.1,1.1-1.9,2.6-1.9,4.3c0,3.3,2.6,5.9,5.9,5.9c2.2,0,4-1.2,5.1-2.9
						c-1.1,1-2.5,1.6-4,1.6C89.5,134.4,86.8,131.7,86.8,128.5z"/>
				</g>
			</g>
			<path class="st4" d="M98.7,105.9v27.5c7.6,0,13.8-6.2,13.8-13.8C112.5,112,106.3,105.9,98.7,105.9z"/>
		</g>
		<g>
			<circle class="st12" cx="88.8" cy="110.5" r="4.4"/>
			<path class="st13" d="M85.1,109.5c0-0.8,0.2-1.6,0.6-2.3c-0.9,0.8-1.4,2-1.4,3.2c0,2.5,2,4.4,4.4,4.4c1.6,0,3-0.9,3.8-2.2
				c-0.8,0.7-1.9,1.2-3,1.2C87.1,113.9,85.1,112,85.1,109.5z"/>
		</g>
	</g>
	<g>
		<g>
			<g>
				<rect x="108.3" y="110.7" class="st0" width="6.8" height="35.1"/>
				<linearGradient id="SVGID_6_" gradientUnits="userSpaceOnUse" x1="111.6455" y1="108.5657" x2="111.6455" y2="127.0561">
					<stop  offset="0" style="stop-color:#ADADAD"/>
					<stop  offset="1" style="stop-color:#FFFFFF"/>
				</linearGradient>
				<rect x="108.3" y="111.9" class="st14" width="6.8" height="16.4"/>
			</g>
			<g>
				<g>
					<ellipse class="st15" cx="112" cy="90.9" rx="23.7" ry="23.7"/>
					<path class="st16" d="M92.4,85.7c0-4.4,1.2-8.5,3.3-12.1c-4.6,4.3-7.5,10.4-7.5,17.3c0,13.1,10.6,23.7,23.7,23.7
						c8.7,0,16.3-4.7,20.4-11.6c-4.2,4-10,6.5-16.2,6.5C103.1,109.4,92.4,98.8,92.4,85.7z"/>
				</g>
				<g>
					<circle class="st15" cx="100.8" cy="109" r="8.3"/>
					<path class="st16" d="M94,107.1c0-1.5,0.4-3,1.2-4.2c-1.6,1.5-2.6,3.7-2.6,6c0,4.6,3.7,8.3,8.3,8.3c3,0,5.7-1.6,7.1-4.1
						c-1.5,1.4-3.5,2.3-5.7,2.3C97.7,115.4,94,111.7,94,107.1z"/>
				</g>
				<g>
					<circle class="st15" cx="92" cy="78.6" r="10.3"/>
					<path class="st16" d="M83.5,76.4c0-1.9,0.5-3.7,1.4-5.3c-2,1.9-3.2,4.5-3.2,7.5c0,5.7,4.6,10.3,10.3,10.3c3.8,0,7.1-2,8.9-5.1
						c-1.8,1.7-4.3,2.8-7.1,2.8C88.1,86.7,83.5,82.1,83.5,76.4z"/>
				</g>
			</g>
			<g>
				<ellipse class="st15" cx="128.9" cy="73.6" rx="5" ry="5"/>
				<path class="st16" d="M124.8,72.5c0-0.9,0.3-1.8,0.7-2.6c-1,0.9-1.6,2.2-1.6,3.6c0,2.8,2.2,5,5,5c1.8,0,3.4-1,4.3-2.5
					c-0.9,0.8-2.1,1.4-3.4,1.4C127,77.5,124.8,75.3,124.8,72.5z"/>
			</g>
			<path class="st4" d="M133.9,73.6c0-2.8-2.2-5-5-5c-1.7,0-3.3,0.9-4.2,2.2c-3.7-2.3-8-3.7-12.7-3.7v47.5
				c13.1,0,23.7-10.6,23.7-23.7c0-4.9-1.5-9.4-4-13.2C133.1,76.8,133.9,75.3,133.9,73.6z"/>
		</g>
	</g>
	<g>
		<g>
			<rect x="134.4" y="132" class="st17" width="4.7" height="20"/>
			<linearGradient id="SVGID_7_" gradientUnits="userSpaceOnUse" x1="136.7458" y1="130.7406" x2="136.7458" y2="141.2786">
				<stop  offset="0" style="stop-color:#A3A3A3"/>
				<stop  offset="0.9455" style="stop-color:#FAFAFA"/>
				<stop  offset="1" style="stop-color:#FFFFFF"/>
			</linearGradient>
			<rect x="134.4" y="132.7" class="st18" width="4.7" height="9.3"/>
		</g>
		<g>
			<g>
				<circle class="st19" cx="137" cy="115.3" r="19.3"/>
				<path class="st20" d="M121.1,111.1c0-3.6,1-6.9,2.7-9.8c-3.7,3.5-6.1,8.5-6.1,14c0,10.6,8.6,19.3,19.3,19.3
					c7,0,13.2-3.8,16.6-9.4c-3.4,3.2-8.1,5.3-13.2,5.3C129.7,130.4,121.1,121.8,121.1,111.1z"/>
				<g>
					<path class="st19" d="M127.5,121.3c-4.5,0-8.2,3.7-8.2,8.2c0,4.5,3.7,8.2,8.2,8.2c4.5,0,8.2-3.7,8.2-8.2
						C135.7,125,132,121.3,127.5,121.3z"/>
					<path class="st20" d="M120.7,127.7c0-1.5,0.4-2.9,1.2-4.2c-1.6,1.5-2.6,3.6-2.6,5.9c0,4.5,3.7,8.2,8.2,8.2c3,0,5.6-1.6,7-4
						c-1.5,1.4-3.4,2.2-5.6,2.2C124.4,135.9,120.7,132.2,120.7,127.7z"/>
				</g>
			</g>
			<path class="st21" d="M137,96.1v38.5c10.6,0,19.3-8.6,19.3-19.3C156.3,104.7,147.7,96.1,137,96.1z"/>
		</g>
	</g>
</g>
<g id="grocery_store">
	<g>
		<rect x="60.7" y="189.5" class="st22" width="24.5" height="4.1"/>
		<rect x="56.1" y="193.6" class="st22" width="27.7" height="4.1"/>
		<rect x="51.8" y="197.6" class="st22" width="30.4" height="4.1"/>
		<rect x="60.7" y="191.9" class="st8" width="24.5" height="1.6"/>
		<rect x="56.1" y="196" class="st8" width="27.7" height="1.6"/>
		<rect x="51.8" y="200.1" class="st8" width="30.4" height="1.6"/>
	</g>
	<rect x="68.1" y="139.8" class="st23" width="81.3" height="59.1"/>
	<rect x="74.2" y="177.1" class="st24" width="7.8" height="3.6"/>
	<g>
		<rect x="70" y="172.9" class="st24" width="7.8" height="3.6"/>
	</g>
	<rect x="138" y="169.6" class="st24" width="7.8" height="3.6"/>
	<g>
		<rect x="140" y="181.6" class="st24" width="7.7" height="3.6"/>
	</g>
	<linearGradient id="SVGID_8_" gradientUnits="userSpaceOnUse" x1="108.7649" y1="187.2965" x2="108.7649" y2="201.6637">
		<stop  offset="0" style="stop-color:#FFFFFF"/>
		<stop  offset="0.3703" style="stop-color:#DEDEDE"/>
		<stop  offset="1" style="stop-color:#9E9E9E"/>
	</linearGradient>
	<rect x="68.1" y="186.7" class="st25" width="81.3" height="12.2"/>
	<rect x="68.1" y="193.7" class="st0" width="84.1" height="8"/>
	<rect x="80.3" y="165.3" class="st13" width="57" height="24.1"/>
	<g>
		<rect x="100" y="166.8" class="st19" width="18.2" height="21.2"/>
		<rect x="119.8" y="166.8" class="st19" width="16" height="21.2"/>
		<rect x="81.7" y="166.8" class="st19" width="16.6" height="21.2"/>
		<rect x="98.4" y="166.8" class="st13" width="1.6" height="21.2"/>
		<rect x="118.2" y="166.8" class="st13" width="1.6" height="21.2"/>
	</g>
	<polygon class="st26" points="128.8,172.5 119.8,187.9 120.2,187.9 135.8,187.9 135.8,166.8 132.1,166.8 	"/>
	<polygon class="st26" points="109.4,171.7 100,187.9 100,187.9 118.2,187.9 118.2,166.8 112.2,166.8 	"/>
	<polygon class="st26" points="81.8,187.9 98.4,187.9 98.4,166.8 94.1,166.8 	"/>
	<linearGradient id="SVGID_9_" gradientUnits="userSpaceOnUse" x1="108.7649" y1="159.6565" x2="108.7649" y2="166.6754">
		<stop  offset="0" style="stop-color:#9E9E9E"/>
		<stop  offset="0.6297" style="stop-color:#DEDEDE"/>
		<stop  offset="1" style="stop-color:#FFFFFF"/>
	</linearGradient>
	<path class="st27" d="M133.9,143.6h-10h-10h-10h-10h-10h-10h-5.5v24.2c0.2,0,0.3,0,0.5,0c2.8,0,5-2.2,5-5c0,2.8,2.2,5,5,5
		c2.8,0,5-2.2,5-5c0,2.8,2.2,5,5,5c2.8,0,5-2.2,5-5c0,2.8,2.2,5,5,5c2.8,0,5-2.2,5-5c0,2.8,2.2,5,5,5c2.8,0,5-2.2,5-5
		c0,2.8,2.2,5,5,5c2.8,0,5-2.2,5-5c0,2.8,2.2,5,5,5c2.8,0,5-2.2,5-5c0,2.8,2.2,5,5,5c2.8,0,5-2.2,5-5c0,2.8,2.2,5,5,5
		c0.2,0,0.3,0,0.5,0v-24.2h-5.5H133.9z"/>
	<g>
		<path class="st15" d="M63.6,158.5c0,2.8,2.3,5,5,5c2.8,0,5-2.2,5-5v-19.2h-10V158.5z"/>
		<path class="st13" d="M73.6,158.5c0,2.8,2.2,5,5,5c2.8,0,5-2.2,5-5v-19.2h-10V158.5z"/>
		<path class="st13" d="M83.7,158.5c0,2.8,2.2,5,5,5c2.8,0,5-2.2,5-5v-19.2h-10V158.5z"/>
		<path class="st13" d="M93.7,158.5c0,2.8,2.2,5,5,5c2.8,0,5-2.2,5-5v-19.2h-10V158.5z"/>
		<path class="st13" d="M103.7,158.5c0,2.8,2.2,5,5,5c2.8,0,5-2.2,5-5v-19.2h-10V158.5z"/>
		<path class="st13" d="M113.8,158.5c0,2.8,2.2,5,5,5c2.8,0,5-2.2,5-5v-19.2h-10V158.5z"/>
		<path class="st13" d="M123.8,158.5c0,2.8,2.2,5,5,5c2.8,0,5-2.2,5-5v-19.2h-10V158.5z"/>
		<path class="st13" d="M133.9,158.5c0,2.8,2.2,5,5,5c2.8,0,5-2.2,5-5v-19.2h-10V158.5z"/>
		<path class="st0" d="M73.6,158.5c0,2.8,2.2,5,5,5c2.8,0,5-2.2,5-5v-19.2h-10V158.5z"/>
		<path class="st15" d="M83.7,158.5c0,2.8,2.2,5,5,5c2.8,0,5-2.2,5-5v-19.2h-10V158.5z"/>
		<path class="st0" d="M93.7,158.5c0,2.8,2.2,5,5,5c2.8,0,5-2.2,5-5v-19.2h-10V158.5z"/>
		<path class="st15" d="M103.7,158.5c0,2.8,2.2,5,5,5c2.8,0,5-2.2,5-5v-19.2h-10V158.5z"/>
		<path class="st0" d="M113.8,158.5c0,2.8,2.2,5,5,5c2.8,0,5-2.2,5-5v-19.2h-10V158.5z"/>
		<path class="st15" d="M123.8,158.5c0,2.8,2.2,5,5,5c2.8,0,5-2.2,5-5v-19.2h-10V158.5z"/>
		<path class="st0" d="M133.9,158.5c0,2.8,2.2,5,5,5c2.8,0,5-2.2,5-5v-19.2h-10V158.5z"/>
		<path class="st15" d="M143.9,158.5c0,2.8,2.2,5,5,5c2.8,0,5-2.2,5-5v-19.2h-10V158.5z"/>
	</g>
</g>
<g id="background_trees_1_">
	<g>
		<g>
			<rect x="226.3" y="137.9" class="st28" width="4" height="16.7"/>
			<linearGradient id="SVGID_10_" gradientUnits="userSpaceOnUse" x1="228.2864" y1="136.4978" x2="228.2864" y2="144.1158">
				<stop  offset="0" style="stop-color:#9E9E9E"/>
				<stop  offset="0.8982" style="stop-color:#F5F5F5"/>
				<stop  offset="1" style="stop-color:#FFFFFF"/>
			</linearGradient>
			<rect x="226.3" y="137.9" class="st29" width="4" height="6.7"/>
		</g>
		<g>
			<g>
				<circle class="st23" cx="228.3" cy="125.9" r="13.2"/>
				<path class="st30" d="M217.4,123c0-2.5,0.7-4.8,1.9-6.7c-2.6,2.4-4.2,5.8-4.2,9.6c0,7.3,5.9,13.2,13.2,13.2
					c4.8,0,9-2.6,11.3-6.5c-2.4,2.2-5.5,3.6-9,3.6C223.3,136.2,217.4,130.3,217.4,123z"/>
			</g>
		</g>
		<g>
			<circle class="st23" cx="220" cy="136" r="5.1"/>
			<path class="st30" d="M215.8,134.9c0-0.9,0.3-1.8,0.7-2.6c-1,0.9-1.6,2.2-1.6,3.7c0,2.8,2.3,5.1,5.1,5.1c1.9,0,3.5-1,4.4-2.5
				c-0.9,0.9-2.1,1.4-3.5,1.4C218.1,140,215.8,137.7,215.8,134.9z"/>
		</g>
		<g>
			<circle class="st23" cx="225.4" cy="112.1" r="4.5"/>
			<path class="st30" d="M221.7,111.1c0-0.8,0.2-1.6,0.6-2.3c-0.9,0.8-1.4,2-1.4,3.3c0,2.5,2,4.5,4.5,4.5c1.6,0,3.1-0.9,3.9-2.2
				c-0.8,0.8-1.9,1.2-3.1,1.2C223.7,115.6,221.7,113.6,221.7,111.1z"/>
		</g>
	</g>
	<g>
		<g>
			<rect x="276.8" y="147.4" class="st28" width="3.1" height="13.1"/>
			<linearGradient id="SVGID_11_" gradientUnits="userSpaceOnUse" x1="278.3772" y1="146.6259" x2="278.3772" y2="153.5477">
				<stop  offset="0" style="stop-color:#9E9E9E"/>
				<stop  offset="0.8982" style="stop-color:#F5F5F5"/>
				<stop  offset="1" style="stop-color:#FFFFFF"/>
			</linearGradient>
			<rect x="276.8" y="147.9" class="st31" width="3.1" height="6.1"/>
		</g>
		<g>
			<g>
				<circle class="st23" cx="278.4" cy="138" r="10.4"/>
				<path class="st30" d="M269.8,135.7c0-1.9,0.5-3.7,1.5-5.3c-2,1.9-3.3,4.6-3.3,7.6c0,5.7,4.6,10.4,10.4,10.4c3.8,0,7.1-2,8.9-5.1
					c-1.9,1.8-4.4,2.8-7.1,2.8C274.5,146.1,269.8,141.4,269.8,135.7z"/>
			</g>
		</g>
		<g>
			<circle class="st23" cx="273" cy="128.9" r="4.2"/>
			<path class="st30" d="M269.6,128c0-0.8,0.2-1.5,0.6-2.1c-0.8,0.8-1.3,1.8-1.3,3c0,2.3,1.9,4.2,4.2,4.2c1.5,0,2.9-0.8,3.6-2
				c-0.7,0.7-1.8,1.1-2.9,1.1C271.4,132.2,269.6,130.3,269.6,128z"/>
		</g>
	</g>
</g>
<g id="clock_tower">
	<g>
		<rect x="230.1" y="46.2" class="st17" width="36.9" height="147.7"/>
		<linearGradient id="SVGID_12_" gradientUnits="userSpaceOnUse" x1="248.5989" y1="58.7202" x2="248.5989" y2="39.8509">
			<stop  offset="0" style="stop-color:#FFFFFF"/>
			<stop  offset="0.3092" style="stop-color:#E8E8E8"/>
			<stop  offset="0.9564" style="stop-color:#ACACAC"/>
			<stop  offset="1" style="stop-color:#A8A8A8"/>
		</linearGradient>
		<rect x="230.1" y="46.2" class="st32" width="36.9" height="13.5"/>
		<linearGradient id="SVGID_13_" gradientUnits="userSpaceOnUse" x1="248.5989" y1="49.1779" x2="248.5989" y2="52.8896">
			<stop  offset="0" style="stop-color:#A8A8A8"/>
			<stop  offset="4.356390e-02" style="stop-color:#ACACAC"/>
			<stop  offset="0.6908" style="stop-color:#E8E8E8"/>
			<stop  offset="1" style="stop-color:#FFFFFF"/>
		</linearGradient>
		<path class="st33" d="M230.1,53.3c0.1,0,0.2,0,0.4,0c1.7,0,3-1.4,3-3c0,1.7,1.4,3,3,3c1.7,0,3-1.4,3-3c0,1.7,1.4,3,3,3
			c1.7,0,3-1.4,3-3c0,1.7,1.4,3,3,3c1.7,0,3-1.4,3-3c0,1.7,1.4,3,3,3c1.7,0,3-1.4,3-3c0,1.7,1.4,3,3,3c1.7,0,3-1.4,3-3
			c0,1.7,1.3,3,3,3c0.1,0,0.2,0,0.3,0v-8h-36.9V53.3z"/>
		<g>
			<g>
				<rect x="234.8" y="106.6" class="st19" width="7.8" height="3.6"/>
				<g>
					<rect x="239" y="110.9" class="st19" width="7.8" height="3.6"/>
					<rect x="230.6" y="110.9" class="st19" width="7.8" height="3.6"/>
				</g>
			</g>
			<rect x="234.8" y="154.8" class="st19" width="7.8" height="3.6"/>
			<g>
				<rect x="230.6" y="150.5" class="st19" width="7.8" height="3.6"/>
				<rect x="239" y="150.5" class="st19" width="7.8" height="3.6"/>
			</g>
			<rect x="232.4" y="174.2" class="st19" width="7.8" height="3.6"/>
			<rect x="236.6" y="178.4" class="st19" width="7.8" height="3.6"/>
			<rect x="253.1" y="178.4" class="st19" width="7.8" height="3.6"/>
			<rect x="255.7" y="126" class="st19" width="7.8" height="3.6"/>
			<rect x="243.5" y="133.9" class="st19" width="7.7" height="3.6"/>
			<rect x="230.9" y="129.7" class="st19" width="7.8" height="3.6"/>
			<rect x="247.4" y="126" class="st19" width="7.7" height="3.6"/>
			<g>
				<rect x="254.6" y="75.3" class="st19" width="7.7" height="3.6"/>
				<g>
					<rect x="258.8" y="71" class="st19" width="7.8" height="3.6"/>
				</g>
				<g>
					<rect x="258.8" y="61.7" class="st19" width="7.8" height="3.6"/>
				</g>
			</g>
			<g>
				<rect x="234.8" y="61.7" class="st19" width="7.7" height="3.6"/>
				<g>
					<rect x="230.6" y="57.4" class="st19" width="7.7" height="3.6"/>
				</g>
			</g>
			<g>
				<rect x="258.9" y="150.8" class="st19" width="7.8" height="3.6"/>
				<g>
					<rect x="254.7" y="146.5" class="st19" width="7.7" height="3.6"/>
				</g>
			</g>
		</g>
		<linearGradient id="SVGID_14_" gradientUnits="userSpaceOnUse" x1="248.5989" y1="203.5595" x2="248.5989" y2="175.6707">
			<stop  offset="0" style="stop-color:#A8A8A8"/>
			<stop  offset="1" style="stop-color:#FFFFFF"/>
		</linearGradient>
		<rect x="230.1" y="175.3" class="st34" width="36.9" height="18.6"/>
		<rect x="227.7" y="193.7" class="st35" width="41.9" height="8"/>
		<g>
			<circle class="st13" cx="248.6" cy="94.9" r="15.3"/>
			<path class="st21" d="M248.6,79.7c-8.4,0-15.3,6.8-15.3,15.3c0,8.4,6.8,15.3,15.3,15.3c8.4,0,15.3-6.8,15.3-15.3
				C263.9,86.5,257,79.7,248.6,79.7z M249.6,107.9c-6.4,0-11.6-5.2-11.6-11.6c0-6.4,5.2-11.6,11.6-11.6s11.6,5.2,11.6,11.6
				C261.2,102.7,256,107.9,249.6,107.9z"/>
			<path class="st36" d="M248.6,79.3c-8.6,0-15.6,7-15.6,15.6c0,8.6,7,15.6,15.6,15.6c8.6,0,15.6-7,15.6-15.6
				C264.2,86.3,257.2,79.3,248.6,79.3z M248.6,108c-7.2,0-13.1-5.9-13.1-13.1c0-7.2,5.9-13.1,13.1-13.1c7.2,0,13.1,5.9,13.1,13.1
				C261.7,102.2,255.8,108,248.6,108z"/>
			<g>
				<rect x="248.2" y="82.9" class="st23" width="0.7" height="4.2"/>
				<rect x="248.2" y="102.8" class="st23" width="0.7" height="4.2"/>
			</g>
			<polygon class="st36" points="248,95.4 249.2,94.5 243.7,87.7 			"/>
			<polygon class="st36" points="248.9,95.6 257,87 248.3,95 			"/>
			<g>
				<rect x="236.6" y="94.6" class="st23" width="4.2" height="0.7"/>
				<rect x="256.4" y="94.6" class="st23" width="4.2" height="0.7"/>
			</g>
			<circle class="st23" cx="248.6" cy="94.9" r="0.9"/>
			<circle class="st36" cx="248.6" cy="94.9" r="0.5"/>
		</g>
		<g>
			<linearGradient id="SVGID_15_" gradientUnits="userSpaceOnUse" x1="248.5989" y1="125.6665" x2="248.5989" y2="119.7356">
				<stop  offset="0" style="stop-color:#FFFFFF"/>
				<stop  offset="0.3092" style="stop-color:#E8E8E8"/>
				<stop  offset="0.9564" style="stop-color:#ACACAC"/>
				<stop  offset="1" style="stop-color:#A8A8A8"/>
			</linearGradient>
			<rect x="230.1" y="114.7" class="st37" width="36.9" height="11.3"/>
			<rect x="229" y="114.7" class="st38" width="39.3" height="6.5"/>
			<rect x="229" y="114.7" class="st26" width="39.3" height="2.3"/>
		</g>
		<g>
			<path class="st36" d="M248.6,55.1c-4,0-7.3,3.3-7.3,7.3v12.3h14.6V62.4C255.9,58.4,252.6,55.1,248.6,55.1z"/>
			<path class="st12" d="M248.6,56.4c-3.3,0-6,2.7-6,6v11h12v-11C254.6,59.1,251.9,56.4,248.6,56.4z"/>
			<path class="st39" d="M251.9,57.4l-9.2,16h12v-11C254.6,60.3,253.5,58.5,251.9,57.4z"/>
		</g>
		<g>
			<path class="st36" d="M248.6,166.3c-4.6,0-8.3,3.7-8.3,8.3v14.5h16.6v-14.5C256.9,170,253.2,166.3,248.6,166.3z"/>
			<path class="st36" d="M248.6,167.8c-3.8,0-6.8,3.1-6.8,6.8v14.5h13.7v-14.5C255.4,170.8,252.4,167.8,248.6,167.8z"/>
			<g>
				<path class="st40" d="M251.7,168.6v20.4h3.7v-14.3C255.4,172,253.9,169.7,251.7,168.6z"/>
				<path class="st40" d="M245.8,168.4v20.6h5.5v-20.6c-0.8-0.4-1.8-0.6-2.8-0.6C247.6,167.8,246.7,168,245.8,168.4z"/>
				<path class="st40" d="M241.8,174.6v14.3h3.7v-20.4C243.3,169.7,241.8,172,241.8,174.6z"/>
			</g>
			<circle class="st36" cx="244" cy="181.9" r="1"/>
			<path class="st3" d="M242.2,189.1h13.2v-14.5c0-2-0.9-3.8-2.2-5L242.2,189.1z"/>
		</g>
		<g>
			<g>
				<rect x="236.4" y="188.6" class="st41" width="24.5" height="4.3"/>
				<rect x="234.8" y="192.9" class="st41" width="27.7" height="4.3"/>
				<rect x="233.4" y="197.2" class="st41" width="30.4" height="4.3"/>
			</g>
			<rect x="236.4" y="191.2" class="st7" width="24.5" height="1.7"/>
			<rect x="234.8" y="195.5" class="st7" width="27.7" height="1.7"/>
			<rect x="233.4" y="199.8" class="st7" width="30.4" height="1.7"/>
		</g>
		<g>
			<defs>
				<path id="SVGID_16_" d="M248.6,8l-21.1,39.6c0,1.7,1.4,3,3,3c1.7,0,3-1.4,3-3c0,1.7,1.4,3,3,3c1.7,0,3-1.4,3-3c0,1.7,1.4,3,3,3
					c1.7,0,3-1.4,3-3c0,1.7,1.4,3,3,3c1.7,0,3-1.4,3-3c0,1.7,1.4,3,3,3c1.7,0,3-1.4,3-3c0,1.7,1.4,3,3,3c1.7,0,3-1.4,3-3
					c0,1.7,1.3,3,3,3c1.7,0,3-1.4,3-3L248.6,8z"/>
			</defs>
			<clipPath id="SVGID_17_">
				<use xlink:href="#SVGID_16_"  style="overflow:visible;"/>
			</clipPath>
			<g class="st42">
				<g>
					<path class="st40" d="M218.4,39.8c-1.7,0-3,1.4-3,3v4.8c0,1.7,1.4,3,3,3c1.7,0,3-1.4,3-3v-4.8
						C221.5,41.1,220.1,39.8,218.4,39.8z"/>
					<path class="st7" d="M224.5,39.8c-1.7,0-3,1.4-3,3v4.8c0,1.7,1.4,3,3,3c1.7,0,3-1.4,3-3v-4.8C227.5,41.1,226.2,39.8,224.5,39.8
						z"/>
					<path class="st7" d="M230.5,39.8c-1.7,0-3,1.4-3,3v4.8c0,1.7,1.3,3,3,3c1.7,0,3-1.4,3-3v-4.8C233.5,41.1,232.2,39.8,230.5,39.8
						z"/>
					<path class="st40" d="M236.6,39.8c-1.7,0-3,1.4-3,3v4.8c0,1.7,1.4,3,3,3c1.7,0,3-1.4,3-3v-4.8
						C239.6,41.1,238.2,39.8,236.6,39.8z"/>
					<path class="st40" d="M242.6,39.8c-1.7,0-3,1.4-3,3v4.8c0,1.7,1.4,3,3,3c1.7,0,3-1.4,3-3v-4.8
						C245.6,41.1,244.3,39.8,242.6,39.8z"/>
					<path class="st7" d="M248.6,39.8c-1.7,0-3,1.4-3,3v4.8c0,1.7,1.4,3,3,3c1.7,0,3-1.4,3-3v-4.8C251.7,41.1,250.3,39.8,248.6,39.8
						z"/>
					<path class="st40" d="M254.7,39.8c-1.7,0-3,1.4-3,3v4.8c0,1.7,1.3,3,3,3c1.7,0,3-1.4,3-3v-4.8
						C257.7,41.1,256.3,39.8,254.7,39.8z"/>
					<path class="st7" d="M260.7,39.8c-1.7,0-3,1.4-3,3v4.8c0,1.7,1.4,3,3,3c1.7,0,3-1.4,3-3v-4.8C263.7,41.1,262.4,39.8,260.7,39.8
						z"/>
					<path class="st40" d="M266.8,39.8c-1.7,0-3,1.4-3,3v4.8c0,1.7,1.4,3,3,3c1.7,0,3-1.4,3-3v-4.8
						C269.8,41.1,268.4,39.8,266.8,39.8z"/>
					<path class="st7" d="M272.8,39.8c-1.7,0-3,1.4-3,3v4.8c0,1.7,1.3,3,3,3c1.7,0,3-1.4,3-3v-4.8C275.8,41.1,274.5,39.8,272.8,39.8
						z"/>
					<path class="st40" d="M278.8,39.8c-1.7,0-3,1.4-3,3v4.8c0,1.7,1.4,3,3,3c1.7,0,3-1.4,3-3v-4.8
						C281.9,41.1,280.5,39.8,278.8,39.8z"/>
				</g>
				<g>
					<path class="st43" d="M222.3,34.3c-1.7,0-3,1.4-3,3v4.8c0,1.7,1.4,3,3,3c1.7,0,3-1.4,3-3v-4.8C225.3,35.7,224,34.3,222.3,34.3z
						"/>
					<path class="st17" d="M216.2,34.3c-1.7,0-3,1.4-3,3v4.8c0,1.7,1.4,3,3,3c1.7,0,3-1.4,3-3v-4.8
						C219.3,35.7,217.9,34.3,216.2,34.3z"/>
					<path class="st17" d="M228.3,34.3c-1.7,0-3,1.4-3,3v4.8c0,1.7,1.4,3,3,3c1.7,0,3-1.4,3-3v-4.8C231.3,35.7,230,34.3,228.3,34.3z
						"/>
					<path class="st43" d="M234.4,34.3c-1.7,0-3,1.4-3,3v4.8c0,1.7,1.4,3,3,3c1.7,0,3-1.4,3-3v-4.8C237.4,35.7,236,34.3,234.4,34.3z
						"/>
					<path class="st17" d="M240.4,34.3c-1.7,0-3,1.4-3,3v4.8c0,1.7,1.4,3,3,3c1.7,0,3-1.4,3-3v-4.8
						C243.4,35.7,242.1,34.3,240.4,34.3z"/>
					<path class="st43" d="M246.4,34.3c-1.7,0-3,1.4-3,3v4.8c0,1.7,1.4,3,3,3c1.7,0,3-1.4,3-3v-4.8
						C249.5,35.7,248.1,34.3,246.4,34.3z"/>
					<path class="st43" d="M252.5,34.3c-1.7,0-3,1.4-3,3v4.8c0,1.7,1.4,3,3,3c1.7,0,3-1.4,3-3v-4.8
						C255.5,35.7,254.1,34.3,252.5,34.3z"/>
					<path class="st43" d="M258.5,34.3c-1.7,0-3,1.4-3,3v4.8c0,1.7,1.4,3,3,3c1.7,0,3-1.4,3-3v-4.8
						C261.5,35.7,260.2,34.3,258.5,34.3z"/>
					<path class="st17" d="M264.6,34.3c-1.7,0-3,1.4-3,3v4.8c0,1.7,1.4,3,3,3c1.7,0,3-1.4,3-3v-4.8
						C267.6,35.7,266.2,34.3,264.6,34.3z"/>
					<path class="st17" d="M270.6,34.3c-1.7,0-3,1.4-3,3v4.8c0,1.7,1.4,3,3,3c1.7,0,3-1.4,3-3v-4.8
						C273.6,35.7,272.3,34.3,270.6,34.3z"/>
					<path class="st43" d="M276.6,34.3c-1.7,0-3,1.4-3,3v4.8c0,1.7,1.4,3,3,3c1.7,0,3-1.4,3-3v-4.8
						C279.7,35.7,278.3,34.3,276.6,34.3z"/>
					<path class="st17" d="M282.7,34.3c-1.7,0-3,1.4-3,3v4.8c0,1.7,1.4,3,3,3c1.7,0,3-1.4,3-3v-4.8
						C285.7,35.7,284.3,34.3,282.7,34.3z"/>
				</g>
				<g>
					<path class="st7" d="M218.4,28.9c-1.7,0-3,1.4-3,3v4.8c0,1.7,1.4,3,3,3c1.7,0,3-1.4,3-3v-4.8C221.5,30.2,220.1,28.9,218.4,28.9
						z"/>
					<path class="st7" d="M224.5,28.9c-1.7,0-3,1.4-3,3v4.8c0,1.7,1.4,3,3,3c1.7,0,3-1.4,3-3v-4.8C227.5,30.2,226.2,28.9,224.5,28.9
						z"/>
					<path class="st40" d="M230.5,28.9c-1.7,0-3,1.4-3,3v4.8c0,1.7,1.3,3,3,3c1.7,0,3-1.4,3-3v-4.8
						C233.5,30.2,232.2,28.9,230.5,28.9z"/>
					<path class="st7" d="M236.6,28.9c-1.7,0-3,1.4-3,3v4.8c0,1.7,1.4,3,3,3c1.7,0,3-1.4,3-3v-4.8C239.6,30.2,238.2,28.9,236.6,28.9
						z"/>
					<path class="st40" d="M242.6,28.9c-1.7,0-3,1.4-3,3v4.8c0,1.7,1.4,3,3,3c1.7,0,3-1.4,3-3v-4.8
						C245.6,30.2,244.3,28.9,242.6,28.9z"/>
					<path class="st7" d="M248.6,28.9c-1.7,0-3,1.4-3,3v4.8c0,1.7,1.4,3,3,3c1.7,0,3-1.4,3-3v-4.8C251.7,30.2,250.3,28.9,248.6,28.9
						z"/>
					<path class="st7" d="M254.7,28.9c-1.7,0-3,1.4-3,3v4.8c0,1.7,1.3,3,3,3c1.7,0,3-1.4,3-3v-4.8C257.7,30.2,256.3,28.9,254.7,28.9
						z"/>
					<path class="st40" d="M260.7,28.9c-1.7,0-3,1.4-3,3v4.8c0,1.7,1.4,3,3,3c1.7,0,3-1.4,3-3v-4.8
						C263.7,30.2,262.4,28.9,260.7,28.9z"/>
					<path class="st40" d="M266.8,28.9c-1.7,0-3,1.4-3,3v4.8c0,1.7,1.4,3,3,3c1.7,0,3-1.4,3-3v-4.8
						C269.8,30.2,268.4,28.9,266.8,28.9z"/>
					<path class="st40" d="M272.8,28.9c-1.7,0-3,1.4-3,3v4.8c0,1.7,1.3,3,3,3c1.7,0,3-1.4,3-3v-4.8
						C275.8,30.2,274.5,28.9,272.8,28.9z"/>
					<path class="st7" d="M278.8,28.9c-1.7,0-3,1.4-3,3v4.8c0,1.7,1.4,3,3,3c1.7,0,3-1.4,3-3v-4.8C281.9,30.2,280.5,28.9,278.8,28.9
						z"/>
				</g>
				<g>
					<path class="st17" d="M222.3,23.4c-1.7,0-3,1.4-3,3v4.8c0,1.7,1.4,3,3,3c1.7,0,3-1.4,3-3v-4.8C225.3,24.8,224,23.4,222.3,23.4z
						"/>
					<path class="st17" d="M216.2,23.4c-1.7,0-3,1.4-3,3v4.8c0,1.7,1.4,3,3,3c1.7,0,3-1.4,3-3v-4.8
						C219.3,24.8,217.9,23.4,216.2,23.4z"/>
					<path class="st43" d="M228.3,23.4c-1.7,0-3,1.4-3,3v4.8c0,1.7,1.4,3,3,3c1.7,0,3-1.4,3-3v-4.8C231.3,24.8,230,23.4,228.3,23.4z
						"/>
					<path class="st17" d="M234.4,23.4c-1.7,0-3,1.4-3,3v4.8c0,1.7,1.4,3,3,3c1.7,0,3-1.4,3-3v-4.8C237.4,24.8,236,23.4,234.4,23.4z
						"/>
					<path class="st43" d="M240.4,23.4c-1.7,0-3,1.4-3,3v4.8c0,1.7,1.4,3,3,3c1.7,0,3-1.4,3-3v-4.8
						C243.4,24.8,242.1,23.4,240.4,23.4z"/>
					<path class="st43" d="M246.4,23.4c-1.7,0-3,1.4-3,3v4.8c0,1.7,1.4,3,3,3c1.7,0,3-1.4,3-3v-4.8
						C249.5,24.8,248.1,23.4,246.4,23.4z"/>
					<path class="st17" d="M252.5,23.4c-1.7,0-3,1.4-3,3v4.8c0,1.7,1.4,3,3,3c1.7,0,3-1.4,3-3v-4.8
						C255.5,24.8,254.1,23.4,252.5,23.4z"/>
					<path class="st43" d="M258.5,23.4c-1.7,0-3,1.4-3,3v4.8c0,1.7,1.4,3,3,3c1.7,0,3-1.4,3-3v-4.8
						C261.5,24.8,260.2,23.4,258.5,23.4z"/>
					<path class="st17" d="M264.6,23.4c-1.7,0-3,1.4-3,3v4.8c0,1.7,1.4,3,3,3c1.7,0,3-1.4,3-3v-4.8
						C267.6,24.8,266.2,23.4,264.6,23.4z"/>
					<path class="st17" d="M270.6,23.4c-1.7,0-3,1.4-3,3v4.8c0,1.7,1.4,3,3,3c1.7,0,3-1.4,3-3v-4.8
						C273.6,24.8,272.3,23.4,270.6,23.4z"/>
					<path class="st17" d="M276.6,23.4c-1.7,0-3,1.4-3,3v4.8c0,1.7,1.4,3,3,3c1.7,0,3-1.4,3-3v-4.8
						C279.7,24.8,278.3,23.4,276.6,23.4z"/>
					<path class="st43" d="M282.7,23.4c-1.7,0-3,1.4-3,3v4.8c0,1.7,1.4,3,3,3c1.7,0,3-1.4,3-3v-4.8
						C285.7,24.8,284.3,23.4,282.7,23.4z"/>
				</g>
				<g>
					<path class="st40" d="M218.4,18c-1.7,0-3,1.4-3,3v4.8c0,1.7,1.4,3,3,3c1.7,0,3-1.4,3-3V21C221.5,19.3,220.1,18,218.4,18z"/>
					<path class="st40" d="M224.5,18c-1.7,0-3,1.4-3,3v4.8c0,1.7,1.4,3,3,3c1.7,0,3-1.4,3-3V21C227.5,19.3,226.2,18,224.5,18z"/>
					<path class="st7" d="M230.5,18c-1.7,0-3,1.4-3,3v4.8c0,1.7,1.3,3,3,3c1.7,0,3-1.4,3-3V21C233.5,19.3,232.2,18,230.5,18z"/>
					<path class="st7" d="M236.6,18c-1.7,0-3,1.4-3,3v4.8c0,1.7,1.4,3,3,3c1.7,0,3-1.4,3-3V21C239.6,19.3,238.2,18,236.6,18z"/>
					<path class="st7" d="M242.6,18c-1.7,0-3,1.4-3,3v4.8c0,1.7,1.4,3,3,3c1.7,0,3-1.4,3-3V21C245.6,19.3,244.3,18,242.6,18z"/>
					<path class="st7" d="M248.6,18c-1.7,0-3,1.4-3,3v4.8c0,1.7,1.4,3,3,3c1.7,0,3-1.4,3-3V21C251.7,19.3,250.3,18,248.6,18z"/>
					<path class="st40" d="M254.7,18c-1.7,0-3,1.4-3,3v4.8c0,1.7,1.3,3,3,3c1.7,0,3-1.4,3-3V21C257.7,19.3,256.3,18,254.7,18z"/>
					<path class="st7" d="M260.7,18c-1.7,0-3,1.4-3,3v4.8c0,1.7,1.4,3,3,3c1.7,0,3-1.4,3-3V21C263.7,19.3,262.4,18,260.7,18z"/>
					<path class="st40" d="M266.8,18c-1.7,0-3,1.4-3,3v4.8c0,1.7,1.4,3,3,3c1.7,0,3-1.4,3-3V21C269.8,19.3,268.4,18,266.8,18z"/>
					<path class="st7" d="M272.8,18c-1.7,0-3,1.4-3,3v4.8c0,1.7,1.3,3,3,3c1.7,0,3-1.4,3-3V21C275.8,19.3,274.5,18,272.8,18z"/>
					<path class="st7" d="M278.8,18c-1.7,0-3,1.4-3,3v4.8c0,1.7,1.4,3,3,3c1.7,0,3-1.4,3-3V21C281.9,19.3,280.5,18,278.8,18z"/>
				</g>
				<g>
					<path class="st43" d="M222.3,12.5c-1.7,0-3,1.4-3,3v4.8c0,1.7,1.4,3,3,3c1.7,0,3-1.4,3-3v-4.8C225.3,13.8,224,12.5,222.3,12.5z
						"/>
					<path class="st43" d="M216.2,12.5c-1.7,0-3,1.4-3,3v4.8c0,1.7,1.4,3,3,3c1.7,0,3-1.4,3-3v-4.8
						C219.3,13.8,217.9,12.5,216.2,12.5z"/>
					<path class="st43" d="M228.3,12.5c-1.7,0-3,1.4-3,3v4.8c0,1.7,1.4,3,3,3c1.7,0,3-1.4,3-3v-4.8C231.3,13.8,230,12.5,228.3,12.5z
						"/>
					<path class="st17" d="M234.4,12.5c-1.7,0-3,1.4-3,3v4.8c0,1.7,1.4,3,3,3c1.7,0,3-1.4,3-3v-4.8C237.4,13.8,236,12.5,234.4,12.5z
						"/>
					<path class="st43" d="M240.4,12.5c-1.7,0-3,1.4-3,3v4.8c0,1.7,1.4,3,3,3c1.7,0,3-1.4,3-3v-4.8
						C243.4,13.8,242.1,12.5,240.4,12.5z"/>
					<path class="st17" d="M246.4,12.5c-1.7,0-3,1.4-3,3v4.8c0,1.7,1.4,3,3,3c1.7,0,3-1.4,3-3v-4.8
						C249.5,13.8,248.1,12.5,246.4,12.5z"/>
					<path class="st17" d="M252.5,12.5c-1.7,0-3,1.4-3,3v4.8c0,1.7,1.4,3,3,3c1.7,0,3-1.4,3-3v-4.8
						C255.5,13.8,254.1,12.5,252.5,12.5z"/>
					<path class="st17" d="M258.5,12.5c-1.7,0-3,1.4-3,3v4.8c0,1.7,1.4,3,3,3c1.7,0,3-1.4,3-3v-4.8
						C261.5,13.8,260.2,12.5,258.5,12.5z"/>
					<path class="st43" d="M264.6,12.5c-1.7,0-3,1.4-3,3v4.8c0,1.7,1.4,3,3,3c1.7,0,3-1.4,3-3v-4.8
						C267.6,13.8,266.2,12.5,264.6,12.5z"/>
					<path class="st17" d="M270.6,12.5c-1.7,0-3,1.4-3,3v4.8c0,1.7,1.4,3,3,3c1.7,0,3-1.4,3-3v-4.8
						C273.6,13.8,272.3,12.5,270.6,12.5z"/>
					<path class="st43" d="M276.6,12.5c-1.7,0-3,1.4-3,3v4.8c0,1.7,1.4,3,3,3c1.7,0,3-1.4,3-3v-4.8
						C279.7,13.8,278.3,12.5,276.6,12.5z"/>
					<path class="st17" d="M282.7,12.5c-1.7,0-3,1.4-3,3v4.8c0,1.7,1.4,3,3,3c1.7,0,3-1.4,3-3v-4.8
						C285.7,13.8,284.3,12.5,282.7,12.5z"/>
				</g>
				<g>
					<path class="st7" d="M218.4,7c-1.7,0-3,1.4-3,3v4.8c0,1.7,1.4,3,3,3c1.7,0,3-1.4,3-3v-4.8C221.5,8.4,220.1,7,218.4,7z"/>
					<path class="st40" d="M224.5,7c-1.7,0-3,1.4-3,3v4.8c0,1.7,1.4,3,3,3c1.7,0,3-1.4,3-3v-4.8C227.5,8.4,226.2,7,224.5,7z"/>
					<path class="st7" d="M230.5,7c-1.7,0-3,1.4-3,3v4.8c0,1.7,1.3,3,3,3c1.7,0,3-1.4,3-3v-4.8C233.5,8.4,232.2,7,230.5,7z"/>
					<path class="st40" d="M236.6,7c-1.7,0-3,1.4-3,3v4.8c0,1.7,1.4,3,3,3c1.7,0,3-1.4,3-3v-4.8C239.6,8.4,238.2,7,236.6,7z"/>
					<path class="st7" d="M242.6,7c-1.7,0-3,1.4-3,3v4.8c0,1.7,1.4,3,3,3c1.7,0,3-1.4,3-3v-4.8C245.6,8.4,244.3,7,242.6,7z"/>
					<path class="st7" d="M248.6,7c-1.7,0-3,1.4-3,3v4.8c0,1.7,1.4,3,3,3c1.7,0,3-1.4,3-3v-4.8C251.7,8.4,250.3,7,248.6,7z"/>
					<path class="st7" d="M254.7,7c-1.7,0-3,1.4-3,3v4.8c0,1.7,1.3,3,3,3c1.7,0,3-1.4,3-3v-4.8C257.7,8.4,256.3,7,254.7,7z"/>
					<path class="st40" d="M260.7,7c-1.7,0-3,1.4-3,3v4.8c0,1.7,1.4,3,3,3c1.7,0,3-1.4,3-3v-4.8C263.7,8.4,262.4,7,260.7,7z"/>
					<path class="st7" d="M266.8,7c-1.7,0-3,1.4-3,3v4.8c0,1.7,1.4,3,3,3c1.7,0,3-1.4,3-3v-4.8C269.8,8.4,268.4,7,266.8,7z"/>
					<path class="st40" d="M272.8,7c-1.7,0-3,1.4-3,3v4.8c0,1.7,1.3,3,3,3c1.7,0,3-1.4,3-3v-4.8C275.8,8.4,274.5,7,272.8,7z"/>
					<path class="st40" d="M278.8,7c-1.7,0-3,1.4-3,3v4.8c0,1.7,1.4,3,3,3c1.7,0,3-1.4,3-3v-4.8C281.9,8.4,280.5,7,278.8,7z"/>
				</g>
				<g>
					<path class="st43" d="M222.3,1.6c-1.7,0-3,1.4-3,3v4.8c0,1.7,1.4,3,3,3c1.7,0,3-1.4,3-3V4.6C225.3,2.9,224,1.6,222.3,1.6z"/>
					<path class="st17" d="M216.2,1.6c-1.7,0-3,1.4-3,3v4.8c0,1.7,1.4,3,3,3c1.7,0,3-1.4,3-3V4.6C219.3,2.9,217.9,1.6,216.2,1.6z"/>
					<path class="st17" d="M228.3,1.6c-1.7,0-3,1.4-3,3v4.8c0,1.7,1.4,3,3,3c1.7,0,3-1.4,3-3V4.6C231.3,2.9,230,1.6,228.3,1.6z"/>
					<path class="st43" d="M234.4,1.6c-1.7,0-3,1.4-3,3v4.8c0,1.7,1.4,3,3,3c1.7,0,3-1.4,3-3V4.6C237.4,2.9,236,1.6,234.4,1.6z"/>
					<path class="st17" d="M240.4,1.6c-1.7,0-3,1.4-3,3v4.8c0,1.7,1.4,3,3,3c1.7,0,3-1.4,3-3V4.6C243.4,2.9,242.1,1.6,240.4,1.6z"/>
					<path class="st43" d="M246.4,1.6c-1.7,0-3,1.4-3,3v4.8c0,1.7,1.4,3,3,3c1.7,0,3-1.4,3-3V4.6C249.5,2.9,248.1,1.6,246.4,1.6z"/>
					<path class="st43" d="M252.5,1.6c-1.7,0-3,1.4-3,3v4.8c0,1.7,1.4,3,3,3c1.7,0,3-1.4,3-3V4.6C255.5,2.9,254.1,1.6,252.5,1.6z"/>
					<path class="st17" d="M258.5,1.6c-1.7,0-3,1.4-3,3v4.8c0,1.7,1.4,3,3,3c1.7,0,3-1.4,3-3V4.6C261.5,2.9,260.2,1.6,258.5,1.6z"/>
					<path class="st43" d="M264.6,1.6c-1.7,0-3,1.4-3,3v4.8c0,1.7,1.4,3,3,3c1.7,0,3-1.4,3-3V4.6C267.6,2.9,266.2,1.6,264.6,1.6z"/>
					<path class="st17" d="M270.6,1.6c-1.7,0-3,1.4-3,3v4.8c0,1.7,1.4,3,3,3c1.7,0,3-1.4,3-3V4.6C273.6,2.9,272.3,1.6,270.6,1.6z"/>
					<path class="st17" d="M276.6,1.6c-1.7,0-3,1.4-3,3v4.8c0,1.7,1.4,3,3,3c1.7,0,3-1.4,3-3V4.6C279.7,2.9,278.3,1.6,276.6,1.6z"/>
					<path class="st17" d="M282.7,1.6c-1.7,0-3,1.4-3,3v4.8c0,1.7,1.4,3,3,3c1.7,0,3-1.4,3-3V4.6C285.7,2.9,284.3,1.6,282.7,1.6z"/>
				</g>
				<g>
					<path class="st7" d="M218.4-3.9c-1.7,0-3,1.4-3,3V4c0,1.7,1.4,3,3,3c1.7,0,3-1.4,3-3v-4.8C221.5-2.5,220.1-3.9,218.4-3.9z"/>
					<path class="st7" d="M224.5-3.9c-1.7,0-3,1.4-3,3V4c0,1.7,1.4,3,3,3c1.7,0,3-1.4,3-3v-4.8C227.5-2.5,226.2-3.9,224.5-3.9z"/>
					<path class="st40" d="M230.5-3.9c-1.7,0-3,1.4-3,3V4c0,1.7,1.3,3,3,3c1.7,0,3-1.4,3-3v-4.8C233.5-2.5,232.2-3.9,230.5-3.9z"/>
					<path class="st7" d="M236.6-3.9c-1.7,0-3,1.4-3,3V4c0,1.7,1.4,3,3,3c1.7,0,3-1.4,3-3v-4.8C239.6-2.5,238.2-3.9,236.6-3.9z"/>
					<path class="st40" d="M242.6-3.9c-1.7,0-3,1.4-3,3V4c0,1.7,1.4,3,3,3c1.7,0,3-1.4,3-3v-4.8C245.6-2.5,244.3-3.9,242.6-3.9z"/>
					<path class="st7" d="M248.6-3.9c-1.7,0-3,1.4-3,3V4c0,1.7,1.4,3,3,3c1.7,0,3-1.4,3-3v-4.8C251.7-2.5,250.3-3.9,248.6-3.9z"/>
					<path class="st40" d="M254.7-3.9c-1.7,0-3,1.4-3,3V4c0,1.7,1.3,3,3,3c1.7,0,3-1.4,3-3v-4.8C257.7-2.5,256.3-3.9,254.7-3.9z"/>
					<path class="st40" d="M260.7-3.9c-1.7,0-3,1.4-3,3V4c0,1.7,1.4,3,3,3c1.7,0,3-1.4,3-3v-4.8C263.7-2.5,262.4-3.9,260.7-3.9z"/>
					<path class="st7" d="M266.8-3.9c-1.7,0-3,1.4-3,3V4c0,1.7,1.4,3,3,3c1.7,0,3-1.4,3-3v-4.8C269.8-2.5,268.4-3.9,266.8-3.9z"/>
					<path class="st7" d="M272.8-3.9c-1.7,0-3,1.4-3,3V4c0,1.7,1.3,3,3,3c1.7,0,3-1.4,3-3v-4.8C275.8-2.5,274.5-3.9,272.8-3.9z"/>
					<path class="st7" d="M278.8-3.9c-1.7,0-3,1.4-3,3V4c0,1.7,1.4,3,3,3c1.7,0,3-1.4,3-3v-4.8C281.9-2.5,280.5-3.9,278.8-3.9z"/>
				</g>
				<g>
					<path class="st43" d="M222.3-9.3c-1.7,0-3,1.4-3,3v4.8c0,1.7,1.4,3,3,3c1.7,0,3-1.4,3-3v-4.8C225.3-7.9,224-9.3,222.3-9.3z"/>
					<path class="st17" d="M216.2-9.3c-1.7,0-3,1.4-3,3v4.8c0,1.7,1.4,3,3,3c1.7,0,3-1.4,3-3v-4.8C219.3-7.9,217.9-9.3,216.2-9.3z"
						/>
					<path class="st17" d="M228.3-9.3c-1.7,0-3,1.4-3,3v4.8c0,1.7,1.4,3,3,3c1.7,0,3-1.4,3-3v-4.8C231.3-7.9,230-9.3,228.3-9.3z"/>
					<path class="st43" d="M234.4-9.3c-1.7,0-3,1.4-3,3v4.8c0,1.7,1.4,3,3,3c1.7,0,3-1.4,3-3v-4.8C237.4-7.9,236-9.3,234.4-9.3z"/>
					<path class="st17" d="M240.4-9.3c-1.7,0-3,1.4-3,3v4.8c0,1.7,1.4,3,3,3c1.7,0,3-1.4,3-3v-4.8C243.4-7.9,242.1-9.3,240.4-9.3z"
						/>
					<path class="st17" d="M246.4-9.3c-1.7,0-3,1.4-3,3v4.8c0,1.7,1.4,3,3,3c1.7,0,3-1.4,3-3v-4.8C249.5-7.9,248.1-9.3,246.4-9.3z"
						/>
					<path class="st17" d="M252.5-9.3c-1.7,0-3,1.4-3,3v4.8c0,1.7,1.4,3,3,3c1.7,0,3-1.4,3-3v-4.8C255.5-7.9,254.1-9.3,252.5-9.3z"
						/>
					<path class="st17" d="M258.5-9.3c-1.7,0-3,1.4-3,3v4.8c0,1.7,1.4,3,3,3c1.7,0,3-1.4,3-3v-4.8C261.5-7.9,260.2-9.3,258.5-9.3z"
						/>
					<path class="st43" d="M264.6-9.3c-1.7,0-3,1.4-3,3v4.8c0,1.7,1.4,3,3,3c1.7,0,3-1.4,3-3v-4.8C267.6-7.9,266.2-9.3,264.6-9.3z"
						/>
					<path class="st17" d="M270.6-9.3c-1.7,0-3,1.4-3,3v4.8c0,1.7,1.4,3,3,3c1.7,0,3-1.4,3-3v-4.8C273.6-7.9,272.3-9.3,270.6-9.3z"
						/>
					<path class="st43" d="M276.6-9.3c-1.7,0-3,1.4-3,3v4.8c0,1.7,1.4,3,3,3c1.7,0,3-1.4,3-3v-4.8C279.7-7.9,278.3-9.3,276.6-9.3z"
						/>
					<path class="st43" d="M282.7-9.3c-1.7,0-3,1.4-3,3v4.8c0,1.7,1.4,3,3,3c1.7,0,3-1.4,3-3v-4.8C285.7-7.9,284.3-9.3,282.7-9.3z"
						/>
				</g>
				<g>
					<path class="st7" d="M215.4-6.9c0,1.7,1.4,3,3,3c1.7,0,3-1.4,3-3v-4.6h-6V-6.9z"/>
					<path class="st40" d="M221.5-6.9c0,1.7,1.4,3,3,3c1.7,0,3-1.4,3-3v-4.6h-6V-6.9z"/>
					<path class="st40" d="M227.5-6.9c0,1.7,1.3,3,3,3c1.7,0,3-1.4,3-3v-4.6h-6V-6.9z"/>
					<path class="st7" d="M233.5-6.9c0,1.7,1.4,3,3,3c1.7,0,3-1.4,3-3v-4.6h-6V-6.9z"/>
					<path class="st40" d="M239.6-6.9c0,1.7,1.4,3,3,3c1.7,0,3-1.4,3-3v-4.6h-6V-6.9z"/>
					<path class="st7" d="M245.6-6.9c0,1.7,1.4,3,3,3c1.7,0,3-1.4,3-3v-4.6h-6V-6.9z"/>
					<path class="st7" d="M251.7-6.9c0,1.7,1.3,3,3,3c1.7,0,3-1.4,3-3v-4.6h-6V-6.9z"/>
					<path class="st40" d="M257.7-6.9c0,1.7,1.4,3,3,3c1.7,0,3-1.4,3-3v-4.6h-6V-6.9z"/>
					<path class="st7" d="M263.7-6.9c0,1.7,1.4,3,3,3c1.7,0,3-1.4,3-3v-4.6h-6V-6.9z"/>
					<path class="st40" d="M269.8-6.9c0,1.7,1.3,3,3,3c1.7,0,3-1.4,3-3v-4.6h-6V-6.9z"/>
					<path class="st7" d="M275.8-6.9c0,1.7,1.4,3,3,3c1.7,0,3-1.4,3-3v-4.6h-6V-6.9z"/>
				</g>
			</g>
		</g>
	</g>
	<path class="st44" d="M256,81.6L240.8,108c2.3,1.4,5,2.2,7.8,2.2c8.4,0,15.3-6.8,15.3-15.3C263.9,89.2,260.7,84.2,256,81.6z"/>
</g>
<g id="house_with_chimney">
	<g>
		<rect x="149.3" y="85.3" class="st13" width="15.1" height="19.7"/>
		<rect x="154.8" y="87.3" class="st21" width="7.7" height="3.6"/>
		<g>
			<rect x="146.9" y="79.1" class="st26" width="19.8" height="7"/>
			<rect x="146.9" y="79.1" class="st7" width="19.8" height="2"/>
		</g>
	</g>
	<polygon class="st10" points="149.3,105.1 149.3,151.9 149.3,198.6 181,198.6 212.8,198.6 212.8,151.9 212.8,105.1 181,82.2 	"/>
	<linearGradient id="SVGID_18_" gradientUnits="userSpaceOnUse" x1="181.031" y1="182.1323" x2="181.031" y2="200.302">
		<stop  offset="0" style="stop-color:#FFFFFF"/>
		<stop  offset="1" style="stop-color:#B5B5B5"/>
	</linearGradient>
	<rect x="149.3" y="178.1" class="st45" width="63.5" height="16.3"/>
	<linearGradient id="SVGID_19_" gradientUnits="userSpaceOnUse" x1="181.031" y1="85.0224" x2="181.031" y2="109.2509">
		<stop  offset="0" style="stop-color:#B5B5B5"/>
		<stop  offset="0.6431" style="stop-color:#E8E8E8"/>
		<stop  offset="1" style="stop-color:#FFFFFF"/>
	</linearGradient>
	<polygon class="st46" points="186.8,85.1 181,79.3 175.3,85.1 170.6,89.8 149.3,111.1 149.3,122.6 181,90.8 212.8,122.6 
		212.8,111.1 191.5,89.8 	"/>
	<g>
		<polygon class="st13" points="181,82.4 214.3,115.7 219.1,110.9 181,72.8 		"/>
		<polygon class="st15" points="181,72.8 142.9,110.9 147.7,115.7 181,82.4 181,72.8 181,72.8 		"/>
		<polygon class="st21" points="181,72.8 181,72.8 142.9,110.9 144,112 181,75 181,75 181,75 218,112 219.1,110.9 181,72.8 		"/>
	</g>
	<rect x="144.3" y="193.7" class="st12" width="72.9" height="8"/>
	<g>
		<g>
			<rect x="168.8" y="188.9" class="st3" width="24.5" height="4.3"/>
			<rect x="167.2" y="193.2" class="st3" width="27.7" height="4.3"/>
			<rect x="165.8" y="197.4" class="st3" width="30.4" height="4.3"/>
		</g>
		<rect x="168.8" y="191.5" class="st2" width="24.5" height="1.7"/>
		<rect x="167.2" y="195.7" class="st2" width="27.7" height="1.7"/>
		<rect x="165.8" y="200" class="st2" width="30.4" height="1.7"/>
	</g>
	<g>
		<linearGradient id="SVGID_20_" gradientUnits="userSpaceOnUse" x1="181.031" y1="159.3693" x2="181.031" y2="153.4394">
			<stop  offset="0" style="stop-color:#FFFFFF"/>
			<stop  offset="0.3569" style="stop-color:#E8E8E8"/>
			<stop  offset="1" style="stop-color:#B5B5B5"/>
		</linearGradient>
		<rect x="149.3" y="148.4" class="st47" width="63.5" height="11.3"/>
		<rect x="147.9" y="148.4" class="st26" width="66.3" height="6.5"/>
		<rect x="147.9" y="148.4" class="st7" width="66.3" height="2.3"/>
	</g>
	<g>
		<rect x="161.1" y="119.8" class="st13" width="7.7" height="3.6"/>
		<rect x="194.6" y="111.2" class="st13" width="7.7" height="3.6"/>
		<g>
			<rect x="156.9" y="115.5" class="st13" width="7.8" height="3.6"/>
			<rect x="165.3" y="115.5" class="st13" width="7.8" height="3.6"/>
		</g>
		<g>
			<rect x="198.4" y="166.7" class="st13" width="7.8" height="3.6"/>
			<g>
				<rect x="194.3" y="158.8" class="st13" width="7.8" height="3.6"/>
				<rect x="202.6" y="162.4" class="st13" width="7.8" height="3.6"/>
			</g>
		</g>
		<rect x="156.9" y="170.8" class="st13" width="7.8" height="3.6"/>
		<g>
			<rect x="152.7" y="166.6" class="st13" width="7.8" height="3.6"/>
		</g>
	</g>
	<g>
		<path class="st21" d="M181,126.1c-4.6,0-8.3,3.7-8.3,8.3v14h16.6v-14C189.3,129.8,185.6,126.1,181,126.1z"/>
		<path class="st3" d="M181,127.5c-3.8,0-6.8,3.1-6.8,6.8v12.6h13.7v-12.6C187.9,130.6,184.8,127.5,181,127.5z"/>
		<path class="st22" d="M184.8,128.7l-10.5,18.3h13.7v-12.6C187.9,132,186.6,129.9,184.8,128.7z"/>
		<rect x="180.2" y="127.5" class="st21" width="1.6" height="19.4"/>
		<rect x="172.9" y="137.3" class="st21" width="16.3" height="1.6"/>
	</g>
	<g>
		<path class="st21" d="M200.6,126.1c-4.6,0-8.3,3.7-8.3,8.3v14h16.6v-14C208.9,129.8,205.2,126.1,200.6,126.1z"/>
		<path class="st3" d="M200.6,127.5c-3.8,0-6.8,3.1-6.8,6.8v12.6h13.7v-12.6C207.4,130.6,204.4,127.5,200.6,127.5z"/>
		<path class="st22" d="M204.3,128.7l-10.5,18.3h13.7v-12.6C207.4,132,206.2,129.9,204.3,128.7z"/>
		<rect x="199.8" y="127.5" class="st21" width="1.6" height="19.4"/>
		<rect x="192.5" y="137.3" class="st21" width="16.3" height="1.6"/>
	</g>
	<g>
		<path class="st21" d="M161.5,126.1c-4.6,0-8.3,3.7-8.3,8.3v14h16.6v-14C169.8,129.8,166,126.1,161.5,126.1z"/>
		<path class="st3" d="M161.5,127.5c-3.8,0-6.8,3.1-6.8,6.8v12.6h13.7v-12.6C168.3,130.6,165.2,127.5,161.5,127.5z"/>
		<path class="st22" d="M165.2,128.7l-10.5,18.3h13.7v-12.6C168.3,132,167.1,129.9,165.2,128.7z"/>
		<rect x="160.7" y="127.5" class="st21" width="1.6" height="19.4"/>
		<rect x="153.3" y="137.3" class="st21" width="16.3" height="1.6"/>
	</g>
	<g>
		<path class="st21" d="M181,166.5c-4.6,0-8.3,3.7-8.3,8.3v14h16.6v-14C189.3,170.3,185.6,166.5,181,166.5z"/>
		<path class="st3" d="M181,168c-3.8,0-6.8,3.1-6.8,6.8v14h13.7v-14C187.9,171.1,184.8,168,181,168z"/>
		<circle class="st2" cx="176.4" cy="182.1" r="1"/>
		<path class="st2" d="M174.6,188.9h13.2v-14c0-2-0.9-3.8-2.2-5L174.6,188.9z"/>
	</g>
	<circle class="st3" cx="181" cy="104.6" r="5.1"/>
	<g>
		<circle class="st21" cx="181" cy="104.6" r="6.6"/>
		<circle class="st3" cx="181" cy="104.6" r="5.1"/>
		<path class="st0" d="M181.2,99.5c-1.6,0-3,0.8-3.9,2c-0.3,0.6-0.4,1.3-0.4,2c0,2.6,2.1,4.8,4.8,4.8c1.9,0,3.6-1.1,4.3-2.8
			c0.1-0.3,0.1-0.7,0.1-1.1C186.1,101.7,183.9,99.5,181.2,99.5z"/>
	</g>
</g>
<g id="bushes">
	<g>
		<path class="st8" d="M517.9,198.2c0,1.3,0.1,2.5,0.2,3.6h27.6c0.1-1.1,0.2-2.3,0.2-3.6c0-11.6-14-25.7-14-25.7
			S517.9,186.6,517.9,198.2z"/>
		<path class="st23" d="M531.9,201.7h13.8c0.1-1.1,0.2-2.3,0.2-3.6c0-11.6-14-25.7-14-25.7V201.7z"/>
	</g>
	<g>
		<path class="st8" d="M540.4,201.6c0,0.1,0,0.1,0,0.1h12.7c0,0,0-0.1,0-0.1c0-5.3-6.4-11.7-6.4-11.7S540.4,196.3,540.4,201.6z"/>
		<path class="st23" d="M546.7,201.7h6.4c0,0,0-0.1,0-0.1c0-5.3-6.4-11.7-6.4-11.7V201.7z"/>
	</g>
</g>
<g id="house_with_garage">
	<polygon class="st13" points="501.6,131.3 494.9,131.3 494.9,194.3 523,194.3 523,143.6 508.9,135.5 	"/>
	<g>
		<g>
			<rect x="500.3" y="163.6" class="st4" width="17.5" height="27.7"/>
			<rect x="501.9" y="165.1" class="st16" width="14.3" height="26.2"/>
			<polygon class="st13" points="502,191.3 516.2,191.3 516.2,165.1 513.6,165.1 			"/>
		</g>
		<circle class="st4" cx="504.5" cy="180.6" r="1.5"/>
	</g>
	<g>
		<rect x="509.2" y="156.1" class="st16" width="7.8" height="3.6"/>
		<g>
			<rect x="513.4" y="151.8" class="st16" width="7.8" height="3.6"/>
		</g>
		<g>
			<rect x="499.1" y="147.4" class="st16" width="7.8" height="3.6"/>
		</g>
	</g>
	<linearGradient id="SVGID_21_" gradientUnits="userSpaceOnUse" x1="475.4842" y1="162.7826" x2="508.0816" y2="162.7826">
		<stop  offset="0" style="stop-color:#C4C4C4"/>
		<stop  offset="1" style="stop-color:#FFFFFF"/>
	</linearGradient>
	<polygon class="st48" points="494.9,131.3 494.9,194.3 508.9,194.3 508.9,135.5 501.6,131.3 	"/>
	<polygon class="st4" points="501.6,131.3 494.3,127 491.9,131.3 494.9,133.1 523,149.3 528.5,152.5 531,148.2 523,143.6 	"/>
	<rect x="468.2" y="65.9" class="st12" width="15.1" height="18.2"/>
	<rect x="469.9" y="72.3" class="st16" width="7.8" height="3.6"/>
	<rect x="466" y="59.7" class="st16" width="19.6" height="7"/>
	<rect x="466" y="59.7" class="st49" width="19.6" height="1.8"/>
	<rect x="421.5" y="80.7" class="st13" width="73.9" height="118.2"/>
	<rect x="428.6" y="142.9" class="st16" width="7.8" height="3.6"/>
	<rect x="482.6" y="142.9" class="st16" width="7.7" height="3.6"/>
	<rect x="482.6" y="101.6" class="st16" width="7.7" height="3.6"/>
	<g>
		<rect x="424.4" y="138.7" class="st16" width="7.8" height="3.6"/>
	</g>
	<rect x="446.7" y="97.3" class="st16" width="7.7" height="3.6"/>
	<g>
		<rect x="450.9" y="101.6" class="st16" width="7.7" height="3.6"/>
		<rect x="442.5" y="101.6" class="st16" width="7.8" height="3.6"/>
	</g>
	<rect x="430.4" y="147.6" class="st4" width="56.2" height="47.2"/>
	<rect x="433.3" y="150.6" class="st50" width="50.3" height="41.3"/>
	<linearGradient id="SVGID_22_" gradientUnits="userSpaceOnUse" x1="458.4395" y1="151.0607" x2="458.4395" y2="156.7292">
		<stop  offset="0" style="stop-color:#CCCCCC"/>
		<stop  offset="0.6534" style="stop-color:#C3C3C3"/>
		<stop  offset="1" style="stop-color:#BCBCBC"/>
	</linearGradient>
	<rect x="433.3" y="150.6" class="st51" width="50.3" height="6.2"/>
	<linearGradient id="SVGID_23_" gradientUnits="userSpaceOnUse" x1="458.4395" y1="157.2159" x2="458.4395" y2="162.8845">
		<stop  offset="0" style="stop-color:#CCCCCC"/>
		<stop  offset="0.6534" style="stop-color:#C3C3C3"/>
		<stop  offset="1" style="stop-color:#BCBCBC"/>
	</linearGradient>
	<rect x="433.3" y="156.7" class="st52" width="50.3" height="6.2"/>
	<linearGradient id="SVGID_24_" gradientUnits="userSpaceOnUse" x1="458.4395" y1="163.3711" x2="458.4395" y2="169.0388">
		<stop  offset="0" style="stop-color:#CCCCCC"/>
		<stop  offset="0.6534" style="stop-color:#C3C3C3"/>
		<stop  offset="1" style="stop-color:#BCBCBC"/>
	</linearGradient>
	<rect x="433.3" y="162.9" class="st53" width="50.3" height="6.2"/>
	<linearGradient id="SVGID_25_" gradientUnits="userSpaceOnUse" x1="458.4395" y1="169.5257" x2="458.4395" y2="175.196">
		<stop  offset="0" style="stop-color:#CCCCCC"/>
		<stop  offset="0.6534" style="stop-color:#C3C3C3"/>
		<stop  offset="1" style="stop-color:#BCBCBC"/>
	</linearGradient>
	<rect x="433.3" y="169" class="st54" width="50.3" height="6.2"/>
	<linearGradient id="SVGID_26_" gradientUnits="userSpaceOnUse" x1="458.4395" y1="175.6827" x2="458.4395" y2="181.3513">
		<stop  offset="0" style="stop-color:#CCCCCC"/>
		<stop  offset="0.6534" style="stop-color:#C3C3C3"/>
		<stop  offset="1" style="stop-color:#BCBCBC"/>
	</linearGradient>
	<rect x="433.3" y="175.2" class="st55" width="50.3" height="6.2"/>
	<linearGradient id="SVGID_27_" gradientUnits="userSpaceOnUse" x1="458.4395" y1="181.8377" x2="458.4395" y2="187.5027">
		<stop  offset="0" style="stop-color:#CCCCCC"/>
		<stop  offset="0.6534" style="stop-color:#C3C3C3"/>
		<stop  offset="1" style="stop-color:#BCBCBC"/>
	</linearGradient>
	<rect x="433.3" y="181.3" class="st56" width="50.3" height="6.2"/>
	<linearGradient id="SVGID_28_" gradientUnits="userSpaceOnUse" x1="458.4395" y1="187.9894" x2="458.4395" y2="193.6579">
		<stop  offset="0" style="stop-color:#CCCCCC"/>
		<stop  offset="0.6534" style="stop-color:#C3C3C3"/>
		<stop  offset="1" style="stop-color:#BCBCBC"/>
	</linearGradient>
	<rect x="433.3" y="187.5" class="st57" width="50.3" height="6.2"/>
	<linearGradient id="SVGID_29_" gradientUnits="userSpaceOnUse" x1="472.2334" y1="206.9782" x2="472.2334" y2="181.8058">
		<stop  offset="0" style="stop-color:#C4C4C4"/>
		<stop  offset="1" style="stop-color:#FFFFFF"/>
	</linearGradient>
	<rect x="421.5" y="181" class="st58" width="101.5" height="17.9"/>
	<linearGradient id="SVGID_30_" gradientUnits="userSpaceOnUse" x1="458.4399" y1="83.4341" x2="458.4399" y2="105.0431">
		<stop  offset="0" style="stop-color:#C4C4C4"/>
		<stop  offset="1" style="stop-color:#FFFFFF"/>
	</linearGradient>
	<rect x="421.5" y="90.1" class="st59" width="73.9" height="17.9"/>
	<rect x="419" y="193.7" class="st16" width="111.1" height="8"/>
	<polygon class="st60" points="420,77.5 415.5,91.6 501.3,91.6 496.9,77.5 	"/>
	<polygon class="st4" points="416.5,88.7 415.5,91.6 501.3,91.6 500.4,88.7 	"/>
	<g>
		<rect x="430.4" y="108.7" class="st4" width="21.7" height="29.2"/>
		<rect x="431.8" y="110.2" class="st16" width="18.7" height="26.2"/>
		<polygon class="st13" points="432,136.4 450.6,136.4 450.6,110.2 447.1,110.2 		"/>
		<rect x="440.4" y="110.2" class="st4" width="1.6" height="26.2"/>
	</g>
	<g>
		<rect x="464.8" y="108.7" class="st4" width="21.7" height="29.2"/>
		<rect x="466.3" y="110.2" class="st16" width="18.7" height="26.2"/>
		<polygon class="st13" points="466.4,136.4 485,136.4 485,110.2 481.6,110.2 		"/>
		<rect x="474.9" y="110.2" class="st4" width="1.6" height="26.2"/>
	</g>
	<g>
		<g>
			<rect x="497" y="188.9" class="st16" width="24.3" height="4.3"/>
			<rect x="495.4" y="193.2" class="st16" width="27.5" height="4.3"/>
			<rect x="494.1" y="197.4" class="st16" width="30.2" height="4.3"/>
		</g>
		<rect x="497" y="191.5" class="st13" width="24.3" height="1.7"/>
		<rect x="495.4" y="195.7" class="st13" width="27.5" height="1.7"/>
		<rect x="494.1" y="200" class="st13" width="30.2" height="1.7"/>
	</g>
</g>
<g id="house_with_fancy_roof">
	<polygon class="st10" points="340.1,55.9 332.1,55.9 332.1,46.4 305.2,46.4 305.2,55.9 297.2,55.9 297.2,65.4 289.8,65.4 
		289.8,74.9 347.4,74.9 347.4,65.4 340.1,65.4 	"/>
	<polygon class="st35" points="337.1,58.9 329.1,58.9 329.1,49.3 308.1,49.3 308.1,58.9 300.2,58.9 300.2,68.4 292.8,68.4 
		292.8,76.8 344.5,76.8 344.5,68.4 337.1,68.4 	"/>
	<rect x="281.7" y="74.8" class="st35" width="73.9" height="125.6"/>
	<g>
		<rect x="314.8" y="142.8" class="st10" width="7.8" height="3.6"/>
		<g>
			<rect x="310.6" y="138.5" class="st10" width="7.8" height="3.6"/>
			<rect x="319" y="138.5" class="st10" width="7.7" height="3.6"/>
		</g>
		<rect x="288.3" y="79.1" class="st10" width="7.8" height="3.6"/>
		<g>
			<rect x="301.2" y="83.4" class="st10" width="7.8" height="3.6"/>
			<rect x="301.2" y="74" class="st10" width="7.8" height="3.6"/>
			<rect x="320.9" y="51.9" class="st10" width="7.8" height="3.6"/>
			<rect x="292.8" y="83.4" class="st10" width="7.7" height="3.6"/>
		</g>
		<g>
			<rect x="343.6" y="87.3" class="st10" width="7.8" height="3.6"/>
			<g>
				<rect x="339.4" y="79.4" class="st10" width="7.8" height="3.6"/>
				<rect x="347.8" y="83" class="st10" width="7.8" height="3.6"/>
			</g>
		</g>
		<rect x="285.9" y="125.8" class="st10" width="7.7" height="3.6"/>
		<g>
			<rect x="281.7" y="121.5" class="st10" width="7.8" height="3.6"/>
		</g>
		<g>
			<rect x="322.8" y="129.1" class="st10" width="7.8" height="3.6"/>
		</g>
		<g>
			<rect x="347.4" y="168.2" class="st10" width="7.8" height="3.6"/>
		</g>
		<g>
			<rect x="304.5" y="162.4" class="st10" width="7.8" height="3.6"/>
		</g>
	</g>
	<linearGradient id="SVGID_31_" gradientUnits="userSpaceOnUse" x1="318.6404" y1="177.1429" x2="318.6404" y2="200.6183">
		<stop  offset="0" style="stop-color:#FFFFFF"/>
		<stop  offset="1" style="stop-color:#B5B5B5"/>
	</linearGradient>
	<rect x="281.7" y="176" class="st61" width="73.9" height="13.7"/>
	<rect x="278.5" y="193.7" class="st10" width="80.3" height="8"/>
	<g>
		<linearGradient id="SVGID_32_" gradientUnits="userSpaceOnUse" x1="318.6404" y1="127.032" x2="318.6404" y2="115.7034">
			<stop  offset="0" style="stop-color:#FFFFFF"/>
			<stop  offset="0.3569" style="stop-color:#E8E8E8"/>
			<stop  offset="1" style="stop-color:#B5B5B5"/>
		</linearGradient>
		<rect x="281.7" y="111.2" class="st62" width="73.9" height="15.6"/>
		<rect x="280.5" y="111.2" class="st30" width="76.6" height="6.5"/>
		<rect x="280.5" y="111.2" class="st7" width="76.6" height="2.3"/>
	</g>
	<g>
		<path class="st16" d="M318.6,60.7c-4.1,0-7.5,3.3-7.5,7.5v12.6h15V68.2C326.1,64,322.8,60.7,318.6,60.7z"/>
		<path class="st63" d="M318.6,62c-3.4,0-6.1,2.8-6.1,6.1v11.3h12.3V68.2C324.8,64.8,322,62,318.6,62z"/>
		<path class="st22" d="M322,63l-9.5,16.4h12.3V68.2C324.8,66,323.7,64.1,322,63z"/>
		<rect x="317.9" y="62" class="st16" width="1.4" height="17.4"/>
		<rect x="311.3" y="70.8" class="st16" width="14.6" height="1.4"/>
	</g>
	<g>
		<g>
			<path class="st16" d="M318.6,89.9c-4.1,0-7.5,3.3-7.5,7.5v12.6h15V97.4C326.1,93.3,322.8,89.9,318.6,89.9z"/>
			<path class="st63" d="M318.6,91.3c-3.4,0-6.2,2.8-6.2,6.1v11.3h12.3V97.4C324.8,94,322,91.3,318.6,91.3z"/>
			<path class="st22" d="M322,92.3l-9.5,16.4h12.3V97.4C324.8,95.3,323.7,93.4,322,92.3z"/>
			<rect x="317.9" y="91.3" class="st16" width="1.4" height="17.4"/>
			<rect x="311.3" y="100.1" class="st16" width="14.6" height="1.4"/>
		</g>
		<g>
			<path class="st16" d="M338.9,89.9c-4.1,0-7.5,3.3-7.5,7.5v12.6h15V97.4C346.4,93.3,343,89.9,338.9,89.9z"/>
			<path class="st63" d="M338.9,91.3c-3.4,0-6.2,2.8-6.2,6.1v11.3h12.3V97.4C345.1,94,342.3,91.3,338.9,91.3z"/>
			<path class="st22" d="M342.3,92.3l-9.5,16.4h12.3V97.4C345.1,95.3,343.9,93.4,342.3,92.3z"/>
			<rect x="338.2" y="91.3" class="st16" width="1.4" height="17.4"/>
			<rect x="331.6" y="100.1" class="st16" width="14.6" height="1.4"/>
		</g>
		<g>
			<path class="st16" d="M298.4,89.9c-4.1,0-7.5,3.3-7.5,7.5v12.6h15V97.4C305.8,93.3,302.5,89.9,298.4,89.9z"/>
			<path class="st63" d="M298.4,91.3c-3.4,0-6.1,2.8-6.1,6.1v11.3h12.3V97.4C304.5,94,301.8,91.3,298.4,91.3z"/>
			<path class="st22" d="M301.7,92.3l-9.5,16.4h12.3V97.4C304.5,95.3,303.4,93.4,301.7,92.3z"/>
			<rect x="297.6" y="91.3" class="st16" width="1.4" height="17.4"/>
			<rect x="291.1" y="100.1" class="st16" width="14.6" height="1.4"/>
		</g>
	</g>
	<g>
		<g>
			<path class="st16" d="M318.6,165.9c-4.1,0-7.5,3.3-7.5,7.5V186h15v-12.6C326.1,169.2,322.8,165.9,318.6,165.9z"/>
			<path class="st63" d="M318.6,167.2c-3.4,0-6.2,2.8-6.2,6.1v11.3h12.3v-11.3C324.8,170,322,167.2,318.6,167.2z"/>
			<path class="st22" d="M322,168.2l-9.5,16.4h12.3v-11.3C324.8,171.2,323.7,169.3,322,168.2z"/>
			<rect x="317.9" y="167.2" class="st16" width="1.4" height="17.4"/>
			<rect x="311.3" y="176" class="st16" width="14.6" height="1.4"/>
		</g>
		<g>
			<path class="st16" d="M338.9,165.9c-4.1,0-7.5,3.3-7.5,7.5V186h15v-12.6C346.4,169.2,343,165.9,338.9,165.9z"/>
			<path class="st63" d="M338.9,167.2c-3.4,0-6.2,2.8-6.2,6.1v11.3h12.3v-11.3C345.1,170,342.3,167.2,338.9,167.2z"/>
			<path class="st22" d="M342.3,168.2l-9.5,16.4h12.3v-11.3C345.1,171.2,343.9,169.3,342.3,168.2z"/>
			<rect x="338.2" y="167.2" class="st16" width="1.4" height="17.4"/>
			<rect x="331.6" y="176" class="st16" width="14.6" height="1.4"/>
		</g>
		<g>
			<path class="st16" d="M298.4,165.9c-4.1,0-7.5,3.3-7.5,7.5V186h15v-12.6C305.8,169.2,302.5,165.9,298.4,165.9z"/>
			<path class="st63" d="M298.4,167.2c-3.4,0-6.1,2.8-6.1,6.1v11.3h12.3v-11.3C304.5,170,301.8,167.2,298.4,167.2z"/>
			<path class="st22" d="M301.7,168.2l-9.5,16.4h12.3v-11.3C304.5,171.2,303.4,169.3,301.7,168.2z"/>
			<rect x="297.6" y="167.2" class="st16" width="1.4" height="17.4"/>
			<rect x="291.1" y="176" class="st16" width="14.6" height="1.4"/>
		</g>
	</g>
	<g>
		<linearGradient id="SVGID_33_" gradientUnits="userSpaceOnUse" x1="318.6404" y1="166.7259" x2="318.6404" y2="155.3969">
			<stop  offset="0" style="stop-color:#FFFFFF"/>
			<stop  offset="0.3569" style="stop-color:#E8E8E8"/>
			<stop  offset="1" style="stop-color:#B5B5B5"/>
		</linearGradient>
		<rect x="281.7" y="150.9" class="st64" width="73.9" height="15.6"/>
		<rect x="280.5" y="150.9" class="st30" width="76.6" height="6.5"/>
		<rect x="280.5" y="150.9" class="st7" width="76.6" height="2.3"/>
	</g>
	<g>
		<rect x="280.5" y="187.4" class="st30" width="76.6" height="6.5"/>
		<rect x="280.5" y="187.4" class="st7" width="76.6" height="2.3"/>
	</g>
	<g>
		<g>
			<path class="st16" d="M338.9,129.6c-4.1,0-7.5,3.3-7.5,7.5v12.6h15v-12.6C346.4,133,343,129.6,338.9,129.6z"/>
			<path class="st63" d="M338.9,131c-3.4,0-6.2,2.8-6.2,6.1v11.3h12.3v-11.3C345.1,133.7,342.3,131,338.9,131z"/>
			<path class="st22" d="M342.3,132l-9.5,16.4h12.3v-11.3C345.1,135,343.9,133.1,342.3,132z"/>
			<rect x="338.2" y="131" class="st16" width="1.4" height="17.5"/>
			<rect x="331.6" y="139.8" class="st16" width="14.6" height="1.4"/>
		</g>
		<g>
			<path class="st16" d="M298.4,129.6c-4.1,0-7.5,3.3-7.5,7.5v12.6h15v-12.6C305.8,133,302.5,129.6,298.4,129.6z"/>
			<path class="st63" d="M298.4,131c-3.4,0-6.1,2.8-6.1,6.1v11.3h12.3v-11.3C304.5,133.7,301.8,131,298.4,131z"/>
			<path class="st22" d="M301.7,132l-9.5,16.4h12.3v-11.3C304.5,135,303.4,133.1,301.7,132z"/>
			<rect x="297.6" y="131" class="st16" width="1.4" height="17.5"/>
			<rect x="291.1" y="139.8" class="st16" width="14.6" height="1.4"/>
		</g>
	</g>
</g>
<g id="house_with_tiled_roof">
	<rect x="355.5" y="72.1" class="st28" width="66.5" height="125.6"/>
	<rect x="414.3" y="179.5" class="st65" width="7.8" height="3.6"/>
	<rect x="412.1" y="175.3" class="st65" width="7.7" height="3.6"/>
	<g>
		<rect x="358.4" y="131.1" class="st65" width="7.8" height="3.6"/>
		<g>
			<rect x="355.6" y="126.8" class="st65" width="7.8" height="3.6"/>
		</g>
	</g>
	<g>
		<rect x="393.8" y="185.2" class="st65" width="7.8" height="3.6"/>
		<rect x="389.7" y="189.3" class="st65" width="7.8" height="3.6"/>
		<rect x="385.6" y="185.2" class="st65" width="7.8" height="3.6"/>
		<rect x="397.9" y="189.3" class="st65" width="7.7" height="3.6"/>
		<rect x="402" y="185.2" class="st65" width="7.8" height="3.6"/>
		<rect x="406.1" y="189.3" class="st65" width="7.8" height="3.6"/>
		<rect x="414.3" y="189.3" class="st65" width="7.8" height="3.6"/>
		<rect x="418.4" y="185.2" class="st65" width="3.7" height="3.6"/>
		<rect x="410.2" y="185.2" class="st65" width="7.7" height="3.6"/>
		<rect x="381.5" y="189.3" class="st65" width="7.8" height="3.6"/>
		<rect x="377.4" y="185.2" class="st65" width="7.8" height="3.6"/>
	</g>
	<g>
		<rect x="355.5" y="185.2" class="st65" width="3.6" height="3.6"/>
		<rect x="355.5" y="189.3" class="st65" width="7.7" height="3.6"/>
		<rect x="363.7" y="189.3" class="st65" width="7.8" height="3.6"/>
		<rect x="359.6" y="185.2" class="st65" width="7.8" height="3.6"/>
		<rect x="367.8" y="185.2" class="st65" width="7.8" height="3.6"/>
	</g>
	<linearGradient id="SVGID_34_" gradientUnits="userSpaceOnUse" x1="388.7632" y1="202.3807" x2="388.7632" y2="181.195">
		<stop  offset="0" style="stop-color:#9F9F9F"/>
		<stop  offset="0.9072" style="stop-color:#F6F6F6"/>
		<stop  offset="1" style="stop-color:#FFFFFF"/>
	</linearGradient>
	<rect x="355.5" y="180.3" class="st66" width="66.5" height="17.4"/>
	<linearGradient id="SVGID_35_" gradientUnits="userSpaceOnUse" x1="388.7632" y1="117.189" x2="388.7632" y2="134.6976">
		<stop  offset="0" style="stop-color:#9F9F9F"/>
		<stop  offset="0.9072" style="stop-color:#F6F6F6"/>
		<stop  offset="1" style="stop-color:#FFFFFF"/>
	</linearGradient>
	<rect x="355.5" y="117.1" class="st67" width="66.5" height="17.4"/>
	<rect x="352.3" y="193.7" class="st65" width="72.9" height="8"/>
	<rect x="355.5" y="61.9" class="st65" width="66.5" height="59.3"/>
	<g>
		<linearGradient id="SVGID_36_" gradientUnits="userSpaceOnUse" x1="388.792" y1="121.2512" x2="388.792" y2="128.3072">
			<stop  offset="0" style="stop-color:#9F9F9F"/>
			<stop  offset="0.1239" style="stop-color:#ACACAC"/>
			<stop  offset="0.7167" style="stop-color:#E8E8E8"/>
			<stop  offset="1" style="stop-color:#FFFFFF"/>
		</linearGradient>
		<path class="st68" d="M419,117.3c-1.7,0-3,1.4-3,3c0-1.7-1.4-3-3-3c-1.7,0-3,1.4-3,3c0-1.7-1.4-3-3-3c-1.7,0-3,1.4-3,3
			c0-1.7-1.4-3-3-3c-1.7,0-3,1.4-3,3c0-1.7-1.4-3-3-3c-1.7,0-3,1.4-3,3c0-1.7-1.4-3-3-3c-1.7,0-3,1.4-3,3c0-1.7-1.4-3-3-3
			c-1.7,0-3,1.4-3,3c0-1.7-1.3-3-3-3c-1.7,0-3,1.4-3,3c0-1.7-1.3-3-3-3c-1.7,0-3,1.4-3,3c0-1.7-1.4-3-3-3c-1.7,0-3,1.4-3,3
			c0-1.7-1.4-3-3-3c-1.7,0-3,1.4-3,3v4.8c0,1.7,1.4,3,3,3c1.7,0,3-1.4,3-3c0,1.7,1.4,3,3,3c1.7,0,3-1.4,3-3c0,1.7,1.4,3,3,3
			c1.7,0,3-1.4,3-3c0,1.7,1.4,3,3,3c1.7,0,3-1.4,3-3c0,1.7,1.4,3,3,3c1.7,0,3-1.4,3-3c0,1.7,1.4,3,3,3c1.7,0,3-1.4,3-3
			c0,1.7,1.4,3,3,3c1.7,0,3-1.4,3-3c0,1.7,1.4,3,3,3c1.7,0,3-1.4,3-3c0,1.7,1.4,3,3,3c1.7,0,3-1.4,3-3c0,1.7,1.3,3,3,3
			c1.7,0,3-1.4,3-3c0,1.7,1.4,3,3,3c1.7,0,3-1.4,3-3v-4.8C422,118.7,420.7,117.3,419,117.3z"/>
		<g>
			<path class="st17" d="M358.6,113.4c-1.7,0-3,1.4-3,3v4.8c0,1.7,1.4,3,3,3c1.7,0,3-1.4,3-3v-4.8
				C361.6,114.7,360.3,113.4,358.6,113.4z"/>
			<path class="st65" d="M364.6,113.4c-1.7,0-3,1.4-3,3v4.8c0,1.7,1.4,3,3,3c1.7,0,3-1.4,3-3v-4.8
				C367.7,114.7,366.3,113.4,364.6,113.4z"/>
			<path class="st65" d="M370.7,113.4c-1.7,0-3,1.4-3,3v4.8c0,1.7,1.4,3,3,3c1.7,0,3-1.4,3-3v-4.8
				C373.7,114.7,372.3,113.4,370.7,113.4z"/>
			<path class="st17" d="M376.7,113.4c-1.7,0-3,1.4-3,3v4.8c0,1.7,1.4,3,3,3c1.7,0,3-1.4,3-3v-4.8
				C379.7,114.7,378.4,113.4,376.7,113.4z"/>
			<path class="st17" d="M382.8,113.4c-1.7,0-3,1.4-3,3v4.8c0,1.7,1.4,3,3,3c1.7,0,3-1.4,3-3v-4.8
				C385.8,114.7,384.4,113.4,382.8,113.4z"/>
			<path class="st65" d="M388.8,113.4c-1.7,0-3,1.4-3,3v4.8c0,1.7,1.4,3,3,3c1.7,0,3-1.4,3-3v-4.8
				C391.8,114.7,390.5,113.4,388.8,113.4z"/>
			<path class="st17" d="M394.8,113.4c-1.7,0-3,1.4-3,3v4.8c0,1.7,1.4,3,3,3c1.7,0,3-1.4,3-3v-4.8
				C397.9,114.7,396.5,113.4,394.8,113.4z"/>
			<path class="st65" d="M400.9,113.4c-1.7,0-3,1.4-3,3v4.8c0,1.7,1.4,3,3,3c1.7,0,3-1.4,3-3v-4.8
				C403.9,114.7,402.5,113.4,400.9,113.4z"/>
			<path class="st17" d="M406.9,113.4c-1.7,0-3,1.4-3,3v4.8c0,1.7,1.4,3,3,3c1.7,0,3-1.4,3-3v-4.8
				C409.9,114.7,408.6,113.4,406.9,113.4z"/>
			<path class="st65" d="M412.9,113.4c-1.7,0-3,1.4-3,3v4.8c0,1.7,1.3,3,3,3c1.7,0,3-1.4,3-3v-4.8
				C416,114.7,414.6,113.4,412.9,113.4z"/>
			<path class="st17" d="M419,113.4c-1.7,0-3,1.4-3,3v4.8c0,1.7,1.4,3,3,3c1.7,0,3-1.4,3-3v-4.8C422,114.7,420.7,113.4,419,113.4z"
				/>
		</g>
		<g>
			<path class="st30" d="M362.4,107.9c-1.7,0-3,1.4-3,3v4.8c0,1.7,1.4,3,3,3c1.7,0,3-1.4,3-3V111
				C365.5,109.3,364.1,107.9,362.4,107.9z"/>
			<path class="st28" d="M356.4,107.9c-1.7,0-3,1.4-3,3v4.8c0,1.7,1.4,3,3,3c1.7,0,3-1.4,3-3V111
				C359.4,109.3,358.1,107.9,356.4,107.9z"/>
			<path class="st28" d="M368.5,107.9c-1.7,0-3,1.4-3,3v4.8c0,1.7,1.4,3,3,3c1.7,0,3-1.4,3-3V111
				C371.5,109.3,370.1,107.9,368.5,107.9z"/>
			<path class="st30" d="M374.5,107.9c-1.7,0-3,1.4-3,3v4.8c0,1.7,1.4,3,3,3c1.7,0,3-1.4,3-3V111
				C377.5,109.3,376.2,107.9,374.5,107.9z"/>
			<path class="st28" d="M380.6,107.9c-1.7,0-3,1.4-3,3v4.8c0,1.7,1.4,3,3,3c1.7,0,3-1.4,3-3V111
				C383.6,109.3,382.2,107.9,380.6,107.9z"/>
			<path class="st30" d="M386.6,107.9c-1.7,0-3,1.4-3,3v4.8c0,1.7,1.4,3,3,3c1.7,0,3-1.4,3-3V111
				C389.6,109.3,388.3,107.9,386.6,107.9z"/>
			<path class="st30" d="M392.6,107.9c-1.7,0-3,1.4-3,3v4.8c0,1.7,1.3,3,3,3c1.7,0,3-1.4,3-3V111
				C395.7,109.3,394.3,107.9,392.6,107.9z"/>
			<path class="st30" d="M398.7,107.9c-1.7,0-3,1.4-3,3v4.8c0,1.7,1.4,3,3,3c1.7,0,3-1.4,3-3V111
				C401.7,109.3,400.3,107.9,398.7,107.9z"/>
			<path class="st28" d="M404.7,107.9c-1.7,0-3,1.4-3,3v4.8c0,1.7,1.4,3,3,3c1.7,0,3-1.4,3-3V111
				C407.7,109.3,406.4,107.9,404.7,107.9z"/>
			<path class="st28" d="M410.8,107.9c-1.7,0-3,1.4-3,3v4.8c0,1.7,1.4,3,3,3s3-1.4,3-3V111C413.8,109.3,412.4,107.9,410.8,107.9z"/>
			<path class="st30" d="M416.8,107.9c-1.7,0-3,1.4-3,3v4.8c0,1.7,1.4,3,3,3c1.7,0,3-1.4,3-3V111
				C419.8,109.3,418.5,107.9,416.8,107.9z"/>
			<path class="st28" d="M422.8,107.9c-1.7,0-3,1.4-3,3v4.8c0,1.7,1.4,3,3,3c1.7,0,3-1.4,3-3V111
				C425.8,109.3,424.5,107.9,422.8,107.9z"/>
		</g>
		<g>
			<path class="st65" d="M358.6,102.5c-1.7,0-3,1.4-3,3v4.8c0,1.7,1.4,3,3,3c1.7,0,3-1.4,3-3v-4.8
				C361.6,103.8,360.3,102.5,358.6,102.5z"/>
			<path class="st65" d="M364.6,102.5c-1.7,0-3,1.4-3,3v4.8c0,1.7,1.4,3,3,3c1.7,0,3-1.4,3-3v-4.8
				C367.7,103.8,366.3,102.5,364.6,102.5z"/>
			<path class="st17" d="M370.7,102.5c-1.7,0-3,1.4-3,3v4.8c0,1.7,1.4,3,3,3c1.7,0,3-1.4,3-3v-4.8
				C373.7,103.8,372.3,102.5,370.7,102.5z"/>
			<path class="st65" d="M376.7,102.5c-1.7,0-3,1.4-3,3v4.8c0,1.7,1.4,3,3,3c1.7,0,3-1.4,3-3v-4.8
				C379.7,103.8,378.4,102.5,376.7,102.5z"/>
			<path class="st17" d="M382.8,102.5c-1.7,0-3,1.4-3,3v4.8c0,1.7,1.4,3,3,3c1.7,0,3-1.4,3-3v-4.8
				C385.8,103.8,384.4,102.5,382.8,102.5z"/>
			<path class="st65" d="M388.8,102.5c-1.7,0-3,1.4-3,3v4.8c0,1.7,1.4,3,3,3c1.7,0,3-1.4,3-3v-4.8
				C391.8,103.8,390.5,102.5,388.8,102.5z"/>
			<path class="st65" d="M394.8,102.5c-1.7,0-3,1.4-3,3v4.8c0,1.7,1.4,3,3,3c1.7,0,3-1.4,3-3v-4.8
				C397.9,103.8,396.5,102.5,394.8,102.5z"/>
			<path class="st17" d="M400.9,102.5c-1.7,0-3,1.4-3,3v4.8c0,1.7,1.4,3,3,3c1.7,0,3-1.4,3-3v-4.8
				C403.9,103.8,402.5,102.5,400.9,102.5z"/>
			<path class="st17" d="M406.9,102.5c-1.7,0-3,1.4-3,3v4.8c0,1.7,1.4,3,3,3c1.7,0,3-1.4,3-3v-4.8
				C409.9,103.8,408.6,102.5,406.9,102.5z"/>
			<path class="st17" d="M412.9,102.5c-1.7,0-3,1.4-3,3v4.8c0,1.7,1.3,3,3,3c1.7,0,3-1.4,3-3v-4.8
				C416,103.8,414.6,102.5,412.9,102.5z"/>
			<path class="st65" d="M419,102.5c-1.7,0-3,1.4-3,3v4.8c0,1.7,1.4,3,3,3c1.7,0,3-1.4,3-3v-4.8C422,103.8,420.7,102.5,419,102.5z"
				/>
		</g>
		<g>
			<path class="st28" d="M362.4,97c-1.7,0-3,1.4-3,3v4.8c0,1.7,1.4,3,3,3c1.7,0,3-1.4,3-3v-4.8C365.5,98.4,364.1,97,362.4,97z"/>
			<path class="st28" d="M356.4,97c-1.7,0-3,1.4-3,3v4.8c0,1.7,1.4,3,3,3c1.7,0,3-1.4,3-3v-4.8C359.4,98.4,358.1,97,356.4,97z"/>
			<path class="st30" d="M368.5,97c-1.7,0-3,1.4-3,3v4.8c0,1.7,1.4,3,3,3c1.7,0,3-1.4,3-3v-4.8C371.5,98.4,370.1,97,368.5,97z"/>
			<path class="st28" d="M374.5,97c-1.7,0-3,1.4-3,3v4.8c0,1.7,1.4,3,3,3c1.7,0,3-1.4,3-3v-4.8C377.5,98.4,376.2,97,374.5,97z"/>
			<path class="st30" d="M380.6,97c-1.7,0-3,1.4-3,3v4.8c0,1.7,1.4,3,3,3c1.7,0,3-1.4,3-3v-4.8C383.6,98.4,382.2,97,380.6,97z"/>
			<path class="st30" d="M386.6,97c-1.7,0-3,1.4-3,3v4.8c0,1.7,1.4,3,3,3c1.7,0,3-1.4,3-3v-4.8C389.6,98.4,388.3,97,386.6,97z"/>
			<path class="st28" d="M392.6,97c-1.7,0-3,1.4-3,3v4.8c0,1.7,1.3,3,3,3c1.7,0,3-1.4,3-3v-4.8C395.7,98.4,394.3,97,392.6,97z"/>
			<path class="st30" d="M398.7,97c-1.7,0-3,1.4-3,3v4.8c0,1.7,1.4,3,3,3c1.7,0,3-1.4,3-3v-4.8C401.7,98.4,400.3,97,398.7,97z"/>
			<path class="st28" d="M404.7,97c-1.7,0-3,1.4-3,3v4.8c0,1.7,1.4,3,3,3c1.7,0,3-1.4,3-3v-4.8C407.7,98.4,406.4,97,404.7,97z"/>
			<path class="st28" d="M410.8,97c-1.7,0-3,1.4-3,3v4.8c0,1.7,1.4,3,3,3s3-1.4,3-3v-4.8C413.8,98.4,412.4,97,410.8,97z"/>
			<path class="st28" d="M416.8,97c-1.7,0-3,1.4-3,3v4.8c0,1.7,1.4,3,3,3c1.7,0,3-1.4,3-3v-4.8C419.8,98.4,418.5,97,416.8,97z"/>
			<path class="st30" d="M422.8,97c-1.7,0-3,1.4-3,3v4.8c0,1.7,1.4,3,3,3c1.7,0,3-1.4,3-3v-4.8C425.8,98.4,424.5,97,422.8,97z"/>
		</g>
		<g>
			<path class="st17" d="M358.6,91.6c-1.7,0-3,1.4-3,3v4.8c0,1.7,1.4,3,3,3c1.7,0,3-1.4,3-3v-4.8C361.6,92.9,360.3,91.6,358.6,91.6z
				"/>
			<path class="st17" d="M364.6,91.6c-1.7,0-3,1.4-3,3v4.8c0,1.7,1.4,3,3,3c1.7,0,3-1.4,3-3v-4.8C367.7,92.9,366.3,91.6,364.6,91.6z
				"/>
			<path class="st65" d="M370.7,91.6c-1.7,0-3,1.4-3,3v4.8c0,1.7,1.4,3,3,3c1.7,0,3-1.4,3-3v-4.8C373.7,92.9,372.3,91.6,370.7,91.6z
				"/>
			<path class="st65" d="M376.7,91.6c-1.7,0-3,1.4-3,3v4.8c0,1.7,1.4,3,3,3c1.7,0,3-1.4,3-3v-4.8C379.7,92.9,378.4,91.6,376.7,91.6z
				"/>
			<path class="st65" d="M382.8,91.6c-1.7,0-3,1.4-3,3v4.8c0,1.7,1.4,3,3,3c1.7,0,3-1.4,3-3v-4.8C385.8,92.9,384.4,91.6,382.8,91.6z
				"/>
			<path class="st65" d="M388.8,91.6c-1.7,0-3,1.4-3,3v4.8c0,1.7,1.4,3,3,3c1.7,0,3-1.4,3-3v-4.8C391.8,92.9,390.5,91.6,388.8,91.6z
				"/>
			<path class="st17" d="M394.8,91.6c-1.7,0-3,1.4-3,3v4.8c0,1.7,1.4,3,3,3c1.7,0,3-1.4,3-3v-4.8C397.9,92.9,396.5,91.6,394.8,91.6z
				"/>
			<path class="st65" d="M400.9,91.6c-1.7,0-3,1.4-3,3v4.8c0,1.7,1.4,3,3,3c1.7,0,3-1.4,3-3v-4.8C403.9,92.9,402.5,91.6,400.9,91.6z
				"/>
			<path class="st17" d="M406.9,91.6c-1.7,0-3,1.4-3,3v4.8c0,1.7,1.4,3,3,3c1.7,0,3-1.4,3-3v-4.8C409.9,92.9,408.6,91.6,406.9,91.6z
				"/>
			<path class="st65" d="M412.9,91.6c-1.7,0-3,1.4-3,3v4.8c0,1.7,1.3,3,3,3c1.7,0,3-1.4,3-3v-4.8C416,92.9,414.6,91.6,412.9,91.6z"
				/>
			<path class="st65" d="M419,91.6c-1.7,0-3,1.4-3,3v4.8c0,1.7,1.4,3,3,3c1.7,0,3-1.4,3-3v-4.8C422,92.9,420.7,91.6,419,91.6z"/>
		</g>
		<g>
			<path class="st30" d="M362.4,86.1c-1.7,0-3,1.4-3,3v4.8c0,1.7,1.4,3,3,3c1.7,0,3-1.4,3-3v-4.8C365.5,87.4,364.1,86.1,362.4,86.1z
				"/>
			<path class="st30" d="M356.4,86.1c-1.7,0-3,1.4-3,3v4.8c0,1.7,1.4,3,3,3c1.7,0,3-1.4,3-3v-4.8C359.4,87.4,358.1,86.1,356.4,86.1z
				"/>
			<path class="st30" d="M368.5,86.1c-1.7,0-3,1.4-3,3v4.8c0,1.7,1.4,3,3,3c1.7,0,3-1.4,3-3v-4.8C371.5,87.4,370.1,86.1,368.5,86.1z
				"/>
			<path class="st28" d="M374.5,86.1c-1.7,0-3,1.4-3,3v4.8c0,1.7,1.4,3,3,3c1.7,0,3-1.4,3-3v-4.8C377.5,87.4,376.2,86.1,374.5,86.1z
				"/>
			<path class="st30" d="M380.6,86.1c-1.7,0-3,1.4-3,3v4.8c0,1.7,1.4,3,3,3c1.7,0,3-1.4,3-3v-4.8C383.6,87.4,382.2,86.1,380.6,86.1z
				"/>
			<path class="st28" d="M386.6,86.1c-1.7,0-3,1.4-3,3v4.8c0,1.7,1.4,3,3,3c1.7,0,3-1.4,3-3v-4.8C389.6,87.4,388.3,86.1,386.6,86.1z
				"/>
			<path class="st28" d="M392.6,86.1c-1.7,0-3,1.4-3,3v4.8c0,1.7,1.3,3,3,3c1.7,0,3-1.4,3-3v-4.8C395.7,87.4,394.3,86.1,392.6,86.1z
				"/>
			<path class="st28" d="M398.7,86.1c-1.7,0-3,1.4-3,3v4.8c0,1.7,1.4,3,3,3c1.7,0,3-1.4,3-3v-4.8C401.7,87.4,400.3,86.1,398.7,86.1z
				"/>
			<path class="st30" d="M404.7,86.1c-1.7,0-3,1.4-3,3v4.8c0,1.7,1.4,3,3,3c1.7,0,3-1.4,3-3v-4.8C407.7,87.4,406.4,86.1,404.7,86.1z
				"/>
			<path class="st28" d="M410.8,86.1c-1.7,0-3,1.4-3,3v4.8c0,1.7,1.4,3,3,3s3-1.4,3-3v-4.8C413.8,87.4,412.4,86.1,410.8,86.1z"/>
			<path class="st30" d="M416.8,86.1c-1.7,0-3,1.4-3,3v4.8c0,1.7,1.4,3,3,3c1.7,0,3-1.4,3-3v-4.8C419.8,87.4,418.5,86.1,416.8,86.1z
				"/>
			<path class="st28" d="M422.8,86.1c-1.7,0-3,1.4-3,3v4.8c0,1.7,1.4,3,3,3c1.7,0,3-1.4,3-3v-4.8C425.8,87.4,424.5,86.1,422.8,86.1z
				"/>
		</g>
		<g>
			<path class="st65" d="M358.6,80.6c-1.7,0-3,1.4-3,3v4.8c0,1.7,1.4,3,3,3c1.7,0,3-1.4,3-3v-4.8C361.6,82,360.3,80.6,358.6,80.6z"
				/>
			<path class="st17" d="M364.6,80.6c-1.7,0-3,1.4-3,3v4.8c0,1.7,1.4,3,3,3c1.7,0,3-1.4,3-3v-4.8C367.7,82,366.3,80.6,364.6,80.6z"
				/>
			<path class="st65" d="M370.7,80.6c-1.7,0-3,1.4-3,3v4.8c0,1.7,1.4,3,3,3c1.7,0,3-1.4,3-3v-4.8C373.7,82,372.3,80.6,370.7,80.6z"
				/>
			<path class="st17" d="M376.7,80.6c-1.7,0-3,1.4-3,3v4.8c0,1.7,1.4,3,3,3c1.7,0,3-1.4,3-3v-4.8C379.7,82,378.4,80.6,376.7,80.6z"
				/>
			<path class="st65" d="M382.8,80.6c-1.7,0-3,1.4-3,3v4.8c0,1.7,1.4,3,3,3c1.7,0,3-1.4,3-3v-4.8C385.8,82,384.4,80.6,382.8,80.6z"
				/>
			<path class="st65" d="M388.8,80.6c-1.7,0-3,1.4-3,3v4.8c0,1.7,1.4,3,3,3c1.7,0,3-1.4,3-3v-4.8C391.8,82,390.5,80.6,388.8,80.6z"
				/>
			<path class="st65" d="M394.8,80.6c-1.7,0-3,1.4-3,3v4.8c0,1.7,1.4,3,3,3c1.7,0,3-1.4,3-3v-4.8C397.9,82,396.5,80.6,394.8,80.6z"
				/>
			<path class="st17" d="M400.9,80.6c-1.7,0-3,1.4-3,3v4.8c0,1.7,1.4,3,3,3c1.7,0,3-1.4,3-3v-4.8C403.9,82,402.5,80.6,400.9,80.6z"
				/>
			<path class="st65" d="M406.9,80.6c-1.7,0-3,1.4-3,3v4.8c0,1.7,1.4,3,3,3c1.7,0,3-1.4,3-3v-4.8C409.9,82,408.6,80.6,406.9,80.6z"
				/>
			<path class="st17" d="M412.9,80.6c-1.7,0-3,1.4-3,3v4.8c0,1.7,1.3,3,3,3c1.7,0,3-1.4,3-3v-4.8C416,82,414.6,80.6,412.9,80.6z"/>
			<path class="st17" d="M419,80.6c-1.7,0-3,1.4-3,3v4.8c0,1.7,1.4,3,3,3c1.7,0,3-1.4,3-3v-4.8C422,82,420.7,80.6,419,80.6z"/>
		</g>
		<g>
			<path class="st30" d="M362.4,75.2c-1.7,0-3,1.4-3,3V83c0,1.7,1.4,3,3,3c1.7,0,3-1.4,3-3v-4.8C365.5,76.5,364.1,75.2,362.4,75.2z"
				/>
			<path class="st28" d="M356.4,75.2c-1.7,0-3,1.4-3,3V83c0,1.7,1.4,3,3,3c1.7,0,3-1.4,3-3v-4.8C359.4,76.5,358.1,75.2,356.4,75.2z"
				/>
			<path class="st28" d="M368.5,75.2c-1.7,0-3,1.4-3,3V83c0,1.7,1.4,3,3,3c1.7,0,3-1.4,3-3v-4.8C371.5,76.5,370.1,75.2,368.5,75.2z"
				/>
			<path class="st30" d="M374.5,75.2c-1.7,0-3,1.4-3,3V83c0,1.7,1.4,3,3,3c1.7,0,3-1.4,3-3v-4.8C377.5,76.5,376.2,75.2,374.5,75.2z"
				/>
			<path class="st28" d="M380.6,75.2c-1.7,0-3,1.4-3,3V83c0,1.7,1.4,3,3,3c1.7,0,3-1.4,3-3v-4.8C383.6,76.5,382.2,75.2,380.6,75.2z"
				/>
			<path class="st30" d="M386.6,75.2c-1.7,0-3,1.4-3,3V83c0,1.7,1.4,3,3,3c1.7,0,3-1.4,3-3v-4.8C389.6,76.5,388.3,75.2,386.6,75.2z"
				/>
			<path class="st30" d="M392.6,75.2c-1.7,0-3,1.4-3,3V83c0,1.7,1.3,3,3,3c1.7,0,3-1.4,3-3v-4.8C395.7,76.5,394.3,75.2,392.6,75.2z"
				/>
			<path class="st28" d="M398.7,75.2c-1.7,0-3,1.4-3,3V83c0,1.7,1.4,3,3,3c1.7,0,3-1.4,3-3v-4.8C401.7,76.5,400.3,75.2,398.7,75.2z"
				/>
			<path class="st30" d="M404.7,75.2c-1.7,0-3,1.4-3,3V83c0,1.7,1.4,3,3,3c1.7,0,3-1.4,3-3v-4.8C407.7,76.5,406.4,75.2,404.7,75.2z"
				/>
			<path class="st28" d="M410.8,75.2c-1.7,0-3,1.4-3,3V83c0,1.7,1.4,3,3,3s3-1.4,3-3v-4.8C413.8,76.5,412.4,75.2,410.8,75.2z"/>
			<path class="st28" d="M416.8,75.2c-1.7,0-3,1.4-3,3V83c0,1.7,1.4,3,3,3c1.7,0,3-1.4,3-3v-4.8C419.8,76.5,418.5,75.2,416.8,75.2z"
				/>
			<path class="st28" d="M422.8,75.2c-1.7,0-3,1.4-3,3V83c0,1.7,1.4,3,3,3c1.7,0,3-1.4,3-3v-4.8C425.8,76.5,424.5,75.2,422.8,75.2z"
				/>
		</g>
		<g>
			<path class="st65" d="M358.6,69.7c-1.7,0-3,1.4-3,3v4.8c0,1.7,1.4,3,3,3c1.7,0,3-1.4,3-3v-4.8C361.6,71.1,360.3,69.7,358.6,69.7z
				"/>
			<path class="st65" d="M364.6,69.7c-1.7,0-3,1.4-3,3v4.8c0,1.7,1.4,3,3,3c1.7,0,3-1.4,3-3v-4.8C367.7,71.1,366.3,69.7,364.6,69.7z
				"/>
			<path class="st17" d="M370.7,69.7c-1.7,0-3,1.4-3,3v4.8c0,1.7,1.4,3,3,3c1.7,0,3-1.4,3-3v-4.8C373.7,71.1,372.3,69.7,370.7,69.7z
				"/>
			<path class="st65" d="M376.7,69.7c-1.7,0-3,1.4-3,3v4.8c0,1.7,1.4,3,3,3c1.7,0,3-1.4,3-3v-4.8C379.7,71.1,378.4,69.7,376.7,69.7z
				"/>
			<path class="st17" d="M382.8,69.7c-1.7,0-3,1.4-3,3v4.8c0,1.7,1.4,3,3,3c1.7,0,3-1.4,3-3v-4.8C385.8,71.1,384.4,69.7,382.8,69.7z
				"/>
			<path class="st65" d="M388.8,69.7c-1.7,0-3,1.4-3,3v4.8c0,1.7,1.4,3,3,3c1.7,0,3-1.4,3-3v-4.8C391.8,71.1,390.5,69.7,388.8,69.7z
				"/>
			<path class="st17" d="M394.8,69.7c-1.7,0-3,1.4-3,3v4.8c0,1.7,1.4,3,3,3c1.7,0,3-1.4,3-3v-4.8C397.9,71.1,396.5,69.7,394.8,69.7z
				"/>
			<path class="st17" d="M400.9,69.7c-1.7,0-3,1.4-3,3v4.8c0,1.7,1.4,3,3,3c1.7,0,3-1.4,3-3v-4.8C403.9,71.1,402.5,69.7,400.9,69.7z
				"/>
			<path class="st65" d="M406.9,69.7c-1.7,0-3,1.4-3,3v4.8c0,1.7,1.4,3,3,3c1.7,0,3-1.4,3-3v-4.8C409.9,71.1,408.6,69.7,406.9,69.7z
				"/>
			<path class="st65" d="M412.9,69.7c-1.7,0-3,1.4-3,3v4.8c0,1.7,1.3,3,3,3c1.7,0,3-1.4,3-3v-4.8C416,71.1,414.6,69.7,412.9,69.7z"
				/>
			<path class="st65" d="M419,69.7c-1.7,0-3,1.4-3,3v4.8c0,1.7,1.4,3,3,3c1.7,0,3-1.4,3-3v-4.8C422,71.1,420.7,69.7,419,69.7z"/>
		</g>
		<g>
			<path class="st30" d="M362.4,64.3c-1.7,0-3,1.4-3,3v4.8c0,1.7,1.4,3,3,3c1.7,0,3-1.4,3-3v-4.8C365.5,65.6,364.1,64.3,362.4,64.3z
				"/>
			<path class="st28" d="M356.4,64.3c-1.7,0-3,1.4-3,3v4.8c0,1.7,1.4,3,3,3c1.7,0,3-1.4,3-3v-4.8C359.4,65.6,358.1,64.3,356.4,64.3z
				"/>
			<path class="st28" d="M368.5,64.3c-1.7,0-3,1.4-3,3v4.8c0,1.7,1.4,3,3,3c1.7,0,3-1.4,3-3v-4.8C371.5,65.6,370.1,64.3,368.5,64.3z
				"/>
			<path class="st30" d="M374.5,64.3c-1.7,0-3,1.4-3,3v4.8c0,1.7,1.4,3,3,3c1.7,0,3-1.4,3-3v-4.8C377.5,65.6,376.2,64.3,374.5,64.3z
				"/>
			<path class="st28" d="M380.6,64.3c-1.7,0-3,1.4-3,3v4.8c0,1.7,1.4,3,3,3c1.7,0,3-1.4,3-3v-4.8C383.6,65.6,382.2,64.3,380.6,64.3z
				"/>
			<path class="st28" d="M386.6,64.3c-1.7,0-3,1.4-3,3v4.8c0,1.7,1.4,3,3,3c1.7,0,3-1.4,3-3v-4.8C389.6,65.6,388.3,64.3,386.6,64.3z
				"/>
			<path class="st28" d="M392.6,64.3c-1.7,0-3,1.4-3,3v4.8c0,1.7,1.3,3,3,3c1.7,0,3-1.4,3-3v-4.8C395.7,65.6,394.3,64.3,392.6,64.3z
				"/>
			<path class="st28" d="M398.7,64.3c-1.7,0-3,1.4-3,3v4.8c0,1.7,1.4,3,3,3c1.7,0,3-1.4,3-3v-4.8C401.7,65.6,400.3,64.3,398.7,64.3z
				"/>
			<path class="st30" d="M404.7,64.3c-1.7,0-3,1.4-3,3v4.8c0,1.7,1.4,3,3,3c1.7,0,3-1.4,3-3v-4.8C407.7,65.6,406.4,64.3,404.7,64.3z
				"/>
			<path class="st28" d="M410.8,64.3c-1.7,0-3,1.4-3,3v4.8c0,1.7,1.4,3,3,3s3-1.4,3-3v-4.8C413.8,65.6,412.4,64.3,410.8,64.3z"/>
			<path class="st30" d="M416.8,64.3c-1.7,0-3,1.4-3,3v4.8c0,1.7,1.4,3,3,3c1.7,0,3-1.4,3-3v-4.8C419.8,65.6,418.5,64.3,416.8,64.3z
				"/>
			<path class="st30" d="M422.8,64.3c-1.7,0-3,1.4-3,3v4.8c0,1.7,1.4,3,3,3c1.7,0,3-1.4,3-3v-4.8C425.8,65.6,424.5,64.3,422.8,64.3z
				"/>
		</g>
		<g>
			<path class="st65" d="M355.6,66.7c0,1.7,1.4,3,3,3c1.7,0,3-1.4,3-3V62h-6V66.7z"/>
			<path class="st17" d="M361.6,66.7c0,1.7,1.4,3,3,3c1.7,0,3-1.4,3-3V62h-6V66.7z"/>
			<path class="st17" d="M367.7,66.7c0,1.7,1.4,3,3,3c1.7,0,3-1.4,3-3V62h-6V66.7z"/>
			<path class="st65" d="M373.7,66.7c0,1.7,1.4,3,3,3c1.7,0,3-1.4,3-3V62h-6V66.7z"/>
			<path class="st17" d="M379.7,66.7c0,1.7,1.4,3,3,3c1.7,0,3-1.4,3-3V62h-6V66.7z"/>
			<path class="st65" d="M385.8,66.7c0,1.7,1.4,3,3,3c1.7,0,3-1.4,3-3V62h-6V66.7z"/>
			<path class="st65" d="M391.8,66.7c0,1.7,1.4,3,3,3c1.7,0,3-1.4,3-3V62h-6V66.7z"/>
			<path class="st17" d="M397.9,66.7c0,1.7,1.4,3,3,3c1.7,0,3-1.4,3-3V62h-6V66.7z"/>
			<path class="st65" d="M403.9,66.7c0,1.7,1.4,3,3,3c1.7,0,3-1.4,3-3V62h-6V66.7z"/>
			<path class="st17" d="M409.9,66.7c0,1.7,1.3,3,3,3c1.7,0,3-1.4,3-3V62h-6V66.7z"/>
			<path class="st65" d="M416,66.7c0,1.7,1.4,3,3,3c1.7,0,3-1.4,3-3V62h-6V66.7z"/>
		</g>
	</g>
	<rect x="350" y="57.8" class="st69" width="5.6" height="67.4"/>
	<rect x="422" y="57.8" class="st69" width="5.6" height="67.4"/>
	<rect x="425.8" y="57.8" class="st30" width="1.7" height="67.4"/>
	<rect x="350" y="57.8" class="st30" width="1.7" height="67.4"/>
	<g>
		<g>
			<rect x="360.7" y="160.7" class="st13" width="17.5" height="27.7"/>
			<rect x="362.3" y="162.2" class="st20" width="14.3" height="26.2"/>
			<polygon class="st65" points="362.3,188.4 376.6,188.4 376.6,162.8 362.3,187.6 			"/>
		</g>
		<circle class="st13" cx="364.9" cy="177.7" r="1.5"/>
	</g>
	<g>
		<g>
			<rect x="357.2" y="188" class="st20" width="24.5" height="4.6"/>
			<rect x="355.5" y="192.6" class="st20" width="27.7" height="4.6"/>
			<rect x="354.2" y="197.1" class="st20" width="30.4" height="4.6"/>
		</g>
		<rect x="357.2" y="190.7" class="st65" width="24.5" height="1.8"/>
		<rect x="355.5" y="195.3" class="st65" width="27.7" height="1.8"/>
		<rect x="354.2" y="199.9" class="st65" width="30.4" height="1.8"/>
	</g>
	<g>
		<linearGradient id="SVGID_37_" gradientUnits="userSpaceOnUse" x1="388.7632" y1="161.4624" x2="388.7632" y2="155.5318">
			<stop  offset="0" style="stop-color:#FFFFFF"/>
			<stop  offset="0.2833" style="stop-color:#E8E8E8"/>
			<stop  offset="0.8761" style="stop-color:#ACACAC"/>
			<stop  offset="1" style="stop-color:#9F9F9F"/>
		</linearGradient>
		<rect x="355.5" y="150.5" class="st70" width="66.5" height="11.3"/>
		<rect x="354" y="150.5" class="st71" width="69.9" height="6.5"/>
		<rect x="354" y="150.5" class="st72" width="69.9" height="2.3"/>
	</g>
	<g>
		<g>
			<rect x="402.7" y="129.7" class="st13" width="15.4" height="20.8"/>
			<rect x="403.7" y="130.8" class="st20" width="13.3" height="18.7"/>
			<polygon class="st65" points="403.8,149.5 417.1,149.5 417.1,130.8 414.6,130.8 			"/>
			<rect x="409.8" y="130.8" class="st13" width="1.1" height="18.7"/>
			<rect x="403.4" y="139.5" class="st13" width="14" height="1.1"/>
		</g>
		<g>
			<rect x="381.3" y="129.7" class="st13" width="15.4" height="20.8"/>
			<rect x="382.4" y="130.8" class="st20" width="13.3" height="18.7"/>
			<polygon class="st65" points="382.5,149.5 395.7,149.5 395.7,130.8 393.2,130.8 			"/>
			<rect x="388.5" y="130.8" class="st13" width="1.1" height="18.7"/>
			<rect x="382" y="139.5" class="st13" width="14" height="1.1"/>
		</g>
		<g>
			<rect x="402.7" y="160.7" class="st13" width="15.4" height="20.8"/>
			<rect x="403.7" y="161.8" class="st20" width="13.3" height="18.7"/>
			<polygon class="st65" points="403.8,180.5 417.1,180.5 417.1,161.8 414.6,161.8 			"/>
			<rect x="409.8" y="161.8" class="st13" width="1.1" height="18.7"/>
			<rect x="403.4" y="170.6" class="st13" width="14" height="1.1"/>
		</g>
		<g>
			<rect x="381.3" y="160.7" class="st13" width="15.4" height="20.8"/>
			<rect x="382.4" y="161.8" class="st20" width="13.3" height="18.7"/>
			<polygon class="st65" points="382.5,180.5 395.7,180.5 395.7,161.8 393.2,161.8 			"/>
			<rect x="388.5" y="161.8" class="st13" width="1.1" height="18.7"/>
			<rect x="382" y="170.6" class="st13" width="14" height="1.1"/>
		</g>
		<g>
			<rect x="359.9" y="129.7" class="st13" width="15.4" height="20.8"/>
			<rect x="361" y="130.8" class="st20" width="13.3" height="18.7"/>
			<polygon class="st65" points="361.1,149.5 374.3,149.5 374.3,130.8 371.9,130.8 			"/>
			<rect x="367.1" y="130.8" class="st13" width="1.1" height="18.7"/>
			<rect x="360.7" y="139.5" class="st13" width="14" height="1.1"/>
		</g>
	</g>
</g>
<g id="fir_trees">
	<g>
		<g>
			<g>
				<rect x="158.5" y="191" class="st43" width="2.9" height="10.7"/>
				<linearGradient id="SVGID_38_" gradientUnits="userSpaceOnUse" x1="159.989" y1="190.0661" x2="159.989" y2="197.692">
					<stop  offset="0" style="stop-color:#A2A2A2"/>
					<stop  offset="0.9356" style="stop-color:#F9F9F9"/>
					<stop  offset="1" style="stop-color:#FFFFFF"/>
				</linearGradient>
				<rect x="158.5" y="191.5" class="st73" width="2.9" height="6.7"/>
			</g>
			<g>
				<polygon class="st17" points="151,192.1 169,192.1 160,170.3 				"/>
				<polygon class="st23" points="160,192.1 169,192.1 160,170.3 				"/>
			</g>
		</g>
	</g>
	<g>
		<g>
			<g>
				<rect x="200.4" y="191" class="st43" width="2.9" height="10.7"/>
				<linearGradient id="SVGID_39_" gradientUnits="userSpaceOnUse" x1="201.8447" y1="190.0661" x2="201.8447" y2="197.692">
					<stop  offset="0" style="stop-color:#A2A2A2"/>
					<stop  offset="0.9356" style="stop-color:#F9F9F9"/>
					<stop  offset="1" style="stop-color:#FFFFFF"/>
				</linearGradient>
				<rect x="200.4" y="191.5" class="st74" width="2.9" height="6.7"/>
			</g>
			<g>
				<polygon class="st17" points="192.8,192.1 210.9,192.1 201.8,170.3 				"/>
				<polygon class="st23" points="201.8,192.1 210.9,192.1 201.8,170.3 				"/>
			</g>
		</g>
	</g>
</g>
<g id="trees">
	<g>
		<g>
			<g>
				<rect x="217.3" y="177.2" class="st0" width="4.7" height="24.5"/>
				<linearGradient id="SVGID_40_" gradientUnits="userSpaceOnUse" x1="219.7029" y1="179.724" x2="219.7029" y2="191.6192">
					<stop  offset="0" style="stop-color:#ADADAD"/>
					<stop  offset="1" style="stop-color:#FFFFFF"/>
				</linearGradient>
				<rect x="217.3" y="178.1" class="st75" width="4.7" height="13.8"/>
			</g>
			<g>
				<g>
					<ellipse class="st15" cx="220" cy="163.4" rx="16.5" ry="16.6"/>
					<path class="st16" d="M206.3,159.8c0-3.1,0.9-6,2.3-8.4c-3.2,3-5.2,7.3-5.2,12c0,9.1,7.4,16.6,16.5,16.6
						c6.1,0,11.3-3.3,14.2-8.1c-3,2.8-6.9,4.5-11.3,4.5C213.7,176.3,206.3,168.9,206.3,159.8z"/>
				</g>
				<g>
					<circle class="st15" cx="212.2" cy="176" r="5.8"/>
					<path class="st16" d="M207.4,174.7c0-1.1,0.3-2.1,0.8-2.9c-1.1,1.1-1.8,2.5-1.8,4.2c0,3.2,2.6,5.8,5.8,5.8c2.1,0,4-1.1,5-2.8
						c-1,1-2.4,1.6-4,1.6C210,180.5,207.4,177.9,207.4,174.7z"/>
				</g>
				<g>
					<circle class="st15" cx="206" cy="154.8" r="7.2"/>
					<path class="st16" d="M200,153.3c0-1.3,0.4-2.6,1-3.7c-1.4,1.3-2.3,3.2-2.3,5.2c0,4,3.2,7.2,7.2,7.2c2.6,0,4.9-1.4,6.2-3.5
						c-1.3,1.2-3,2-4.9,2C203.3,160.5,200,157.2,200,153.3z"/>
				</g>
			</g>
			<g>
				<circle class="st15" cx="231.7" cy="151.3" r="3.5"/>
				<path class="st16" d="M228.9,150.6c0-0.7,0.2-1.3,0.5-1.8c-0.7,0.6-1.1,1.5-1.1,2.5c0,1.9,1.6,3.5,3.5,3.5c1.3,0,2.4-0.7,3-1.7
					c-0.6,0.6-1.5,1-2.4,1C230.4,154.1,228.9,152.5,228.9,150.6z"/>
			</g>
			<path class="st4" d="M235.2,151.3c0-1.9-1.6-3.5-3.5-3.5c-1.2,0-2.3,0.6-2.9,1.6c-2.6-1.6-5.6-2.6-8.9-2.6v33.1
				c9.1,0,16.5-7.4,16.5-16.6c0-3.4-1-6.6-2.8-9.2C234.6,153.6,235.2,152.5,235.2,151.3z"/>
		</g>
		<g>
			<g>
				<rect x="225.4" y="176.6" class="st0" width="2.3" height="25.1"/>
				<linearGradient id="SVGID_41_" gradientUnits="userSpaceOnUse" x1="226.5013" y1="190.5726" x2="226.5013" y2="197.2372">
					<stop  offset="0" style="stop-color:#ADADAD"/>
					<stop  offset="1" style="stop-color:#FFFFFF"/>
				</linearGradient>
				<rect x="225.4" y="187.2" class="st76" width="2.3" height="10.5"/>
			</g>
			<g>
				<circle class="st15" cx="226.2" cy="178.1" r="10.3"/>
				<path class="st16" d="M217.7,175.9c0-1.9,0.5-3.7,1.5-5.3c-2,1.9-3.2,4.5-3.2,7.5c0,5.7,4.6,10.3,10.3,10.3c3.8,0,7.1-2,8.9-5.1
					c-1.8,1.7-4.3,2.8-7.1,2.8C222.4,186.2,217.7,181.6,217.7,175.9z"/>
			</g>
			<g>
				<circle class="st15" cx="235.1" cy="173.3" r="4"/>
				<path class="st16" d="M231.8,172.5c0-0.7,0.2-1.4,0.6-2c-0.8,0.7-1.3,1.8-1.3,2.9c0,2.2,1.8,4,4,4c1.5,0,2.7-0.8,3.4-2
					c-0.7,0.7-1.7,1.1-2.7,1.1C233.6,176.5,231.8,174.7,231.8,172.5z"/>
			</g>
			<path class="st4" d="M235.1,169.3c-0.9,0-1.7,0.3-2.3,0.8c-1.8-1.5-4-2.3-6.5-2.3v20.6c5.7,0,10.3-4.6,10.3-10.3
				c0-0.3,0-0.7-0.1-1c1.5-0.6,2.6-2,2.6-3.7C239.1,171.1,237.3,169.3,235.1,169.3z"/>
		</g>
	</g>
	<g>
		<g>
			<rect x="272.5" y="175.7" class="st0" width="3.5" height="26.1"/>
			<linearGradient id="SVGID_42_" gradientUnits="userSpaceOnUse" x1="274.2158" y1="179.853" x2="274.2158" y2="193.574">
				<stop  offset="0" style="stop-color:#ADADAD"/>
				<stop  offset="1" style="stop-color:#FFFFFF"/>
			</linearGradient>
			<rect x="272.5" y="182.4" class="st77" width="3.5" height="12.1"/>
		</g>
		<g>
			<g>
				<circle class="st13" cx="274.4" cy="169.2" r="14.5"/>
				<path class="st15" d="M262.5,166.1c0-2.7,0.8-5.2,2-7.4c-2.8,2.6-4.6,6.4-4.6,10.5c0,8,6.5,14.5,14.5,14.5
					c5.3,0,9.9-2.9,12.4-7.1c-2.6,2.4-6.1,3.9-9.9,3.9C268.9,180.5,262.5,174.1,262.5,166.1z"/>
				<g>
					<path class="st13" d="M267.2,173.7c-3.4,0-6.1,2.8-6.1,6.1c0,3.4,2.8,6.2,6.1,6.2c3.4,0,6.2-2.8,6.2-6.2
						C273.4,176.5,270.6,173.7,267.2,173.7z"/>
					<path class="st15" d="M262.2,178.5c0-1.1,0.3-2.2,0.9-3.1c-1.2,1.1-1.9,2.7-1.9,4.5c0,3.4,2.8,6.2,6.1,6.2c2.3,0,4.2-1.2,5.3-3
						c-1.1,1-2.6,1.7-4.2,1.7C264.9,184.7,262.2,181.9,262.2,178.5z"/>
				</g>
			</g>
			<path class="st4" d="M274.4,154.7v29c8,0,14.5-6.5,14.5-14.5C288.9,161.2,282.4,154.7,274.4,154.7z"/>
		</g>
	</g>
</g>
</svg>
